<svg preserveAspectRatio="xMidYMid meet" width="170" height="171" overflow="visible" style="display: block;" viewBox="0 0 170 171" fill="none" xmlns="http://www.w3.org/2000/svg">
<g id="Glass">
<path d="M149.167 107.773L140.682 116.259L53 28.5771L61.4854 20.0918L149.167 107.773Z" fill="var(--fill-0, black)"/>
<path fill-rule="evenodd" clip-rule="evenodd" d="M110.889 0C143.535 0.000187009 170 26.6208 170 59.459V111.541C170 144.379 143.535 171 110.889 171H59.1113C26.4651 171 0.000219789 144.379 0 111.541V59.459C0.000218085 26.6208 26.4651 0.000190312 59.1113 0H110.889ZM59.1113 11.2842C32.6608 11.2844 11.219 32.8529 11.2188 59.459V111.541C11.219 138.147 32.6608 159.716 59.1113 159.716H110.889C137.339 159.716 158.781 138.147 158.781 111.541V96.1748L73.8906 11.2842H59.1113ZM158.781 79.2041V59.459C158.781 32.8529 137.339 11.2844 110.889 11.2842H90.8613L158.781 79.2041Z" fill="var(--fill-0, black)"/>
</g>
</svg>
