<svg preserveAspectRatio="none" width="170" height="171" overflow="visible" style="display: block;" viewBox="0 0 170 171" fill="none" xmlns="http://www.w3.org/2000/svg">
<g id="Icones">
<path d="M91 138.5H79V53H91V138.5Z" fill="var(--fill-0, black)"/>
<path d="M91 46H79V34H91V46Z" fill="var(--fill-0, black)"/>
<path fill-rule="evenodd" clip-rule="evenodd" d="M110.889 0C143.535 0.000187009 170 26.6208 170 59.459V111.541C170 144.379 143.535 171 110.889 171H59.1113C26.4651 171 0.000219789 144.379 0 111.541V59.459C0.000218085 26.6208 26.4651 0.000190312 59.1113 0H110.889ZM59.1113 11.2842C32.6608 11.2844 11.219 32.8529 11.2188 59.459V111.541C11.219 138.147 32.6608 159.716 59.1113 159.716H110.889C137.339 159.716 158.781 138.147 158.781 111.541V59.459C158.781 32.8529 137.339 11.2844 110.889 11.2842H59.1113Z" fill="var(--fill-0, black)"/>
</g>
</svg>
