<svg preserveAspectRatio="xMidYMid meet" width="149" height="171" overflow="hidden" style="display: block;" viewBox="0 0 149 170.76" fill="none" xmlns="http://www.w3.org/2000/svg">
<g id="Paleta de Cores">
<path fill-rule="evenodd" clip-rule="evenodd" d="M104.645 82C129.141 82 149 101.869 149 126.38C149 150.89 129.141 170.76 104.645 170.76H44.3555C19.8587 170.76 0.000100976 150.89 0 126.38C0 101.869 19.8586 82 44.3555 82H104.645ZM44.3555 93.2021C26.0423 93.2022 11.1963 108.057 11.1963 126.38C11.1964 144.703 26.0424 159.557 44.3555 159.557H104.645C122.958 159.557 137.804 144.703 137.804 126.38C137.804 108.057 122.958 93.2022 104.645 93.2021H44.3555Z" fill="var(--fill-0, black)"/>
<path d="M104.645 41C129.141 41 149 60.8695 149 85.3799C149 91.021 147.946 96.4161 146.027 101.38C144.083 96.3476 141.247 91.7595 137.715 87.8076C137.773 87.0062 137.804 86.1961 137.804 85.3799C137.804 67.0566 122.958 52.2031 104.645 52.2031H44.3555C26.0424 52.2031 11.1965 67.0566 11.1963 85.3799C11.1963 86.1961 11.2263 87.0062 11.2842 87.8076C7.75197 91.7595 4.91644 96.3477 2.97168 101.38C1.05347 96.4162 6.0787e-05 91.0208 0 85.3799C0.000162777 60.8695 19.8587 41 44.3555 41H104.645Z" fill="var(--fill-0, black)"/>
<path d="M104.645 0C129.141 1.23768e-05 149 19.8695 149 44.3799C149 50.021 147.946 55.4161 146.027 60.3799C144.083 55.3476 141.247 50.7595 137.715 46.8076C137.773 46.0062 137.804 45.1961 137.804 44.3799C137.804 26.0566 122.958 11.2031 104.645 11.2031H44.3555C26.0424 11.2031 11.1965 26.0566 11.1963 44.3799C11.1963 45.1961 11.2263 46.0062 11.2842 46.8076C7.75197 50.7595 4.91644 55.3477 2.97168 60.3799C1.05347 55.4162 6.0787e-05 50.0208 0 44.3799C0.000162777 19.8695 19.8587 1.23784e-05 44.3555 0H104.645Z" fill="var(--fill-0, black)"/>
</g>
</svg>
