<svg preserveAspectRatio="xMidYMid meet" width="171" height="171" overflow="hidden" style="display: block;" viewBox="0 0 171 171" fill="none" xmlns="http://www.w3.org/2000/svg">
<path id="Section e Forma" d="M160 60.5C160 33.1619 137.838 11 110.5 11H89.4854C75.3221 11.0001 61.837 17.067 52.4424 27.666L23.457 60.3682C15.4316 69.4225 11 81.103 11 93.2021V110.5C11 137.838 33.1619 160 60.5 160H110.5C137.838 160 160 137.838 160 110.5V60.5ZM171 110.5C171 143.913 143.913 171 110.5 171H60.5C27.0868 171 0 143.913 0 110.5V93.2021C0 78.4145 5.41595 64.1387 15.2246 53.0723L44.2109 20.3701C55.6933 7.41569 72.1746 0.000137115 89.4854 0H110.5C143.913 0 171 27.0868 171 60.5V110.5Z" fill="var(--fill-0, black)"/>
</svg>
