<svg preserveAspectRatio="none" width="170" height="171" overflow="visible" style="display: block;" viewBox="0 0 170 171" fill="none" xmlns="http://www.w3.org/2000/svg">
<g id="Simbolo">
<path d="M128.611 88.4961C128.519 90.9579 128.231 93.3712 127.753 95.7207C126.859 100.13 125.309 104.307 123.229 108.152C122.022 110.386 120.617 112.499 119.057 114.478L119.056 114.479C116.176 118.143 112.734 121.347 108.867 123.953L108.863 123.955C105.389 126.305 101.555 128.18 97.4736 129.492C93.1696 130.879 88.587 131.612 83.8203 131.612V131.631H41V121.164H83.8379C91.4348 121.164 98.4607 118.688 104.152 114.494L104.15 114.493C106.507 112.769 108.627 110.736 110.462 108.493C113.484 104.801 115.753 100.448 117.019 95.7109C117.641 93.3875 118.018 90.9778 118.137 88.4961H128.611Z" fill="var(--fill-0, black)"/>
<path d="M128.648 53.4668H85.8096C67.4334 53.4672 52.3851 67.9639 51.499 86.124H41.0264C41.9202 62.1861 61.6647 43.0004 85.8096 43H128.648V53.4668Z" fill="var(--fill-0, black)"/>
<path fill-rule="evenodd" clip-rule="evenodd" d="M110.889 0C143.535 0.000187009 170 26.6208 170 59.459V111.541C170 144.379 143.535 171 110.889 171H59.1113C26.4651 171 0.000219789 144.379 0 111.541V59.459C0.000218085 26.6208 26.4651 0.000190312 59.1113 0H110.889ZM59.1113 11.2842C32.6608 11.2844 11.219 32.8529 11.2188 59.459V111.541C11.219 138.147 32.6608 159.716 59.1113 159.716H110.889C137.339 159.716 158.781 138.147 158.781 111.541V59.459C158.781 32.8529 137.339 11.2844 110.889 11.2842H59.1113Z" fill="var(--fill-0, black)"/>
</g>
</svg>
