<svg preserveAspectRatio="xMidYMid meet" width="188" height="190" overflow="visible" style="display: block;" viewBox="0 0 188 190" fill="none" xmlns="http://www.w3.org/2000/svg">
<g id="Uso">
<path fill-rule="evenodd" clip-rule="evenodd" d="M93.1376 57C114.098 57 131.084 74.0155 131.084 94.9966C131.084 115.978 114.098 132.993 93.1376 132.993C72.1776 132.993 55.1928 115.978 55.1927 94.9966C55.1927 74.0157 72.1775 57.0003 93.1376 57ZM93.1376 68.4887C78.5251 68.489 66.6732 80.3533 66.6732 94.9966C66.6733 109.64 78.5252 121.504 93.1376 121.505C107.75 121.505 119.604 109.64 119.604 94.9966C119.604 80.3531 107.75 68.4887 93.1376 68.4887Z" fill="var(--fill-0, black)"/>
<path fill-rule="evenodd" clip-rule="evenodd" d="M94 0C145.913 0 188 42.5312 188 95C188 147.469 145.913 190 94 190C42.0869 190 4.00959e-07 147.469 0 95C3.52355e-06 42.5312 42.0869 1.38069e-06 94 0ZM94 11.509C48.3714 11.509 11.3845 48.8913 11.3845 95C11.3845 141.109 48.3714 178.491 94 178.491C139.629 178.491 176.616 141.109 176.616 95C176.616 48.8913 139.629 11.509 94 11.509Z" fill="var(--fill-0, black)"/>
</g>
</svg>
