<svg width="1521" height="113" viewBox="0 0 1521 113" fill="none" xmlns="http://www.w3.org/2000/svg">
<path d="M0 56.7144C0 46.3833 3.14191 36.9575 9.42576 28.4371C15.7096 19.8101 23.9638 12.9937 34.1884 7.98795C44.5194 2.98217 55.4363 0.479288 66.9389 0.479288H199.379L218.869 17.2539L219.349 111.831H200.178V17.4137H164.552C155.925 17.4137 147.937 19.2243 140.588 22.8455C133.345 26.4667 127.594 31.3127 123.334 37.3836C119.18 43.3479 117.103 49.7382 117.103 56.5546V111.991H97.9321V56.7144C97.9321 48.9394 99.796 41.697 103.524 34.9872C107.251 28.2773 112.417 22.4195 119.02 17.4137H65.8206C57.5131 17.4137 49.7382 19.2243 42.4958 22.8455C35.3599 26.4667 29.6619 31.3127 25.4016 37.3836C21.2479 43.3479 19.171 49.7382 19.171 56.5546V111.991H0V56.7144Z" fill="#0D0D0D"/>
<path d="M328.354 111.831V61.1876H250.232V111.991H230.901V56.7144C230.901 46.3833 234.043 36.9575 240.327 28.4371C246.611 19.8101 254.865 12.9937 265.09 7.98795C275.421 2.98217 286.338 0.479288 297.84 0.479288H327.555L347.046 17.2539L347.525 111.831H328.354ZM328.354 45.052V17.4137H296.882C290.172 17.4137 283.781 18.6385 277.711 21.0882C271.64 23.4313 266.421 26.733 262.054 30.9932C257.687 35.1469 254.492 39.8332 252.469 45.052H328.354Z" fill="#0D0D0D"/>
<path d="M358.989 56.5546C358.989 46.8626 361.865 37.7031 367.616 29.0761C373.474 20.3426 381.568 13.3665 391.899 8.1477C402.23 2.82241 413.84 0.15976 426.727 0.15976H491.269V17.0942H427.685C418.526 17.0942 410.591 18.5853 403.881 21.5674C397.171 24.5496 391.846 28.3306 387.905 32.9103C383.965 37.4901 381.196 42.3361 379.598 47.4484H491.269V55.5961C491.269 65.2881 488.34 74.5008 482.483 83.2343C476.731 91.8613 468.69 98.8374 458.359 104.163C448.028 109.381 436.419 111.991 423.532 111.991H358.989V95.0565H422.573C431.839 95.0565 439.88 93.5654 446.697 90.5832C453.513 87.4946 458.892 83.6603 462.832 79.0806C466.773 74.3943 469.489 69.4418 470.98 64.223H358.989V56.5546Z" fill="#0D0D0D"/>
<path d="M503.473 0.15976H522.485V111.991H503.473V0.15976Z" fill="#0D0D0D"/>
<path d="M582.269 55.7558C582.163 46.5963 585.038 37.7563 590.896 29.2359C596.754 20.6089 604.848 13.6328 615.179 8.30746C625.617 2.87566 637.226 0.15976 650.007 0.15976H714.549V11.5026H654.48C642.019 11.5026 631.475 13.7393 622.848 18.2125C614.327 22.6857 607.99 27.9578 603.837 34.0286C599.683 40.0995 597.606 45.5312 597.606 50.324L695.059 50.4838V61.0278H595.849V112.151H582.589L582.269 55.7558Z" fill="#0D0D0D"/>
<path d="M715.562 94.8967V56.3948C715.562 46.0638 718.703 36.638 724.987 28.1175C731.271 19.4906 739.525 12.6742 749.75 7.66842C760.081 2.66264 770.998 0.15976 782.5 0.15976H827.872L847.682 16.9344V55.4363C847.682 65.7674 844.54 75.2464 838.256 83.8734C831.972 92.3938 823.665 99.1569 813.334 104.163C803.109 109.168 792.246 111.671 780.743 111.671H735.372L715.562 94.8967ZM780.583 100.648C790.169 100.648 799.062 98.5712 807.263 94.4174C815.464 90.2637 821.961 84.7254 826.754 77.8025C831.653 70.8796 834.103 63.4775 834.103 55.5961V11.1831H782.66C773.075 11.1831 764.181 13.26 755.98 17.4137C747.78 21.5674 741.229 27.1057 736.33 34.0286C731.537 40.9515 729.141 48.3537 729.141 56.2351V100.648H780.583Z" fill="#0D0D0D"/>
<path d="M926.03 111.991C915.06 111.991 904.409 109.595 894.078 104.802C883.747 99.9025 875.333 93.1394 868.836 84.5124C862.446 75.8854 859.251 66.2466 859.251 55.5961V0.479288H872.83V53.8387C872.83 63.3177 875.546 71.6252 880.978 78.7611C886.516 85.7905 893.386 91.2222 901.587 95.0565C909.894 98.7842 917.989 100.648 925.87 100.648C934.391 100.648 942.698 98.7842 950.793 95.0565C958.994 91.3288 965.757 85.897 971.082 78.7611C976.407 71.6252 979.07 63.3177 979.07 53.8387V0.479288H992.649V55.5961C992.649 66.2466 989.401 75.8854 982.904 84.5124C976.514 93.1394 968.153 99.9025 957.822 104.802C947.597 109.595 937 111.991 926.03 111.991Z" fill="#0D0D0D"/>
<path d="M1004.51 17.2539L1024.16 0.479288H1053.87C1065.38 0.479288 1076.24 2.98217 1086.46 7.98795C1096.8 12.9937 1105.1 19.8101 1111.39 28.4371C1117.67 36.9575 1120.81 46.3833 1120.81 56.7144V111.991H1107.55V56.5546C1107.55 49.2057 1105.37 42.1231 1101 35.3067C1096.64 28.3838 1089.93 22.739 1080.87 18.3723C1071.82 14.0055 1060.64 11.8222 1047.32 11.8222H1017.77V111.991L1004.19 111.831V112.151L1004.51 17.2539Z" fill="#0D0D0D"/>
<path d="M1132.28 0H1196.82C1209.6 0 1221.16 2.7159 1231.49 8.1477C1241.92 13.473 1250.02 20.4491 1255.77 29.0761C1261.63 37.5966 1264.56 46.4366 1264.56 55.5961C1264.56 64.7556 1261.63 73.6488 1255.77 82.2758C1250.02 90.7962 1241.92 97.7724 1231.49 103.204C1221.16 108.529 1209.6 111.192 1196.82 111.192H1132.28V0ZM1194.74 99.8492C1206.14 99.8492 1216.1 97.6126 1224.62 93.1393C1233.14 88.6661 1239.63 83.0213 1244.11 76.2049C1248.69 69.282 1250.98 62.4124 1250.98 55.5961C1250.98 48.8862 1248.69 42.0698 1244.11 35.1469C1239.63 28.224 1233.14 22.526 1224.62 18.0528C1216.1 13.473 1206.14 11.1831 1194.74 11.1831H1143.62V99.8492H1194.74Z" fill="#0D0D0D"/>
<path d="M1344.02 111.831C1330.28 111.831 1318.24 109.062 1307.91 103.524C1297.58 97.9854 1289.7 91.1158 1284.27 82.9148C1278.84 74.6073 1276.12 66.6194 1276.12 58.951V16.7747L1296.09 0.639041H1392.27V12.1417H1289.7V50.324H1371.98V60.5486H1290.5C1290.5 65.6609 1292.79 71.3589 1297.37 77.6428C1301.95 83.9266 1308.23 89.3051 1316.22 93.7784C1324.32 98.1451 1333.31 100.328 1343.22 100.328H1392.27V111.831H1344.02Z" fill="#0D0D0D"/>
<path d="M1403.9 0.15976H1500.71L1521 16.9344C1519.94 23.9638 1516.74 30.8867 1511.41 37.7031C1506.2 44.4129 1499.27 50.111 1490.65 54.7973C1482.13 59.4835 1472.75 62.3592 1462.53 63.4242L1520.84 111.831H1501.35L1437.13 58.3119V53.0399H1452.14C1464.18 53.0399 1474.35 50.8033 1482.66 46.33C1491.07 41.8568 1497.3 36.425 1501.35 30.0347C1505.4 23.6443 1507.42 17.5202 1507.42 11.6624H1417.48V111.991H1403.9V0.15976Z" fill="#0D0D0D"/>
</svg>
