<svg width="1310" height="349" viewBox="0 0 1310 349" fill="none" xmlns="http://www.w3.org/2000/svg">
<path fill-rule="evenodd" clip-rule="evenodd" d="M417.177 254.371L417.656 348.832H403.934V295.858H315.217V348.992H301.175V293.783C301.175 283.465 304.314 274.05 310.59 265.54C316.866 256.924 325.11 250.116 335.322 245.116C345.641 240.117 356.544 237.617 368.033 237.617H397.711L417.177 254.371ZM361.809 248.946C354.789 248.946 348.087 250.648 341.705 254.052C335.429 257.35 330.057 261.711 325.589 267.136C321.228 272.561 318.196 278.358 316.494 284.528H403.934V248.946H361.809Z" fill="#0D0D0D"/>
<path fill-rule="evenodd" clip-rule="evenodd" d="M688.778 254.371L689.257 348.832H675.534V295.858H586.817V348.992H572.776V293.783C572.776 283.465 575.913 274.05 582.19 265.54C588.466 256.924 596.71 250.116 606.922 245.116C617.24 240.117 628.144 237.617 639.632 237.617H669.312L688.778 254.371ZM633.41 248.946C626.389 248.946 619.687 250.648 613.304 254.052C607.028 257.35 601.656 261.711 597.189 267.136C592.827 272.561 589.795 278.358 588.093 284.528H675.534V248.946H633.41Z" fill="#0D0D0D"/>
<path d="M1190.6 254.371L1191.08 348.832H1177.19V248.946H1138.1C1127.89 248.946 1118.85 251.126 1110.97 255.488C1103.1 259.849 1096.99 265.487 1092.63 272.402C1088.37 279.21 1086.24 286.283 1086.24 293.623V348.992H1072.68V293.783C1072.68 285.167 1075.02 276.656 1079.7 268.253C1084.49 259.743 1091.4 253.307 1100.44 248.946H1031.99C1023.91 248.946 1016.25 251.18 1009.01 255.648C1001.89 260.116 996.196 265.86 991.941 272.881C987.686 279.795 985.558 286.709 985.558 293.623V348.992H971.996V293.783C971.996 283.465 975.133 274.05 981.409 265.54C987.685 256.924 995.93 250.116 1006.14 245.116C1016.46 240.117 1027.36 237.617 1038.85 237.617H1171.13L1190.6 254.371Z" fill="#0D0D0D"/>
<path d="M1253.67 291.23L1294.2 237.297H1310L1260.38 303.517V348.992H1246.81L1246.65 303.517L1196.23 237.297H1212.99L1253.67 291.23Z" fill="#0D0D0D"/>
<path d="M960.378 249.265H857.939V287.401H940.114V297.613H858.736C858.736 302.719 861.024 308.41 865.598 314.686C870.172 320.962 876.448 326.334 884.426 330.802C892.511 335.163 901.499 337.344 911.392 337.344H960.378V348.832H912.19C898.468 348.832 886.448 346.067 876.129 340.535C865.811 335.004 857.939 328.142 852.514 319.951C847.089 311.654 844.375 303.676 844.375 296.017V253.892L864.322 237.776H960.378V249.265Z" fill="#0D0D0D"/>
<path d="M561.224 248.626H498.835C487.453 248.626 477.507 250.808 468.997 255.169C460.487 259.53 453.945 265.115 449.371 271.923C444.903 278.731 442.669 285.646 442.669 292.666C442.669 299.581 444.903 306.442 449.371 313.25C453.945 320.058 460.487 325.696 468.997 330.164C477.507 334.525 487.453 336.706 498.835 336.706H561.224V348.194H496.761C483.996 348.194 472.401 345.534 461.976 340.216C451.658 334.791 443.573 327.823 437.723 319.313C431.979 310.697 429.106 301.815 429.106 292.666C429.106 283.518 431.978 274.688 437.723 266.178C443.573 257.562 451.658 250.594 461.976 245.276C472.401 239.851 483.996 237.138 496.761 237.138H561.224V248.626Z" fill="#0D0D0D"/>
<path fill-rule="evenodd" clip-rule="evenodd" d="M765.17 237.138C777.935 237.138 789.477 239.85 799.796 245.276C810.22 250.594 818.305 257.562 824.049 266.178C829.9 274.688 832.825 283.518 832.825 292.666C832.825 301.815 829.9 310.697 824.049 319.313C818.305 327.823 810.22 334.791 799.796 340.216C789.477 345.534 777.935 348.194 765.17 348.194H700.707V237.138H765.17ZM712.036 336.865H763.096C774.478 336.865 784.424 334.632 792.934 330.164C801.444 325.696 807.933 320.058 812.401 313.25C816.975 306.335 819.262 299.474 819.262 292.666C819.262 285.965 816.975 279.156 812.401 272.242C807.933 265.327 801.444 259.637 792.934 255.169C784.424 250.595 774.478 248.308 763.096 248.308H712.036V336.865Z" fill="#0D0D0D"/>
<path d="M164.59 70.1961C183.007 88.6445 182.823 118.622 164.166 136.84L94.2756 205.035H78.8995V0.828607H95.3426L164.59 70.1961Z" fill="#0D0D0D"/>
<path d="M66.184 48.5752V76.4146L19.656 29.8045V176.747L66.184 131.346V158.829L54.2621 170.438L18.8293 205.025H0V0H17.6939L66.184 48.5752Z" fill="#0D0D0D"/>
<path d="M519.373 64.9216L519.851 159.383H500.705V65.0818H465.121C456.505 65.0819 448.527 66.8902 441.188 70.5069C433.954 74.1236 428.209 78.9636 423.954 85.027C419.805 90.9838 417.732 97.3662 417.731 104.174V159.543H398.584V104.334C398.584 96.5688 400.446 89.3347 404.169 82.6331C407.892 75.9317 413.051 70.0813 419.646 65.0818H366.511C358.214 65.0819 350.449 66.8901 343.215 70.5069C336.088 74.1236 330.397 78.9636 326.142 85.027C321.994 90.9839 319.919 97.3661 319.919 104.174V159.543H300.772V104.334C300.772 94.0158 303.909 84.6012 310.185 76.0912C316.462 67.4748 324.706 60.6668 334.918 55.6672C345.236 50.6676 356.14 48.1677 367.628 48.1677H499.906L519.373 64.9216Z" fill="#0D0D0D"/>
<path fill-rule="evenodd" clip-rule="evenodd" d="M647.393 64.9216L647.871 159.383H628.723V108.802H550.698V159.543H531.39V104.334C531.39 94.0158 534.528 84.6012 540.804 76.0912C547.08 67.4748 555.324 60.6668 565.536 55.6672C575.855 50.6676 586.758 48.1678 598.247 48.1677H627.926L647.393 64.9216ZM597.29 65.0818C590.589 65.0818 584.206 66.3044 578.142 68.751C572.079 71.0912 566.867 74.3894 562.505 78.6444C558.144 82.793 554.952 87.4734 552.931 92.6858H628.723V65.0818H597.29Z" fill="#0D0D0D"/>
<path d="M791.439 64.7623H727.934C718.785 64.7623 710.86 66.2512 704.158 69.2298C697.457 72.2082 692.138 75.9847 688.202 80.5586C684.267 85.1328 681.5 89.9737 679.905 95.0798H791.439V103.217C791.439 112.897 788.514 122.099 782.664 130.821C776.919 139.438 768.888 146.405 758.57 151.724C748.251 156.936 736.656 159.543 723.785 159.543H659.321V142.629H722.827C732.082 142.629 740.113 141.14 746.921 138.161C753.729 135.077 759.101 131.247 763.037 126.672C766.973 121.992 769.685 117.046 771.175 111.834H659.321V104.174C659.321 94.4939 662.194 85.3455 667.938 76.7292C673.788 68.0066 681.873 61.0388 692.191 55.8264C702.509 50.5077 714.105 47.8482 726.976 47.8482H791.439V64.7623Z" fill="#0D0D0D"/>
<path d="M822.617 159.543H803.629V47.8482H822.617V159.543Z" fill="#0D0D0D"/>
</svg>
