<svg width="1517" height="341" viewBox="0 0 1517 341" fill="none" xmlns="http://www.w3.org/2000/svg">
<path d="M502.401 276.671L549.805 228.302H564.428L509.954 284.545L564.749 340.788H549.805L502.401 292.258L455.158 340.788H440.213L495.009 284.545L440.374 228.302H455.158L502.401 276.671Z" fill="#FF0055"/>
<path fill-rule="evenodd" clip-rule="evenodd" d="M696.728 245.175C695.014 253.531 691.104 261.352 684.998 268.636C678.892 275.921 671.018 281.76 661.376 286.152C651.842 290.437 641.289 292.58 629.72 292.58L594.529 292.419V340.788H580.87V228.302H677.284L696.728 245.175ZM594.529 280.849H627.47C637.111 280.849 646.271 278.867 654.948 274.904C663.733 270.833 670.803 265.636 676.16 259.316C681.516 252.888 684.195 246.354 684.195 239.712H594.529V280.849Z" fill="#FF0055"/>
<path d="M954.603 245.175C953.531 252.246 950.317 259.209 944.961 266.065C939.712 272.814 932.748 278.546 924.071 283.26C915.501 287.973 906.073 290.866 895.789 291.937L954.441 340.626H934.837L870.24 286.795V281.492H885.344C897.449 281.492 907.681 279.242 916.037 274.742C924.5 270.243 930.767 264.78 934.837 258.352C938.908 251.925 940.944 245.765 940.944 239.873H850.474V340.788H836.815V228.302H934.194L954.603 245.175Z" fill="#FF0055"/>
<path d="M983.156 340.788H969.497V228.302H983.156V340.788Z" fill="#FF0055"/>
<path d="M1176.63 228.624C1188.2 228.624 1199.13 231.142 1209.41 236.176C1219.8 241.211 1228.16 248.068 1234.48 256.745C1240.8 265.315 1243.96 274.796 1243.96 285.187V340.788H1230.62V285.027C1230.62 277.636 1228.43 270.512 1224.04 263.656C1219.64 256.692 1212.89 251.014 1203.79 246.621C1194.68 242.229 1183.43 240.033 1170.04 240.033H1140.32V340.788L1126.66 340.626L1126.98 245.497L1146.74 228.624H1176.63Z" fill="#FF0055"/>
<path d="M424.014 240.355H320.85V278.76H403.606V289.044H321.654C321.654 294.186 323.957 299.918 328.563 306.239C333.17 312.559 339.491 317.969 347.525 322.469C355.667 326.861 364.719 329.057 374.682 329.057H424.014V340.626H375.485C361.666 340.626 349.561 337.841 339.169 332.271C328.778 326.7 320.85 319.79 315.387 311.541C309.924 303.185 307.192 295.151 307.191 287.438V245.015L327.278 228.785H424.014V240.355Z" fill="#FF0055"/>
<path d="M825.116 240.355H721.952V278.76H804.708V289.044H722.755C722.755 294.186 725.059 299.918 729.666 306.239C734.272 312.559 740.592 317.969 748.627 322.469C756.768 326.861 765.821 329.057 775.784 329.057H825.116V340.626H776.587C762.768 340.626 750.662 337.841 740.271 332.271C729.879 326.7 721.952 319.79 716.488 311.541C711.025 303.185 708.293 295.151 708.293 287.438V245.015L728.38 228.785H825.116V240.355Z" fill="#FF0055"/>
<path d="M1114.96 240.355H1011.79V278.76H1094.55V289.044H1012.6C1012.6 294.186 1014.9 299.918 1019.51 306.239C1024.11 312.559 1030.43 317.969 1038.47 322.469C1046.61 326.861 1055.66 329.057 1065.62 329.057H1114.96V340.626H1066.43C1052.61 340.626 1040.5 337.841 1030.11 332.271C1019.72 326.7 1011.79 319.79 1006.33 311.541C1000.87 303.185 998.135 295.151 998.135 287.438V245.015L1018.22 228.785H1114.96V240.355Z" fill="#FF0055"/>
<path d="M1517 240.355H1413.84V278.76H1496.59V289.044H1414.64C1414.64 294.186 1416.94 299.918 1421.55 306.239C1426.16 312.559 1432.48 317.969 1440.51 322.469C1448.65 326.861 1457.71 329.057 1467.67 329.057H1517V340.626H1468.47C1454.65 340.626 1442.55 337.841 1432.16 332.271C1421.76 326.7 1413.84 319.79 1408.37 311.541C1402.91 303.185 1400.18 295.151 1400.18 287.438V245.015L1420.26 228.785H1517V240.355Z" fill="#FF0055"/>
<path d="M1388.55 239.712H1325.71C1314.25 239.712 1304.24 241.908 1295.67 246.3C1287.1 250.692 1280.51 256.317 1275.9 263.173C1271.4 270.029 1269.15 276.992 1269.15 284.063C1269.15 291.026 1271.4 297.936 1275.9 304.792C1280.51 311.649 1287.1 317.326 1295.67 321.826C1304.24 326.218 1314.25 328.414 1325.71 328.414H1388.55V339.983H1323.63C1310.77 339.983 1299.09 337.305 1288.59 331.949C1278.2 326.486 1270.06 319.469 1264.17 310.899C1258.39 302.221 1255.49 293.276 1255.49 284.063C1255.49 274.85 1258.39 265.958 1264.17 257.388C1270.06 248.711 1278.2 241.694 1288.59 236.338C1299.09 230.874 1310.77 228.142 1323.63 228.142H1388.55V239.712Z" fill="#FF0055"/>
<path fill-rule="evenodd" clip-rule="evenodd" d="M60.9775 42.2324C77.9435 59.3065 105.567 59.3512 122.577 42.2324L164.518 0.0449499L170.766 6.33012L184.099 19.2757L142.504 61.0722C125.538 78.1408 125.493 105.931 142.504 123.044L184.438 165.238L171.404 178.35L164.94 184.933L122.533 142.236C105.567 125.168 77.9439 125.123 60.9335 142.236L18.9933 184.424L5.95879 171.311L5.99788 171.272L0 165.238L41.9793 123.005C58.9509 105.931 58.9953 78.1405 41.9793 61.0273L0.0439727 18.8399L13.1899 5.8386L18.9933 0L60.9775 42.2324ZM115.747 68.788C100.83 75.0678 83.9528 75.2303 68.9306 69.2746C74.5777 83.7996 74.6174 100.035 69.0391 114.587L68.7694 115.284C83.8972 109.222 100.924 109.39 115.952 115.765C109.838 100.758 109.771 83.8284 115.747 68.788Z" fill="#FF0055"/>
<path d="M526.513 55.3949L526.991 149.86H507.844V55.5541H472.259C463.642 55.5542 455.664 57.3635 448.324 60.9804C441.09 64.5973 435.345 69.4375 431.09 75.5011C426.941 81.4582 424.867 87.8408 424.867 94.6488V150.02H405.719V94.8091C405.719 87.0434 407.581 79.809 411.304 73.1071C415.027 66.4053 420.186 60.5539 426.782 55.5541H373.645C365.347 55.5542 357.582 57.3635 350.348 60.9804C343.221 64.5973 337.529 69.4375 333.274 75.5011C329.125 81.4583 327.051 87.8407 327.05 94.6488V150.02H307.903V94.8091C307.903 84.4903 311.041 75.0753 317.317 66.5649C323.593 57.9483 331.838 51.1399 342.05 46.1401C352.369 41.1403 363.273 38.6403 374.762 38.6403H507.045L526.513 55.3949Z" fill="#FF0055"/>
<path fill-rule="evenodd" clip-rule="evenodd" d="M654.538 55.3949L655.017 149.86H635.868V99.2767H557.839V150.02H538.531V94.8091C538.531 84.4903 541.669 75.0752 547.945 66.5649C554.221 57.9483 562.466 51.1399 572.678 46.1401C582.997 41.1403 593.901 38.6404 605.39 38.6403H635.071L654.538 55.3949ZM604.433 55.5541C597.731 55.5541 591.348 56.7777 585.285 59.2244C579.221 61.5648 574.009 64.8631 569.647 69.1183C565.285 73.2671 562.094 77.9476 560.073 83.1602H635.868V55.5541H604.433Z" fill="#FF0055"/>
<path d="M798.59 55.2356H735.082C725.934 55.2356 718.008 56.7247 711.307 59.7032C704.605 62.6818 699.285 66.4583 695.349 71.0325C691.413 75.6068 688.647 80.4472 687.051 85.5533H798.59V93.6922C798.59 103.373 795.665 112.574 789.814 121.297C784.07 129.914 776.038 136.882 765.719 142.201C755.4 147.414 743.805 150.02 730.933 150.02H666.467V133.105H729.975C739.23 133.105 747.262 131.616 754.07 128.638C760.879 125.553 766.251 121.723 770.187 117.148C774.123 112.468 776.836 107.521 778.326 102.309H666.467V94.6488C666.467 84.9684 669.339 75.8197 675.084 67.203C680.935 58.4799 689.019 51.5119 699.338 46.2994C709.657 40.9804 721.252 38.3208 734.124 38.3208H798.59V55.2356Z" fill="#FF0055"/>
<path d="M829.769 150.02H810.781V38.3208H829.769V150.02Z" fill="#FF0055"/>
</svg>
