<svg preserveAspectRatio="xMidYMid meet" overflow="visible" style="display: block;" viewBox="0 0 163.085 164" fill="none" xmlns="http://www.w3.org/2000/svg">
<g id="Simbolo">
<path d="M163.064 81.1005C163.064 86.7367 162.49 92.2602 161.405 97.5931C159.746 105.755 156.868 113.479 152.99 120.575C150.743 124.716 148.126 128.624 145.227 132.285C139.867 139.064 133.48 144.982 126.284 149.8C119.818 154.145 112.701 157.623 105.115 160.049C97.1039 162.61 88.5753 163.979 79.7277 163.979H79.7633V164H0V139.311H79.7703C92.7014 139.311 104.661 135.114 114.353 128.017C118.358 125.097 121.967 121.661 125.107 117.845C130.254 111.581 134.111 104.217 136.266 96.1891C137.563 91.3712 138.251 86.3205 138.251 81.1005H163.064Z" fill="#FFFFFF"/>
<path d="M81.5426 69.6179C88.4023 69.618 93.9632 75.1512 93.9632 81.9767C93.9631 88.8022 88.4023 94.3354 81.5426 94.3355C74.6829 94.3355 69.1217 88.8022 69.1217 81.9767C69.1217 75.1511 74.6829 69.6179 81.5426 69.6179Z" fill="#FFFFFF"/>
<path d="M163.085 24.6893H83.315C51.0581 24.6893 24.8128 50.8035 24.8128 82.8995H0C0 37.1751 37.3684 0 83.315 0H163.085V24.6893Z" fill="#FFFFFF"/>
</g>
</svg>
