<svg width="1566" height="207" viewBox="0 0 1566 207" fill="none" xmlns="http://www.w3.org/2000/svg"><defs><linearGradient id="brand-gradient" x1="0%" y1="0%" x2="100%" y2="100%"><stop offset="0%" stop-color="#0B37F7"/><stop offset="100%" stop-color="#3A67FF"/></linearGradient></defs>
<path d="M290.758 129.224C290.758 118.89 293.901 109.462 300.186 100.939C306.472 92.31 314.728 85.4918 324.955 80.4846C335.289 75.4775 346.209 72.974 357.715 72.974H490.191L509.686 89.7532L510.166 184.356H490.99V89.913H455.354C446.724 89.913 438.734 91.7241 431.383 95.3462C424.139 98.9684 418.386 103.816 414.125 109.888C409.97 115.854 407.893 122.246 407.893 129.064V184.516H388.716V129.224C388.716 121.447 390.581 114.203 394.309 107.491C398.038 100.78 403.205 94.9201 409.81 89.913H356.596C348.286 89.913 340.509 91.7241 333.265 95.3462C326.127 98.9684 320.428 103.816 316.166 109.888C312.011 115.854 309.934 122.246 309.934 129.064V184.516H290.758V129.224Z" fill="url(#brand-gradient)"/>
<path d="M619.201 184.356V133.699H541.058V184.516H521.721V129.224C521.721 118.89 524.864 109.462 531.15 100.939C537.435 92.31 545.692 85.4918 555.919 80.4846C566.253 75.4775 577.173 72.974 588.679 72.974H618.402L637.898 89.7532L638.377 184.356H619.201ZM619.201 117.559V89.913H587.72C581.008 89.913 574.616 91.1381 568.543 93.5884C562.471 95.9322 557.251 99.2348 552.883 103.496C548.515 107.651 545.319 112.339 543.295 117.559H619.201Z" fill="url(#brand-gradient)"/>
<path d="M649.844 129.064C649.844 119.37 652.72 110.208 658.473 101.579C664.333 92.8427 672.429 85.8647 682.763 80.6445C693.097 75.3177 704.709 72.6544 717.6 72.6544H782.16V89.5934H718.559C709.397 89.5934 701.46 91.0848 694.748 94.0678C688.037 97.0508 682.71 100.833 678.768 105.414C674.826 109.995 672.056 114.842 670.458 119.956H782.16V128.106C782.16 137.8 779.23 147.016 773.371 155.751C767.618 164.381 759.575 171.359 749.241 176.685C738.907 181.906 727.295 184.516 714.404 184.516H649.844V167.577H713.445C722.714 167.577 730.757 166.085 737.575 163.102C744.393 160.013 749.773 156.178 753.715 151.597C757.657 146.909 760.374 141.955 761.865 136.735H649.844V129.064Z" fill="url(#brand-gradient)"/>
<path d="M794.367 72.6544H813.384V184.516H794.367V72.6544Z" fill="url(#brand-gradient)"/>
<path d="M976.097 184.356V131.302H887.247V184.516H873.184V129.224C873.184 118.89 876.327 109.462 882.613 100.939C888.898 92.31 897.155 85.4918 907.382 80.4846C917.716 75.4775 928.636 72.974 940.141 72.974H969.865L989.36 89.7532L989.84 184.356H976.097ZM976.097 119.956V84.3199H933.909C926.878 84.3199 920.166 86.0244 913.774 89.4336C907.488 92.7361 902.109 97.1041 897.634 102.537C893.266 107.971 890.23 113.777 888.525 119.956H976.097Z" fill="url(#brand-gradient)"/>
<path d="M1069.06 183.717C1056.28 183.717 1044.67 181.053 1034.23 175.727C1023.89 170.293 1015.8 163.315 1009.94 154.793C1004.18 146.163 1001.31 137.268 1001.31 128.106C1001.31 118.944 1004.18 110.101 1009.94 101.579C1015.8 92.9492 1023.89 85.9712 1034.23 80.6445C1044.67 75.2112 1056.28 72.4945 1069.06 72.4945H1133.62V84.0003H1071.14C1059.74 84.0003 1049.78 86.1843 1041.26 90.5522C1032.73 94.9201 1026.18 100.513 1021.6 107.331C1017.13 114.15 1014.89 121.074 1014.89 128.106C1014.89 135.03 1017.13 141.902 1021.6 148.72C1026.18 155.538 1032.73 161.185 1041.26 165.659C1049.78 170.027 1059.74 172.211 1071.14 172.211H1133.62V183.717H1069.06Z" fill="url(#brand-gradient)"/>
<path d="M1196.97 84.0003H1145.19V72.6544H1262.33V84.0003H1210.55V184.516H1196.97V84.0003Z" fill="url(#brand-gradient)"/>
<path d="M1277.14 72.6544H1290.72V184.516H1277.14V72.6544Z" fill="url(#brand-gradient)"/>
<path d="M1305.62 167.417V128.905C1305.62 118.571 1308.76 109.142 1315.05 100.62C1321.33 91.9904 1329.59 85.1722 1339.81 80.165C1350.15 75.1579 1361.07 72.6544 1372.57 72.6544H1417.96L1437.77 89.4336V127.946C1437.77 138.28 1434.63 147.761 1428.35 156.391C1422.06 164.913 1413.75 171.678 1403.42 176.685C1393.19 181.693 1382.32 184.196 1370.82 184.196H1325.43L1305.62 167.417ZM1370.66 173.17C1380.24 173.17 1389.14 171.092 1397.34 166.938C1405.55 162.783 1412.05 157.243 1416.84 150.318C1421.74 143.393 1424.19 135.989 1424.19 128.106V83.6807H1372.73C1363.15 83.6807 1354.25 85.7581 1346.05 89.913C1337.84 94.0678 1331.29 99.6076 1326.39 106.532C1321.6 113.457 1319.2 120.861 1319.2 128.745V173.17H1370.66Z" fill="url(#brand-gradient)"/>
<path d="M1449.66 89.7532L1469.32 72.974H1499.04C1510.55 72.974 1521.42 75.4775 1531.64 80.4846C1541.98 85.4918 1550.29 92.31 1556.57 100.939C1562.86 109.462 1566 118.89 1566 129.224V184.516H1552.74V129.064C1552.74 121.714 1550.55 114.629 1546.19 107.811C1541.82 100.886 1535.11 95.2397 1526.05 90.8718C1516.99 86.5039 1505.81 84.3199 1492.49 84.3199H1462.93V184.516L1449.35 184.356V184.676L1449.66 89.7532Z" fill="url(#brand-gradient)"/>
<path fill-rule="evenodd" clip-rule="evenodd" d="M104.095 0.026556L103.651 74.8598L147.256 74.8912L147.293 94.7345L171.187 94.6911L98.3232 206.686H67.2689L67.306 174.03C67.333 150.102 47.8624 130.684 23.8224 130.666L23.7902 130.665L23.7538 110.698L0 110.741L72.4431 0L104.095 0.026556ZM23.8384 110.768C58.9218 110.795 87.3366 139.132 87.2971 174.052L87.2828 186.788H87.4523L147.306 94.7895L83.541 94.7432L83.9855 19.9077L83.2758 19.9071L23.8384 110.768Z" fill="url(#brand-gradient)"/>
</svg>
