<svg width="2207" height="190" viewBox="0 0 2207 190" fill="none" xmlns="http://www.w3.org/2000/svg">
<path d="M14.3094 79.4078L0 65.2667L45.915 19.8919C72.3496 -6.23173 115.367 -6.23173 141.813 19.8919L187.728 65.2667L173.418 79.4078L127.503 34.0329C108.948 15.6958 78.7354 15.6407 60.1242 34.0329L14.2091 79.4078H14.3094Z" fill="#0D0D0D"/>
<path d="M14.3094 158.519L0 144.377L45.915 99.0026C72.3496 72.879 115.367 72.879 141.813 99.0026L187.728 144.377L173.418 158.519L127.503 113.144C108.948 94.8065 78.7354 94.7514 60.1242 113.144L14.2091 158.519H14.3094Z" fill="#0D0D0D"/>
<path d="M14.3094 158.519L0 144.377L45.915 99.0026C72.3496 72.879 115.367 72.879 141.813 99.0026L187.728 144.377L173.418 158.519L127.503 113.144C108.948 94.8065 78.7354 94.7514 60.1242 113.144L14.2091 158.519H14.3094Z" fill="#0D0D0D"/>
<path d="M311.724 88.1696C311.724 77.8406 314.865 68.4167 321.148 59.8979C327.431 51.2726 335.683 44.4575 345.906 39.4527C356.235 34.4479 367.15 31.9455 378.65 31.9455H511.064L530.551 48.7169L531.03 143.276H511.863V48.8767H476.244C467.618 48.8767 459.632 50.6869 452.284 54.3074C445.043 57.9279 439.293 62.7729 435.034 68.8426C430.881 74.8058 428.804 81.1949 428.804 88.0099V143.435H409.637V88.1696C409.637 80.3962 411.501 73.1553 415.228 66.4467C418.955 59.7381 424.119 53.8815 430.721 48.8767H377.532C369.226 48.8767 361.453 50.6869 354.212 54.3074C347.077 57.9279 341.38 62.7729 337.121 68.8426C332.968 74.8058 330.891 81.1949 330.891 88.0099V143.435H311.724V88.1696Z" fill="#0D0D0D"/>
<path d="M640.014 143.276V92.642H561.907V143.435H542.58V88.1696C542.58 77.8406 545.722 68.4167 552.004 59.8979C558.287 51.2726 566.54 44.4575 576.762 39.4527C587.091 34.4479 598.006 31.9455 609.506 31.9455H639.216L658.702 48.7169L659.182 143.276H640.014ZM640.014 76.5095V48.8767H608.548C601.839 48.8767 595.45 50.1012 589.381 52.5504C583.311 54.8931 578.093 58.1941 573.727 62.4535C569.361 66.6064 566.167 71.2918 564.144 76.5095H640.014Z" fill="#0D0D0D"/>
<path d="M670.643 88.0099C670.643 78.3198 673.518 69.1621 679.269 60.5368C685.125 51.805 693.218 44.8302 703.547 39.6125C713.876 34.2882 725.483 31.6261 738.368 31.6261H802.898V48.5572H739.326C730.168 48.5572 722.235 50.048 715.527 53.0296C708.818 56.0112 703.494 59.7914 699.554 64.3702C695.614 68.9491 692.845 73.7942 691.248 78.9054H802.898V87.0515C802.898 96.7417 799.969 105.953 794.113 114.684C788.362 123.31 780.323 130.285 769.994 135.609C759.665 140.827 748.058 143.435 735.173 143.435H670.643V126.504H734.215C743.479 126.504 751.519 125.013 758.334 122.032C765.149 118.944 770.526 115.11 774.466 110.532C778.406 105.846 781.122 100.895 782.612 95.6768H670.643V88.0099Z" fill="#0D0D0D"/>
<path d="M815.099 31.6261H834.107V143.435H815.099V31.6261Z" fill="#0D0D0D"/>
<path d="M996.744 143.276V90.2461H907.936V143.435H893.88V88.1696C893.88 77.8406 897.021 68.4167 903.304 59.8979C909.586 51.2726 917.839 44.4575 928.062 39.4527C938.391 34.4479 949.305 31.9455 960.806 31.9455H990.515L1010 48.7169L1010.48 143.276H996.744ZM996.744 78.9054V43.2862H954.576C947.548 43.2862 940.84 44.9899 934.451 48.3975C928.168 51.6985 922.79 56.0644 918.318 61.4951C913.952 66.9259 910.917 72.7293 909.214 78.9054H996.744Z" fill="#0D0D0D"/>
<path d="M1089.67 142.637C1076.89 142.637 1065.28 139.975 1054.85 134.65C1044.52 129.22 1036.42 122.245 1030.57 113.726C1024.82 105.101 1021.94 96.2093 1021.94 87.0515C1021.94 77.8938 1024.82 69.0556 1030.57 60.5368C1036.42 51.9115 1044.52 44.9367 1054.85 39.6125C1065.28 34.1817 1076.89 31.4663 1089.67 31.4663H1154.2V42.9667H1091.74C1080.35 42.9667 1070.39 45.1497 1061.87 49.5156C1053.36 53.8814 1046.81 59.4719 1042.23 66.287C1037.76 73.102 1035.52 80.0235 1035.52 87.0515C1035.52 93.9731 1037.76 100.841 1042.23 107.656C1046.81 114.471 1053.36 120.115 1061.87 124.588C1070.39 128.953 1080.35 131.136 1091.74 131.136H1154.2V142.637H1089.67Z" fill="#0D0D0D"/>
<path d="M1233.64 143.276C1219.91 143.276 1207.87 140.507 1197.55 134.97C1187.22 129.433 1179.34 122.564 1173.91 114.365C1168.48 106.059 1165.76 98.0728 1165.76 90.4058V48.2378L1185.73 32.1053H1281.88V43.6056H1179.34V81.7805H1261.6V92.0031H1180.14C1180.14 97.1144 1182.42 102.811 1187 109.094C1191.58 115.377 1197.87 120.754 1205.85 125.226C1213.94 129.592 1222.94 131.775 1232.85 131.775H1281.88V143.276H1233.64Z" fill="#0D0D0D"/>
<path d="M1361.24 143.276C1348.46 143.276 1336.85 140.614 1326.41 135.289C1316.09 129.859 1307.99 122.884 1302.14 114.365C1296.39 105.74 1293.51 96.8482 1293.51 87.6905V31.7858H1307.25V52.3907L1307.09 93.1212C1307.09 97.3806 1309.11 102.652 1313.16 108.934C1317.31 115.11 1323.11 120.541 1330.57 125.226C1338.13 129.805 1346.86 132.095 1356.76 132.095H1410.75V143.276H1361.24Z" fill="#0D0D0D"/>
<path d="M1486.56 143.276C1472.83 143.276 1460.8 140.507 1450.47 134.97C1440.14 129.433 1432.26 122.564 1426.83 114.365C1421.4 106.059 1418.68 98.0728 1418.68 90.4058V48.2378L1438.65 32.1053H1534.8V43.6056H1432.26V81.7805H1514.52V92.0031H1433.06C1433.06 97.1144 1435.35 102.811 1439.92 109.094C1444.5 115.377 1450.79 120.754 1458.77 125.226C1466.87 129.592 1475.86 131.775 1485.77 131.775H1534.8V143.276H1486.56Z" fill="#0D0D0D"/>
<path d="M1546.43 31.6261H1643.23L1663.51 48.3975C1662.45 55.4255 1659.25 62.347 1653.93 69.1621C1648.71 75.8706 1641.79 81.5676 1633.16 86.2529C1624.64 90.9383 1615.27 93.8133 1605.05 94.8782L1663.35 143.276H1643.87L1579.65 89.7669V84.4959H1594.67C1606.7 84.4959 1616.87 82.2597 1625.18 77.7874C1633.59 73.315 1639.82 67.8842 1643.87 61.4951C1647.91 55.106 1649.94 48.9831 1649.94 43.1265H1560.01V143.435H1546.43V31.6261Z" fill="#0D0D0D"/>
<path d="M1777.83 143.276V90.2461H1689.02V143.435H1674.96V88.1696C1674.96 77.8406 1678.1 68.4167 1684.39 59.8979C1690.67 51.2726 1698.92 44.4575 1709.14 39.4527C1719.47 34.4479 1730.39 31.9455 1741.89 31.9455H1771.6L1791.08 48.7169L1791.56 143.276H1777.83ZM1777.83 78.9054V43.2862H1735.66C1728.63 43.2862 1721.92 44.9899 1715.53 48.3975C1709.25 51.6985 1703.87 56.0644 1699.4 61.4951C1695.03 66.9259 1692 72.7293 1690.3 78.9054H1777.83Z" fill="#0D0D0D"/>
<path d="M1870.75 142.637C1857.97 142.637 1846.36 139.975 1835.93 134.65C1825.6 129.22 1817.51 122.245 1811.65 113.726C1805.9 105.101 1803.03 96.2093 1803.03 87.0515C1803.03 77.8938 1805.9 69.0556 1811.65 60.5368C1817.51 51.9115 1825.6 44.9367 1835.93 39.6125C1846.36 34.1817 1857.97 31.4663 1870.75 31.4663H1935.28V42.9667H1872.83C1861.43 42.9667 1851.48 45.1497 1842.96 49.5156C1834.44 53.8814 1827.89 59.4719 1823.31 66.287C1818.84 73.102 1816.6 80.0235 1816.6 87.0515C1816.6 93.9731 1818.84 100.841 1823.31 107.656C1827.89 114.471 1834.44 120.115 1842.96 124.588C1851.48 128.953 1861.43 131.136 1872.83 131.136H1935.28V142.637H1870.75ZM1874.58 181.291L1891.51 167.075L1874.58 153.179L1884.17 145.033L1897.58 156.214V178.256L1884.17 189.437L1874.58 181.291Z" fill="#0D0D0D"/>
<path d="M2049.71 143.276V90.2461H1960.9V143.435H1946.84V88.1696C1946.84 77.8406 1949.98 68.4167 1956.27 59.8979C1962.55 51.2726 1970.8 44.4575 1981.02 39.4527C1991.35 34.4479 2002.27 31.9455 2013.77 31.9455H2043.48L2062.96 48.7169L2063.44 143.276H2049.71ZM2049.71 78.9054V43.2862H2007.54C2000.51 43.2862 1993.8 44.9899 1987.41 48.3975C1981.13 51.6985 1975.75 56.0644 1971.28 61.4951C1966.91 66.9259 1963.88 72.7293 1962.18 78.9054H2049.71ZM1974.16 10.8615L1987.41 0H2013.77L2030.38 13.7366L2043.8 2.71537L2053.38 10.8615L2040.12 22.0424H2021.44L2013.29 15.4936L2000.67 4.79184L1983.26 18.8479L1974.16 10.8615Z" fill="#0D0D0D"/>
<path d="M2074.91 126.345V87.8502C2074.91 77.5211 2078.05 68.0972 2084.33 59.5784C2090.61 50.9531 2098.86 44.1381 2109.09 39.1333C2119.42 34.1285 2130.33 31.6261 2141.83 31.6261H2187.19L2207 48.3975V86.8918C2207 97.2209 2203.86 106.698 2197.58 115.323C2191.29 123.842 2182.99 130.604 2172.66 135.609C2162.44 140.614 2151.57 143.116 2140.07 143.116H2094.71L2074.91 126.345ZM2139.91 132.095C2149.5 132.095 2158.39 130.018 2166.59 125.865C2174.79 121.712 2181.28 116.175 2186.08 109.254C2190.97 102.332 2193.42 94.9314 2193.42 87.0515V42.6473H2141.99C2132.41 42.6473 2123.52 44.7237 2115.32 48.8767C2107.12 53.0296 2100.57 58.5668 2095.67 65.4883C2090.88 72.4099 2088.48 79.8106 2088.48 87.6905V132.095H2139.91Z" fill="#0D0D0D"/>
</svg>
