<svg width="1812" height="203" viewBox="0 0 1812 203" fill="none" xmlns="http://www.w3.org/2000/svg">
<path d="M88.9915 0.0440949C124.591 1.33371 153.399 31.2925 153.612 67.8062H133.921C133.769 41.6246 112.752 20.2865 87.1337 20.132L81.8873 20.1304C56.2695 20.2848 35.2519 41.6227 35.0999 67.8043L34.8267 98.161H149.963V117.793H19.2672V182.58H149.963V117.793H169.23V202.212H0V98.161H15.467L15.4137 67.8522C15.6298 30.665 45.5008 0.227952 82.0043 0L88.9915 0.0440949Z" fill="#0D0D0D"/>
<path d="M290.731 133.839C290.731 123.506 293.873 114.078 300.158 105.556C306.443 96.9279 314.699 90.1103 324.925 85.1037C335.258 80.097 346.177 77.5937 357.681 77.5937H490.145L509.639 94.3713L510.118 188.965H490.944V94.5311H455.311C446.683 94.5311 438.693 96.342 431.343 99.9639C424.099 103.586 418.347 108.433 414.086 114.504C409.932 120.47 407.854 126.861 407.854 133.679V189.125H388.68V133.839C388.68 126.062 390.544 118.819 394.273 112.108C398.001 105.397 403.167 99.5378 409.772 94.5311H356.563C348.254 94.5311 340.478 96.342 333.234 99.9639C326.097 103.586 320.398 108.433 316.137 114.504C311.982 120.47 309.905 126.861 309.905 133.679V189.125H290.731V133.839Z" fill="#0D0D0D"/>
<path d="M619.143 188.965V138.313H541.007V189.125H521.673V133.839C521.673 123.506 524.815 114.078 531.1 105.556C537.385 96.9279 545.641 90.1103 555.867 85.1037C566.2 80.097 577.119 77.5937 588.623 77.5937H618.344L637.838 94.3713L638.317 188.965H619.143ZM619.143 122.174V94.5311H587.665C580.954 94.5311 574.562 95.7561 568.49 98.2062C562.418 100.55 557.199 103.852 552.831 108.113C548.464 112.267 545.268 116.955 543.244 122.174H619.143Z" fill="#0D0D0D"/>
<path d="M649.783 133.679C649.783 123.985 652.659 114.824 658.412 106.196C664.271 97.4605 672.366 90.4832 682.699 85.2634C693.032 79.9372 704.643 77.2741 717.533 77.2741H782.087V94.2115H718.492C709.331 94.2115 701.394 95.7029 694.683 98.6856C687.972 101.668 682.646 105.45 678.705 110.03C674.763 114.611 671.994 119.458 670.396 124.571H782.087V132.72C782.087 142.414 779.157 151.628 773.299 160.363C767.546 168.992 759.504 175.969 749.171 181.295C738.838 186.515 727.227 189.125 714.337 189.125H649.783V172.188H713.378C722.646 172.188 730.689 170.696 737.506 167.714C744.324 164.624 749.703 160.789 753.645 156.209C757.586 151.522 760.303 146.568 761.794 141.349H649.783V133.679Z" fill="#0D0D0D"/>
<path d="M794.293 77.2741H813.308V189.125H794.293V77.2741Z" fill="#0D0D0D"/>
<path d="M873.103 132.88C872.996 123.719 875.872 114.877 881.731 106.355C887.59 97.7268 895.686 90.7495 906.019 85.4232C916.458 79.9905 928.07 77.2741 940.852 77.2741H1005.41V88.619H945.327C932.863 88.619 922.317 90.856 913.689 95.33C905.167 99.8041 898.829 105.077 894.674 111.149C890.52 117.221 888.442 122.654 888.442 127.447L985.912 127.607V138.153H886.685V189.285H873.422L873.103 132.88Z" fill="#0D0D0D"/>
<path d="M1006.42 172.028V133.519C1006.42 123.186 1009.56 113.759 1015.85 105.237C1022.13 96.6083 1030.39 89.7908 1040.61 84.7841C1050.95 79.7774 1061.86 77.2741 1073.37 77.2741H1118.75L1138.56 94.0517V132.56C1138.56 142.893 1135.42 152.374 1129.14 161.003C1122.85 169.524 1114.54 176.289 1104.21 181.295C1093.98 186.302 1083.12 188.805 1071.61 188.805H1026.23L1006.42 172.028ZM1071.45 177.78C1081.04 177.78 1089.93 175.703 1098.14 171.548C1106.34 167.394 1112.84 161.855 1117.63 154.931C1122.53 148.007 1124.98 140.603 1124.98 132.72V88.2994H1073.53C1063.94 88.2994 1055.05 90.3766 1046.84 94.5311C1038.64 98.6856 1032.09 104.225 1027.19 111.149C1022.4 118.073 1020 125.477 1020 133.359V177.78H1071.45Z" fill="#0D0D0D"/>
<path d="M1216.92 189.125C1205.95 189.125 1195.3 186.728 1184.97 181.935C1174.63 177.034 1166.22 170.27 1159.72 161.642C1153.33 153.013 1150.13 143.373 1150.13 132.72V77.5937H1163.72V130.963C1163.72 140.443 1166.43 148.752 1171.86 155.889C1177.4 162.92 1184.27 168.353 1192.48 172.188C1200.79 175.916 1208.88 177.78 1216.76 177.78C1225.29 177.78 1233.6 175.916 1241.69 172.188C1249.89 168.459 1256.66 163.026 1261.98 155.889C1267.31 148.752 1269.97 140.443 1269.97 130.963V77.5937H1283.56V132.72C1283.56 143.373 1280.31 153.013 1273.81 161.642C1267.42 170.27 1259.05 177.034 1248.72 181.935C1238.5 186.728 1227.9 189.125 1216.92 189.125Z" fill="#0D0D0D"/>
<path d="M1295.42 94.3713L1315.07 77.5937H1344.79C1356.3 77.5937 1367.16 80.097 1377.39 85.1037C1387.72 90.1103 1396.03 96.9279 1402.31 105.556C1408.6 114.078 1411.74 123.506 1411.74 133.839V189.125H1398.48V133.679C1398.48 126.329 1396.29 119.245 1391.93 112.427C1387.56 105.503 1380.85 99.8573 1371.79 95.4898C1362.74 91.1223 1351.55 88.9386 1338.24 88.9386H1308.68V189.125L1295.1 188.965V189.285L1295.42 94.3713Z" fill="#0D0D0D"/>
<path d="M1423.21 77.1143H1487.76C1500.54 77.1143 1512.1 79.8307 1522.43 85.2634C1532.87 90.5897 1540.97 97.5671 1546.72 106.196C1552.58 114.718 1555.51 123.559 1555.51 132.72C1555.51 141.881 1552.58 150.776 1546.72 159.405C1540.97 167.927 1532.87 174.904 1522.43 180.337C1512.1 185.663 1500.54 188.326 1487.76 188.326H1423.21V77.1143ZM1485.68 176.981C1497.08 176.981 1507.04 174.744 1515.56 170.27C1524.09 165.796 1530.58 160.15 1535.06 153.333C1539.64 146.409 1541.93 139.538 1541.93 132.72C1541.93 126.009 1539.64 119.192 1535.06 112.267C1530.58 105.343 1524.09 99.6443 1515.56 95.1703C1507.04 90.5897 1497.08 88.2994 1485.68 88.2994H1434.55V176.981H1485.68Z" fill="#0D0D0D"/>
<path d="M1634.99 188.965C1621.25 188.965 1609.21 186.196 1598.88 180.656C1588.54 175.117 1580.66 168.246 1575.23 160.044C1569.79 151.735 1567.08 143.746 1567.08 136.076V93.892L1587.05 77.7535H1683.24V89.2581H1580.66V127.447H1662.95V137.674H1581.46C1581.46 142.787 1583.75 148.486 1588.33 154.771C1592.91 161.056 1599.2 166.435 1607.18 170.909C1615.28 175.277 1624.28 177.461 1634.19 177.461H1683.24V188.965H1634.99Z" fill="#0D0D0D"/>
<path d="M1694.88 77.2741H1791.71L1812 94.0517C1810.93 101.082 1807.74 108.006 1802.41 114.824C1797.19 121.535 1790.27 127.234 1781.64 131.921C1773.12 136.608 1763.74 139.485 1753.52 140.55L1811.84 188.965H1792.35L1728.11 135.437V130.164H1743.13C1755.17 130.164 1765.34 127.927 1773.65 123.453C1782.07 118.979 1788.3 113.546 1792.35 107.154C1796.39 100.763 1798.42 94.6376 1798.42 88.7788H1708.46V189.125H1694.88V77.2741Z" fill="#0D0D0D"/>
</svg>
