<svg width="1896" height="190" viewBox="0 0 1896 190" fill="none" xmlns="http://www.w3.org/2000/svg">
<path d="M0 88.2033C0 77.8704 3.1425 68.4428 9.42752 59.9208C15.7125 51.2922 23.9683 44.4745 34.1948 39.4678C44.5278 34.4611 55.4467 31.9577 66.9515 31.9577H199.416L218.911 48.7355L219.39 143.33H200.215V48.8953H164.582C155.954 48.8953 147.964 50.7063 140.614 54.3282C133.37 57.95 127.618 62.797 123.357 68.8689C119.202 74.8344 117.125 81.2259 117.125 88.0436V143.49H97.9504V88.2033C97.9504 80.427 99.8147 73.1832 103.543 66.4721C107.271 59.761 112.438 53.9021 119.043 48.8953H65.8329C57.5239 48.8953 49.7475 50.7063 42.5038 54.3282C35.3665 57.95 29.6674 62.797 25.4064 68.8689C21.2519 74.8344 19.1746 81.2259 19.1746 88.0436V143.49H0V88.2033Z" fill="#FFFFFF"/>
<path d="M328.416 143.33V92.6774H250.279V143.49H230.945V88.2033C230.945 77.8704 234.087 68.4428 240.372 59.9208C246.657 51.2922 254.913 44.4745 265.139 39.4678C275.472 34.4611 286.391 31.9577 297.896 31.9577H327.617L347.111 48.7355L347.59 143.33H328.416ZM328.416 76.5388V48.8953H296.937C290.226 48.8953 283.835 50.1204 277.763 52.5705C271.691 54.914 266.471 58.2163 262.103 62.4774C257.736 66.6319 254.54 71.319 252.516 76.5388H328.416Z" fill="#FFFFFF"/>
<path d="M359.056 88.0436C359.056 78.3497 361.933 69.1885 367.685 60.5599C373.544 51.8248 381.64 44.8474 391.973 39.6276C402.306 34.3013 413.917 31.6382 426.807 31.6382H491.361V48.5758H427.766C418.604 48.5758 410.668 50.0671 403.957 53.0498C397.246 56.0326 391.92 59.8142 387.978 64.3948C384.037 68.9755 381.267 73.8224 379.669 78.9356H491.361V87.0848C491.361 96.7787 488.432 105.993 482.573 114.728C476.821 123.357 468.778 130.334 458.445 135.661C448.112 140.88 436.501 143.49 423.611 143.49H359.056V126.553H422.652C431.92 126.553 439.963 125.061 446.78 122.079C453.598 118.989 458.978 115.154 462.919 110.574C466.86 105.887 469.577 100.933 471.068 95.7134H359.056V88.0436Z" fill="#FFFFFF"/>
<path d="M503.568 31.6382H522.583V143.49H503.568V31.6382Z" fill="#FFFFFF"/>
<path d="M685.282 143.33V90.2806H596.44V143.49H582.378V88.2033C582.378 77.8704 585.521 68.4428 591.806 59.9208C598.091 51.2922 606.347 44.4745 616.573 39.4678C626.906 34.4611 637.825 31.9577 649.33 31.9577H679.05L698.545 48.7355L699.024 143.33H685.282ZM685.282 78.9356V43.3027H643.098C636.067 43.3027 629.356 45.0071 622.965 48.416C616.68 51.7183 611.3 56.0858 606.826 61.5186C602.458 66.9515 599.422 72.7571 597.718 78.9356H685.282Z" fill="#FFFFFF"/>
<path d="M778.24 142.691C765.457 142.691 753.846 140.028 743.407 134.702C733.074 129.269 724.978 122.292 719.119 113.77C713.366 105.141 710.49 96.246 710.49 87.0848C710.49 77.9236 713.366 69.082 719.119 60.5599C724.978 51.9313 733.074 44.9539 743.407 39.6276C753.846 34.1948 765.457 31.4784 778.24 31.4784H842.795V42.9832H780.318C768.919 42.9832 758.959 45.1669 750.437 49.5345C741.915 53.902 735.364 59.4947 730.783 66.3123C726.309 73.13 724.072 80.0541 724.072 87.0848C724.072 94.009 726.309 100.88 730.783 107.698C735.364 114.515 741.915 120.161 750.437 124.635C758.959 129.003 768.919 131.187 780.318 131.187H842.795V142.691H778.24Z" fill="#FFFFFF"/>
<path d="M922.272 143.33C908.531 143.33 896.493 140.561 886.16 135.021C875.827 129.482 867.944 122.611 862.512 114.409C857.079 106.1 854.362 98.1102 854.362 90.4404V48.2562L874.336 32.1175H970.529V43.6223H867.944V81.8118H950.235V92.0383H868.743C868.743 97.1515 871.034 102.851 875.614 109.136C880.195 115.421 886.48 120.8 894.469 125.274C902.565 129.642 911.567 131.826 921.474 131.826H970.529V143.33H922.272Z" fill="#FFFFFF"/>
<path d="M1049.91 143.33C1037.13 143.33 1025.52 140.667 1015.08 135.341C1004.75 129.908 996.65 122.931 990.791 114.409C985.038 105.78 982.162 96.8852 982.162 87.724V31.7979H995.904V52.4107L995.744 93.1568C995.744 97.4178 997.768 102.691 1001.82 108.976C1005.97 115.154 1011.78 120.587 1019.23 125.274C1026.8 129.855 1035.53 132.145 1045.44 132.145H1099.45V143.33H1049.91Z" fill="#FFFFFF"/>
<path d="M1175.29 143.33C1161.55 143.33 1149.51 140.561 1139.18 135.021C1128.84 129.482 1120.96 122.611 1115.53 114.409C1110.1 106.1 1107.38 98.1102 1107.38 90.4404V48.2562L1127.35 32.1175H1223.55V43.6223H1120.96V81.8118H1203.25V92.0383H1121.76C1121.76 97.1515 1124.05 102.851 1128.63 109.136C1133.21 115.421 1139.5 120.8 1147.49 125.274C1155.58 129.642 1164.58 131.826 1174.49 131.826H1223.55V143.33H1175.29Z" fill="#FFFFFF"/>
<path d="M1235.18 31.6382H1332.01L1352.3 48.416C1351.24 55.4467 1348.04 62.3708 1342.72 69.1885C1337.5 75.8996 1330.57 81.5988 1321.94 86.2859C1313.42 90.973 1304.05 93.8492 1293.82 94.9145L1352.14 143.33H1332.65L1268.42 89.8012V84.5282H1283.44C1295.47 84.5282 1305.65 82.2912 1313.96 77.8171C1322.37 73.343 1328.6 67.9102 1332.65 61.5186C1336.7 55.1271 1338.72 49.0019 1338.72 43.143H1248.76V143.49H1235.18V31.6382Z" fill="#FFFFFF"/>
<path d="M1466.66 143.33V90.2806H1377.82V143.49H1363.76V88.2033C1363.76 77.8704 1366.9 68.4428 1373.19 59.9208C1379.47 51.2922 1387.73 44.4745 1397.95 39.4678C1408.29 34.4611 1419.21 31.9577 1430.71 31.9577H1460.43L1479.93 48.7355L1480.41 143.33H1466.66ZM1466.66 78.9356V43.3027H1424.48C1417.45 43.3027 1410.74 45.0071 1404.35 48.416C1398.06 51.7183 1392.68 56.0858 1388.21 61.5186C1383.84 66.9515 1380.8 72.7571 1379.1 78.9356H1466.66Z" fill="#FFFFFF"/>
<path d="M1559.62 142.691C1546.84 142.691 1535.23 140.028 1524.79 134.702C1514.45 129.269 1506.36 122.292 1500.5 113.77C1494.75 105.141 1491.87 96.246 1491.87 87.0848C1491.87 77.9236 1494.75 69.082 1500.5 60.5599C1506.36 51.9313 1514.45 44.9539 1524.79 39.6276C1535.23 34.1948 1546.84 31.4784 1559.62 31.4784H1624.18V42.9832H1561.7C1550.3 42.9832 1540.34 45.1669 1531.82 49.5345C1523.3 53.902 1516.74 59.4947 1512.16 66.3123C1507.69 73.13 1505.45 80.0541 1505.45 87.0848C1505.45 94.009 1507.69 100.88 1512.16 107.698C1516.74 114.515 1523.3 120.161 1531.82 124.635C1540.34 129.003 1550.3 131.187 1561.7 131.187H1624.18V142.691H1559.62ZM1563.46 181.36L1580.39 167.139L1563.46 153.237L1573.04 145.088L1586.47 156.273V178.324L1573.04 189.509L1563.46 181.36Z" fill="#FFFFFF"/>
<path d="M1738.65 143.33V90.2806H1649.8V143.49H1635.74V88.2033C1635.74 77.8704 1638.89 68.4428 1645.17 59.9208C1651.46 51.2922 1659.71 44.4745 1669.94 39.4678C1680.27 34.4611 1691.19 31.9577 1702.69 31.9577H1732.42L1751.91 48.7355L1752.39 143.33H1738.65ZM1738.65 78.9356V43.3027H1696.46C1689.43 43.3027 1682.72 45.0071 1676.33 48.416C1670.04 51.7183 1664.67 56.0858 1660.19 61.5186C1655.82 66.9515 1652.79 72.7571 1651.08 78.9356H1738.65ZM1663.07 10.8656L1676.33 0H1702.69L1719.31 13.7418L1732.74 2.71641L1742.32 10.8656L1729.06 22.0508H1710.36L1702.22 15.4995L1689.59 4.79367L1672.18 18.8551L1663.07 10.8656Z" fill="#FFFFFF"/>
<path d="M1763.86 126.393V87.8838C1763.86 77.5508 1767 68.1232 1773.28 59.6012C1779.57 50.9726 1787.82 44.1549 1798.05 39.1482C1808.38 34.1415 1819.3 31.6382 1830.81 31.6382H1876.19L1896 48.416V86.9251C1896 97.2581 1892.86 106.739 1886.57 115.367C1880.29 123.89 1871.98 130.654 1861.65 135.661C1851.42 140.667 1840.55 143.171 1829.05 143.171H1783.67L1763.86 126.393ZM1828.89 132.145C1838.48 132.145 1847.37 130.068 1855.57 125.913C1863.78 121.759 1870.27 116.22 1875.07 109.295C1879.97 102.371 1882.42 94.9677 1882.42 87.0848V42.6636H1830.97C1821.38 42.6636 1812.48 44.7408 1804.28 48.8953C1796.08 53.0498 1789.53 58.5892 1784.63 65.5134C1779.83 72.4375 1777.44 79.8411 1777.44 87.724V132.145H1828.89Z" fill="#FFFFFF"/>
</svg>
