<svg width="983" height="373" viewBox="0 0 983 373" fill="none" xmlns="http://www.w3.org/2000/svg">
<path d="M406.156 278.274L406.636 372.841H392.897V319.806H304.081V373H290.024V317.73C290.024 307.4 293.166 297.975 299.449 289.456C305.732 280.83 313.985 274.014 324.209 269.009C334.539 264.004 345.454 261.501 356.956 261.501H386.667L406.156 278.274ZM679.018 272.523H627.262V373H613.683V272.523H561.927V261.182H679.018V272.523ZM707.401 373H693.824V261.182H707.401V373ZM915.645 261.501C927.146 261.501 938.009 264.004 948.232 269.009C958.562 274.014 966.869 280.83 973.152 289.456C979.435 297.975 982.576 307.4 982.576 317.73V373H969.318V317.571C969.318 310.222 967.134 303.14 962.768 296.325C958.402 289.403 951.693 283.759 942.641 279.393C933.59 275.026 922.407 272.843 909.096 272.843H879.543V373L865.966 372.841L866.285 278.274L885.934 261.501H915.645ZM854.398 277.954V316.452C854.398 326.782 851.256 336.26 844.973 344.886C838.69 353.406 830.384 360.168 820.054 365.173C809.831 370.178 798.968 372.681 787.466 372.681H742.1L722.292 355.908V317.41C722.292 307.081 725.434 297.656 731.717 289.137C738 280.511 746.253 273.695 756.476 268.69C766.806 263.684 777.722 261.182 789.223 261.182H834.59L854.398 277.954ZM550.363 272.523H487.905C476.511 272.523 466.553 274.706 458.033 279.072C449.514 283.438 442.965 289.03 438.385 295.845C433.913 302.661 431.676 309.583 431.676 316.611C431.676 323.534 433.913 330.403 438.385 337.219C442.965 344.034 449.514 349.678 458.033 354.151C466.553 358.517 476.51 360.7 487.905 360.7H550.363V372.202H485.828C473.049 372.202 461.441 369.539 451.005 364.214C440.675 358.783 432.581 351.808 426.724 343.289C420.974 334.662 418.098 325.77 418.098 316.611C418.098 307.453 420.974 298.614 426.724 290.095C432.581 281.469 440.675 274.494 451.005 269.169C461.441 263.738 473.049 261.022 485.828 261.022H550.363V272.523ZM789.384 272.203C779.799 272.203 770.907 274.28 762.706 278.433C754.506 282.587 747.957 288.125 743.058 295.047C738.266 301.969 735.87 309.371 735.87 317.251V361.658H787.307C796.891 361.658 805.783 359.582 813.983 355.429C822.183 351.276 828.68 345.738 833.472 338.815C838.371 331.893 840.82 324.492 840.82 316.611V272.203H789.384ZM350.726 272.843C343.697 272.843 336.988 274.546 330.598 277.954C324.315 281.255 318.938 285.623 314.465 291.054C310.099 296.485 307.063 302.289 305.36 308.465H392.897V272.843H350.726ZM104.056 0.0263694L103.611 74.8315L147.2 74.8627L147.236 94.6984L171.122 94.6554L98.2856 206.607H67.2429L67.2801 173.963C67.3068 150.044 47.8441 130.634 23.8135 130.615H23.7813L23.7452 110.656L0 110.699L72.4152 0L104.056 0.0263694ZM23.8291 110.725C58.8992 110.753 87.3036 139.08 87.2641 173.986L87.2495 186.717H87.4194L147.25 94.7531L83.5089 94.7072L83.9533 19.9001L83.2443 19.8991L23.8291 110.725ZM509.492 89.7185L509.971 184.286H490.802V89.8786H455.18C446.554 89.8787 438.567 91.689 431.219 95.3097C423.977 98.9305 418.227 103.776 413.967 109.846C409.814 115.81 407.737 122.2 407.737 129.016V184.445H388.568V129.175C388.568 121.401 390.432 114.159 394.159 107.45C397.886 100.741 403.051 94.8838 409.653 89.8786H356.461C348.154 89.8786 340.38 91.6891 333.138 95.3097C326.003 98.9305 320.306 103.776 316.046 109.846C311.893 115.81 309.816 122.2 309.816 129.016V184.445H290.646V129.175C290.646 118.845 293.789 109.421 300.072 100.901C306.355 92.275 314.609 85.4592 324.832 80.454C335.162 75.4489 346.078 72.9465 357.579 72.9465H490.004L509.492 89.7185ZM637.654 89.7185L638.134 184.286H618.965V133.648H540.851V184.445H521.522V129.175C521.522 118.845 524.664 109.42 530.947 100.901C537.23 92.2751 545.483 85.4592 555.707 80.454C566.036 75.4488 576.952 72.9466 588.454 72.9465H618.166L637.654 89.7185ZM781.861 89.5593H718.285C709.126 89.5593 701.192 91.0505 694.483 94.0323C687.774 97.0141 682.449 100.794 678.509 105.373C674.569 109.952 671.8 114.799 670.203 119.91H781.861V128.057C781.861 137.748 778.933 146.959 773.076 155.692C767.325 164.318 759.285 171.294 748.955 176.618C738.625 181.837 727.017 184.445 714.131 184.445H649.596V167.513H713.173C722.438 167.513 730.479 166.022 737.294 163.04C744.11 159.952 749.487 156.118 753.427 151.539C757.368 146.853 760.084 141.901 761.575 136.682H649.596V129.016C649.596 119.325 652.471 110.166 658.222 101.54C664.079 92.8074 672.173 85.8324 682.502 80.6142C692.832 75.2895 704.441 72.6262 717.327 72.6262H781.861V89.5593ZM813.074 184.445H794.065V72.6262H813.074V184.445ZM587.496 89.8786C580.787 89.8786 574.397 91.1035 568.327 93.5528C562.257 95.8956 557.039 99.1972 552.672 103.457C548.306 107.61 545.111 112.296 543.087 117.514H618.965V89.8786H587.496Z" fill="#FFFFFF"/>
</svg>
