<svg width="1436" height="112" viewBox="0 0 1436 112" fill="none" xmlns="http://www.w3.org/2000/svg">
<path d="M0 56.719C0 46.3871 3.14217 36.9605 9.42652 28.4394C15.7109 19.8117 23.9658 12.9948 34.1911 7.98858C44.5231 2.9824 55.4408 0.479314 66.9444 0.479314H199.395L218.887 17.2553L219.367 111.84H200.194V17.4151H164.565C155.937 17.4151 147.949 19.2259 140.599 22.8474C133.356 26.4688 127.604 31.3153 123.344 37.3866C119.19 43.3514 117.113 49.7423 117.113 56.5592V112H97.9401V56.719C97.9401 48.9434 99.8041 41.7004 103.532 34.99C107.26 28.2796 112.426 22.4213 119.03 17.4151H65.826C57.5178 17.4151 49.7422 19.2259 42.4993 22.8474C35.3628 26.4688 29.6643 31.3153 25.4037 37.3866C21.2496 43.3514 19.1726 49.7423 19.1726 56.5592V112H0V56.719Z" fill="#FFFFFF"/>
<path d="M328.381 111.84V61.1926H250.252V112H230.92V56.719C230.92 46.3871 234.062 36.9605 240.347 28.4394C246.631 19.8117 254.886 12.9948 265.111 7.98858C275.443 2.9824 286.361 0.479314 297.864 0.479314H327.582L347.074 17.2553L347.553 111.84H328.381ZM328.381 45.0556V17.4151H296.906C290.195 17.4151 283.805 18.64 277.733 21.0899C271.662 23.4332 266.443 26.7351 262.076 30.9957C257.709 35.1498 254.513 39.8364 252.489 45.0556H328.381Z" fill="#FFFFFF"/>
<path d="M359.018 56.5592C359.018 46.8664 361.894 37.7061 367.646 29.0785C373.504 20.3443 381.599 13.3676 391.931 8.14835C402.263 2.82263 413.873 0.159769 426.762 0.159769H491.309V17.0956H427.72C418.56 17.0956 410.625 18.5868 403.914 21.5692C397.204 24.5516 391.878 28.3329 387.937 32.913C383.996 37.4931 381.227 42.3395 379.629 47.4522H491.309V55.6006C491.309 65.2934 488.38 74.5069 482.522 83.2411C476.77 91.8688 468.728 98.8455 458.396 104.171C448.064 109.39 436.454 112 423.566 112H359.018V95.0642H422.607C431.874 95.0642 439.916 93.573 446.733 90.5906C453.55 87.5017 458.929 83.6671 462.87 79.087C466.811 74.4004 469.527 69.4475 471.018 64.2282H359.018V56.5592Z" fill="#FFFFFF"/>
<path d="M503.514 0.159769H522.527V112H503.514V0.159769Z" fill="#FFFFFF"/>
<path d="M685.21 111.84V58.796H596.376V112H582.317V56.719C582.317 46.3871 585.459 36.9605 591.743 28.4394C598.027 19.8117 606.282 12.9948 616.508 7.98858C626.84 2.9824 637.757 0.479314 649.261 0.479314H678.978L698.471 17.2553L698.95 111.84H685.21ZM685.21 47.4522V11.8231H643.03C636 11.8231 629.289 13.5273 622.899 16.9358C616.614 20.2378 611.235 24.6049 606.762 30.0371C602.395 35.4693 599.359 41.2744 597.655 47.4522H685.21Z" fill="#FFFFFF"/>
<path d="M710.415 0H774.963C787.744 0 799.301 2.71611 809.633 8.14835C820.072 13.4741 828.167 20.4508 833.918 29.0785C839.777 37.5996 842.706 46.4403 842.706 55.6006C842.706 64.7608 839.777 73.6548 833.918 82.2825C828.167 90.8036 820.072 97.7803 809.633 103.213C799.301 108.538 787.744 111.201 774.963 111.201H710.415V0ZM772.886 99.8573C784.283 99.8573 794.242 97.6205 802.763 93.1469C811.284 88.6733 817.782 83.0281 822.255 76.2111C826.835 69.2877 829.125 62.4175 829.125 55.6006C829.125 48.8902 826.835 42.0732 822.255 35.1498C817.782 28.2264 811.284 22.5278 802.763 18.0542C794.242 13.4741 784.283 11.184 772.886 11.184H721.759V99.8573H772.886Z" fill="#FFFFFF"/>
<path d="M854.272 37.2268V0.319539H868.332V36.7475L920.577 108.165L973.142 36.2682V0.479314H987.362V36.9073L935.116 112H906.198L854.272 37.2268Z" fill="#FFFFFF"/>
<path d="M1002.26 0.159769H1015.84V112H1002.26V0.159769Z" fill="#FFFFFF"/>
<path d="M1030.74 56.5592C1030.74 46.8664 1033.61 37.7061 1039.37 29.0785C1045.22 20.3443 1053.32 13.3676 1063.65 8.14835C1073.98 2.82263 1085.59 0.159769 1098.48 0.159769H1163.03V11.5036H1094.49C1084.69 11.5036 1076.27 13.5273 1069.24 17.5749C1062.32 21.5159 1056.89 26.4689 1052.95 32.4337C1049.11 38.3985 1046.61 44.3633 1045.44 50.3281H1163.03V55.6006C1163.03 65.2934 1160.1 74.5069 1154.24 83.2411C1148.49 91.8688 1140.45 98.8455 1130.12 104.171C1119.78 109.39 1108.17 112 1095.29 112H1030.74V100.656H1099.76C1109.56 100.656 1117.97 98.6324 1125 94.5849C1132.03 90.5373 1137.47 85.5311 1141.3 79.5663C1145.13 73.6015 1147.64 67.6367 1148.81 61.6719H1030.74V56.5592Z" fill="#FFFFFF"/>
<path d="M1174.6 94.9044V56.3994C1174.6 46.0675 1177.74 36.641 1184.02 28.1198C1190.31 19.4922 1198.56 12.6752 1208.79 7.66904C1219.12 2.66286 1230.04 0.159769 1241.54 0.159769H1286.92L1306.73 16.9358V55.4408C1306.73 65.7727 1303.58 75.2525 1297.3 83.8802C1291.02 92.4013 1282.71 99.165 1272.38 104.171C1262.15 109.177 1251.29 111.68 1239.78 111.68H1194.41L1174.6 94.9044ZM1239.62 100.656C1249.21 100.656 1258.1 98.5792 1266.3 94.4251C1274.51 90.2711 1281 84.7323 1285.8 77.8088C1290.7 70.8854 1293.15 63.4826 1293.15 55.6006V11.184H1241.7C1232.11 11.184 1223.22 13.2611 1215.02 17.4151C1206.82 21.5692 1200.27 27.1079 1195.37 34.0314C1190.57 40.9548 1188.18 48.3576 1188.18 56.2397V100.656H1239.62Z" fill="#FFFFFF"/>
<path d="M1318.3 0.159769H1415.12L1435.41 16.9358C1434.34 23.9658 1431.15 30.8892 1425.82 37.7061C1420.6 44.4165 1413.68 50.1151 1405.05 54.8017C1396.53 59.4883 1387.16 62.3642 1376.93 63.4294L1435.25 111.84H1415.76L1351.53 58.3167V53.0442H1366.55C1378.58 53.0442 1388.76 50.8074 1397.06 46.3338C1405.48 41.8602 1411.71 36.428 1415.76 30.0371C1419.8 23.6462 1421.83 17.5216 1421.83 11.6633H1331.88V112H1318.3V0.159769Z" fill="#FFFFFF"/>
</svg>
