<svg width="1275" height="113" viewBox="0 0 1275 113" fill="none" xmlns="http://www.w3.org/2000/svg">
<path d="M0 56.7189C0 46.387 3.14216 36.9605 9.4265 28.4393C15.7108 19.8117 23.9657 12.9947 34.1911 7.98857C44.523 2.9824 55.4407 0.479326 66.9442 0.479326H199.395L218.887 17.2553L219.366 111.84H200.194V17.4151H164.565C155.937 17.4151 147.948 19.2258 140.599 22.8473C133.356 26.4688 127.604 31.3152 123.344 37.3865C119.189 43.3513 117.112 49.7422 117.112 56.5591V112H97.9399V56.7189C97.9399 48.9433 99.8039 41.7003 103.532 34.9899C107.26 28.2795 112.426 22.4213 119.03 17.4151H65.8258C57.5177 17.4151 49.7421 19.2258 42.4992 22.8473C35.3627 26.4688 29.6642 31.3152 25.4036 37.3865C21.2496 43.3513 19.1726 49.7422 19.1726 56.5591V112H0V56.7189Z" fill="#0D0D0D"/>
<path d="M328.38 111.84V61.1925H250.252V112H230.92V56.7189C230.92 46.387 234.062 36.9605 240.346 28.4393C246.631 19.8117 254.885 12.9947 265.111 7.98857C275.443 2.9824 286.36 0.479326 297.864 0.479326H327.581L347.073 17.2553L347.553 111.84H328.38ZM328.38 45.0556V17.4151H296.905C290.195 17.4151 283.804 18.64 277.733 21.0898C271.661 23.4332 266.442 26.7351 262.075 30.9957C257.708 35.1497 254.513 39.8364 252.489 45.0556H328.38Z" fill="#0D0D0D"/>
<path d="M359.018 56.5591C359.018 46.8663 361.893 37.7061 367.645 29.0784C373.504 20.3442 381.599 13.3676 391.93 8.14835C402.262 2.82264 413.872 0.159773 426.761 0.159773H491.308V17.0956H427.719C418.559 17.0956 410.624 18.5867 403.913 21.5691C397.203 24.5515 391.877 28.3328 387.936 32.9129C383.995 37.493 381.226 42.3394 379.628 47.4521H491.308V55.6005C491.308 65.2933 488.379 74.5068 482.521 83.2409C476.769 91.8686 468.727 98.8453 458.395 104.171C448.063 109.39 436.453 112 423.565 112H359.018V95.064H422.607C431.873 95.064 439.915 93.5728 446.732 90.5904C453.549 87.5015 458.928 83.667 462.869 79.0869C466.81 74.4002 469.526 69.4473 471.017 64.2281H359.018V56.5591Z" fill="#0D0D0D"/>
<path d="M503.513 0.159773H522.526V112H503.513V0.159773Z" fill="#0D0D0D"/>
<path d="M685.208 111.84V58.7959H596.375V112H582.315V56.7189C582.315 46.387 585.457 36.9605 591.742 28.4393C598.026 19.8117 606.281 12.9947 616.506 7.98857C626.838 2.9824 637.756 0.479326 649.26 0.479326H678.977L698.469 17.2553L698.948 111.84H685.208ZM685.208 47.4521V11.8231H643.028C635.998 11.8231 629.288 13.5273 622.897 16.9358C616.613 20.2377 611.234 24.6048 606.76 30.037C602.393 35.4693 599.358 41.2743 597.653 47.4521H685.208Z" fill="#0D0D0D"/>
<path d="M778.156 111.201C765.375 111.201 753.765 108.538 743.326 103.212C732.994 97.7801 724.899 90.8034 719.041 82.2823C713.289 73.6546 710.413 64.7607 710.413 55.6005C710.413 46.4402 713.289 37.5996 719.041 29.0784C724.899 20.4508 732.994 13.4741 743.326 8.14835C753.765 2.71612 765.375 0 778.156 0H842.704V11.5036H780.233C768.836 11.5036 758.877 13.6871 750.356 18.0542C741.835 22.4213 735.284 28.0133 730.704 34.8302C726.231 41.6471 723.994 48.5705 723.994 55.6005C723.994 62.5239 726.231 69.3941 730.704 76.211C735.284 83.0279 741.835 88.6731 750.356 93.1467C758.877 97.5138 768.836 99.6974 780.233 99.6974H842.704V111.201H778.156Z" fill="#0D0D0D"/>
<path d="M906.036 11.5036H854.27V0.159773H971.383V11.5036H919.616V112H906.036V11.5036Z" fill="#0D0D0D"/>
<path d="M986.191 0.159773H999.772V112H986.191V0.159773Z" fill="#0D0D0D"/>
<path d="M1014.67 94.9042V56.3993C1014.67 46.0674 1017.81 36.6409 1024.09 28.1198C1030.38 19.4921 1038.63 12.6752 1048.86 7.66903C1059.19 2.66286 1070.11 0.159773 1081.61 0.159773H1126.98L1146.8 16.9358V55.4407C1146.8 65.7726 1143.65 75.2523 1137.37 83.88C1131.09 92.4011 1122.78 99.1648 1112.45 104.171C1102.22 109.177 1091.36 111.68 1079.85 111.68H1034.48L1014.67 94.9042ZM1079.69 100.656C1089.28 100.656 1098.17 98.579 1106.37 94.4249C1114.58 90.2709 1121.07 84.7321 1125.87 77.8087C1130.77 70.8853 1133.22 63.4825 1133.22 55.6005V11.184H1081.77C1072.18 11.184 1063.29 13.261 1055.09 17.4151C1046.89 21.5692 1040.34 27.1079 1035.44 34.0313C1030.64 40.9548 1028.25 48.3575 1028.25 56.2395V100.656H1079.69Z" fill="#0D0D0D"/>
<path d="M1158.69 17.2553L1178.34 0.479326H1208.06C1219.56 0.479326 1230.42 2.9824 1240.65 7.98857C1250.98 12.9947 1259.29 19.8117 1265.57 28.4393C1271.86 36.9605 1275 46.387 1275 56.7189V112H1261.74V56.5591C1261.74 49.2096 1259.55 42.1264 1255.19 35.3095C1250.82 28.3861 1244.11 22.7408 1235.06 18.3737C1226 14.0066 1214.82 11.8231 1201.5 11.8231H1171.95V112L1158.37 111.84V112.16L1158.69 17.2553Z" fill="#0D0D0D"/>
</svg>
