<svg width="191" height="165" viewBox="0 0 191 165" fill="none" xmlns="http://www.w3.org/2000/svg">
<path d="M177.662 12.633C166.998 17.7708 138.074 27.8898 99.8321 11.0737C40.6458 -14.9611 5.0056 12.9154 3.51324 14.1188L0 16.9442V140.359L0.0310894 154.632L13.027 149.013C13.2135 148.929 22.7376 144.911 36.7699 143.048C36.8735 143.048 36.9669 143.027 37.0704 143.017C52.2946 141.029 72.7625 141.604 92.4222 152.392C108.755 161.361 125.503 164.312 140.478 164.312C159.858 164.312 176.274 159.361 184.917 156.128L191 153.848V6.21832L177.662 12.633ZM172.346 140.537C156.79 145.33 128.073 150.53 101.335 135.849C83.7583 126.201 65.9951 123.177 50.5948 123.177C45.838 123.177 41.2988 123.469 37.0704 123.941V20.1148C50.1597 17.6453 68.8451 17.9906 92.3807 28.3396C126.57 43.3767 154.925 40.0073 172.346 34.7647V140.537Z" fill="#FFFFFF"/>
</svg>
