<svg width="188" height="159" viewBox="0 0 188 159" fill="none" xmlns="http://www.w3.org/2000/svg">
<path d="M14.3301 79.223L0 65.0615L45.9814 19.621C72.4542 -6.54034 115.534 -6.54034 142.018 19.621L187.999 65.0615L173.669 79.223L127.688 33.7826C109.105 15.4189 78.8492 15.3637 60.2111 33.7826L14.2297 79.223H14.3301Z" fill="#002BF5"/>
<path d="M14.3301 158.448L0 144.287L45.9814 98.8461C72.4542 72.6848 115.534 72.6848 142.018 98.8461L187.999 144.287L173.669 158.448L127.688 113.008C109.105 94.644 78.8492 94.5889 60.2111 113.008L14.2297 158.448H14.3301Z" fill="#002BF5"/>
<path d="M14.3301 158.448L0 144.287L45.9814 98.8461C72.4542 72.6848 115.534 72.6848 142.018 98.8461L187.999 144.287L173.669 158.448L127.688 113.008C109.105 94.644 78.8492 94.5889 60.2111 113.008L14.2297 158.448H14.3301Z" fill="#002BF5"/>
</svg>
