<svg width="1247" height="380" viewBox="0 0 1247 380" fill="none" xmlns="http://www.w3.org/2000/svg">
<path d="M440.415 278.6H380.336C367.873 278.6 357.327 280.838 348.699 285.312C340.177 289.786 333.84 295.059 329.685 301.131C325.531 307.203 323.453 312.635 323.453 317.429L420.922 317.588V328.134H321.696V379.266H308.433L308.114 322.861C308.007 313.701 310.883 304.859 316.742 296.337C322.601 287.709 330.696 280.731 341.029 275.405C351.468 269.972 363.08 267.256 375.863 267.256H440.415V278.6Z" fill="#0D0D0D"/>
<path d="M598.723 320.944C598.723 330.424 601.439 338.734 606.872 345.871C612.411 352.901 619.283 358.334 627.485 362.169C635.794 365.897 643.889 367.76 651.772 367.76C660.294 367.76 668.602 365.897 676.698 362.169C684.9 358.44 691.665 353.008 696.991 345.871C702.317 338.734 704.981 330.424 704.981 320.944V267.576H718.562V322.701C718.562 333.354 715.313 342.994 708.815 351.623C702.424 360.251 694.061 367.015 683.729 371.915C673.502 376.709 662.903 379.105 651.931 379.105C640.959 379.105 630.307 376.709 619.974 371.915C609.642 367.015 601.226 360.251 594.728 351.623C588.337 342.994 585.141 333.354 585.141 322.701V267.576H598.723V320.944Z" fill="#0D0D0D"/>
<path d="M779.796 267.576C791.3 267.576 802.166 270.079 812.392 275.085C822.725 280.092 831.033 286.91 837.318 295.538C843.603 304.06 846.745 313.487 846.745 323.82V379.105H833.484V323.661C833.484 316.31 831.3 309.226 826.933 302.409C822.565 295.485 815.854 289.839 806.799 285.472C797.745 281.105 786.56 278.921 773.244 278.921H743.684V379.105L730.104 378.946L730.422 284.353L750.076 267.576H779.796Z" fill="#0D0D0D"/>
<path d="M1247 284.033C1245.93 291.063 1242.74 297.988 1237.41 304.805C1232.19 311.516 1225.27 317.215 1216.64 321.902C1208.12 326.589 1198.75 329.466 1188.52 330.531L1246.84 378.946H1227.35L1163.11 325.418V320.145H1178.13C1190.17 320.145 1200.34 317.908 1208.65 313.434C1217.07 308.96 1223.3 303.528 1227.35 297.136C1231.39 290.745 1233.42 284.619 1233.42 278.761H1143.46V379.105H1129.88V267.256H1226.71L1247 284.033Z" fill="#0D0D0D"/>
<path d="M1118.24 279.24H1015.66V317.429H1097.95V327.655H1016.46C1016.46 332.768 1018.75 338.467 1023.33 344.752C1027.91 351.037 1034.2 356.416 1042.19 360.89C1050.28 365.257 1059.28 367.441 1069.19 367.441H1118.24V378.946H1069.99C1056.25 378.946 1044.21 376.176 1033.88 370.637C1023.55 365.098 1015.66 358.227 1010.23 350.025C1004.8 341.716 1002.08 333.727 1002.08 326.057V283.874L1022.05 267.735H1118.24V279.24Z" fill="#0D0D0D"/>
<path fill-rule="evenodd" clip-rule="evenodd" d="M573.571 284.033V322.542C573.571 332.875 570.428 342.356 564.144 350.984C557.859 359.506 549.549 366.27 539.217 371.276C528.991 376.283 518.125 378.786 506.621 378.786H461.241L441.429 362.008V323.5C441.429 313.168 444.571 303.74 450.856 295.219C457.141 286.59 465.396 279.773 475.623 274.766C485.955 269.759 496.874 267.256 508.378 267.256H553.757L573.571 284.033ZM508.538 278.281C498.951 278.281 490.056 280.358 481.854 284.513C473.652 288.667 467.101 294.207 462.201 301.131C457.407 308.055 455.01 315.458 455.01 323.341V367.76H506.461C516.048 367.76 524.943 365.684 533.145 361.53C541.347 357.375 547.845 351.835 552.639 344.911C557.539 337.987 559.989 330.584 559.989 322.701V278.281H508.538Z" fill="#0D0D0D"/>
<path fill-rule="evenodd" clip-rule="evenodd" d="M922.765 267.096C935.548 267.096 947.106 269.813 957.439 275.246C967.878 280.572 975.974 287.549 981.726 296.177C987.584 304.699 990.514 313.54 990.514 322.701C990.514 331.862 987.585 340.757 981.726 349.386C975.974 357.907 967.878 364.884 957.439 370.317C947.106 375.643 935.548 378.307 922.765 378.307H858.212V267.096H922.765ZM869.556 366.962H920.688C932.086 366.962 942.046 364.725 950.568 360.251C959.09 355.777 965.587 350.131 970.061 343.314C974.642 336.39 976.932 329.519 976.932 322.701C976.932 315.99 974.642 309.172 970.061 302.249C965.587 295.325 959.09 289.625 950.568 285.152C942.046 280.571 932.086 278.281 920.688 278.281H869.556V366.962Z" fill="#0D0D0D"/>
<path d="M88.9901 0.0439611C124.589 1.33356 153.398 31.2924 153.611 67.8057H133.919C133.767 41.6245 112.75 20.2859 87.133 20.1313L81.8859 20.1303C56.2686 20.285 35.2516 41.6226 35.0996 67.8037L34.826 98.1604H149.961V117.791H19.2667V182.577H149.961V117.791H169.228V202.21H0V98.1604H15.4665L15.4138 67.8516C15.6298 30.6649 45.5002 0.228046 82.0032 0L88.9901 0.0439611Z" fill="#0D0D0D"/>
<path d="M509.633 94.3699L510.112 188.963H490.938V94.5301H455.306C446.677 94.5302 438.688 96.341 431.338 99.9628C424.095 103.585 418.343 108.431 414.082 114.503C409.927 120.468 407.85 126.86 407.85 133.677V189.123H388.675V133.837C388.675 126.061 390.54 118.818 394.268 112.107C397.996 105.396 403.162 99.5367 409.767 94.5301H356.559C348.25 94.5301 340.474 96.3411 333.23 99.9628C326.093 103.585 320.394 108.431 316.133 114.503C311.979 120.468 309.902 126.86 309.902 133.677V189.123H290.727V133.837C290.727 123.505 293.87 114.077 300.155 105.556C306.44 96.9273 314.695 90.1095 324.921 85.1029C335.254 80.0963 346.173 77.5924 357.678 77.5924H490.139L509.633 94.3699Z" fill="#0D0D0D"/>
<path fill-rule="evenodd" clip-rule="evenodd" d="M637.83 94.3699L638.31 188.963H619.136V138.312H541.001V189.123H521.666V133.837C521.666 123.505 524.809 114.077 531.094 105.556C537.378 96.9273 545.634 90.1095 555.86 85.1029C566.193 80.0964 577.112 77.5925 588.616 77.5924H618.337L637.83 94.3699ZM587.658 94.5301C580.947 94.5301 574.556 95.7553 568.484 98.2053C562.412 100.549 557.193 103.851 552.825 108.112C548.458 112.267 545.262 116.953 543.238 122.173H619.136V94.5301H587.658Z" fill="#0D0D0D"/>
<path d="M782.078 94.2107H718.483C709.322 94.2107 701.386 95.7013 694.675 98.684C687.964 101.667 682.638 105.448 678.697 110.029C674.755 114.609 671.986 119.456 670.388 124.569H782.078V132.719C782.078 142.412 779.148 151.627 773.289 160.361C767.537 168.99 759.495 175.968 749.162 181.294C738.83 186.513 727.218 189.123 714.329 189.123H649.776V172.186H713.37C722.638 172.186 730.681 170.694 737.498 167.712C744.315 164.623 749.694 160.787 753.636 156.207C757.577 151.52 760.294 146.566 761.785 141.347H649.776V133.677C649.776 123.984 652.652 114.823 658.404 106.195C664.263 97.4596 672.358 90.4818 682.691 85.2622C693.024 79.936 704.636 77.273 717.525 77.273H782.078V94.2107Z" fill="#0D0D0D"/>
<path d="M813.299 189.123H794.284V77.273H813.299V189.123Z" fill="#0D0D0D"/>
</svg>
