<svg width="2099" height="185" viewBox="0 0 2099 185" fill="none" xmlns="http://www.w3.org/2000/svg">
<path d="M142.492 61.0683L184.07 19.2724L170.738 6.32916L164.491 0.0446846L122.558 42.226C105.55 59.3421 77.9313 59.2974 60.968 42.226L18.99 0L13.1875 5.83758L0.0444306 18.8366L41.9724 61.018C58.9857 78.1285 58.9413 105.914 41.9724 122.986L0 165.212L5.99685 171.245L5.95799 171.284L18.99 184.395L60.9236 142.213C77.9313 125.103 105.55 125.147 122.514 142.213L164.913 184.903L171.377 178.322L184.409 165.212L142.481 123.025C125.473 105.914 125.518 78.1285 142.481 61.0627M68.7584 115.26C74.6053 100.535 74.6553 84.0163 68.9194 69.2632C83.9393 75.2181 100.814 75.0561 115.728 68.7772C109.754 83.8152 109.82 100.741 115.934 115.746C100.908 109.372 83.8838 109.204 68.7584 115.266" fill="#0D0D0D"/>
<path d="M307.854 94.7936C307.854 84.4764 310.991 75.0633 317.267 66.5543C323.542 57.9389 331.785 51.1316 341.996 46.1326C352.313 41.1335 363.216 38.634 374.703 38.634H506.965L526.429 55.3861L526.908 149.836H507.763V55.5457H472.184C463.569 55.5457 455.592 57.3539 448.253 60.9702C441.02 64.5865 435.276 69.4261 431.022 75.4888C426.874 81.4451 424.8 87.8268 424.8 94.6341V149.996H405.654V94.7936C405.654 87.0291 407.516 79.7964 411.238 73.0956C414.961 66.3947 420.12 60.5448 426.714 55.5457H373.586C365.29 55.5457 357.525 57.3539 350.292 60.9702C343.166 64.5865 337.476 69.4261 333.221 75.4888C329.073 81.4451 326.999 87.8268 326.999 94.6341V149.996H307.854V94.7936Z" fill="#0D0D0D"/>
<path d="M635.767 149.836V99.2609H557.75V149.996H538.445V94.7936C538.445 84.4764 541.583 75.0633 547.858 66.5543C554.134 57.9389 562.377 51.1316 572.588 46.1326C582.905 41.1335 593.807 38.634 605.294 38.634H634.969L654.434 55.3861L654.912 149.836H635.767ZM635.767 83.1469V55.5457H604.337C597.636 55.5457 591.254 56.7689 585.192 59.2152C579.129 61.5552 573.917 64.8525 569.556 69.107C565.195 73.2551 562.004 77.9351 559.984 83.1469H635.767Z" fill="#0D0D0D"/>
<path d="M666.361 94.6341C666.361 84.9551 669.233 75.8078 674.976 67.1924C680.826 58.4707 688.91 51.5039 699.227 46.2921C709.544 40.974 721.138 38.3149 734.008 38.3149H798.464V55.2266H734.965C725.818 55.2266 717.894 56.7157 711.193 59.6938C704.492 62.672 699.174 66.4479 695.239 71.0215C691.303 75.5951 688.538 80.4346 686.942 85.54H798.464V93.6768C798.464 103.356 795.539 112.556 789.689 121.278C783.945 129.893 775.915 136.86 765.598 142.178C755.28 147.39 743.687 149.996 730.817 149.996H666.361V133.084H729.86C739.113 133.084 747.144 131.595 753.951 128.617C760.758 125.532 766.129 121.703 770.065 117.13C774 112.45 776.713 107.504 778.202 102.292H666.361V94.6341Z" fill="#0D0D0D"/>
<path d="M810.651 38.3149H829.637V149.996H810.651V38.3149Z" fill="#0D0D0D"/>
<path d="M957.665 149.835C943.848 149.835 931.744 147.05 921.354 141.481C910.965 135.911 903.039 129.002 897.576 120.755C892.113 112.4 889.382 104.367 889.382 96.6548V54.2389L909.465 38.0116H1006.19V49.5796H903.039V87.9788H985.782V98.2614H903.842C903.842 103.403 906.145 109.133 910.75 115.453C915.356 121.772 921.676 127.181 929.709 131.68C937.85 136.072 946.9 138.267 956.862 138.267H1006.19V149.835H957.665Z" fill="#0D0D0D"/>
<path d="M1077.17 93.7628L1022.54 37.5296H1037.32L1084.56 85.8901L1131.96 37.5296H1146.58L1092.11 93.7628L1146.9 149.996H1131.96L1084.56 101.475L1037.32 149.996H1022.38L1077.17 93.7628Z" fill="#0D0D0D"/>
<path d="M1163.02 37.5296H1259.42L1278.86 54.3995C1277.14 62.7542 1273.23 70.5733 1267.13 77.8568C1261.02 85.1404 1253.15 90.9779 1243.51 95.3694C1233.98 99.6539 1223.43 101.796 1211.86 101.796L1176.67 101.635V149.996H1163.02V37.5296ZM1209.61 90.0674C1219.25 90.0674 1228.41 88.0859 1237.08 84.1228C1245.87 80.0526 1252.94 74.8577 1258.29 68.5382C1263.65 62.1115 1266.33 55.5778 1266.33 48.9369H1176.67V90.0674H1209.61Z" fill="#0D0D0D"/>
<path d="M1358.7 149.835C1344.89 149.835 1332.78 147.05 1322.39 141.481C1312 135.911 1304.08 129.002 1298.61 120.755C1293.15 112.4 1290.42 104.367 1290.42 96.6548V54.2389L1310.5 38.0116H1407.22V49.5796H1304.08V87.9788H1386.82V98.2614H1304.88C1304.88 103.403 1307.18 109.133 1311.79 115.453C1316.39 121.772 1322.71 127.181 1330.75 131.68C1338.89 136.072 1347.94 138.267 1357.9 138.267H1407.22V149.835H1358.7Z" fill="#0D0D0D"/>
<path d="M1418.92 37.5296H1516.29L1536.69 54.3995C1535.62 61.4689 1532.41 68.4311 1527.05 75.2862C1521.8 82.0341 1514.84 87.7646 1506.16 92.4774C1497.59 97.1903 1488.17 100.082 1477.89 101.153L1536.53 149.835H1516.93L1452.34 96.0121V90.7101H1467.44C1479.55 90.7101 1489.78 88.4608 1498.13 83.9621C1506.59 79.4635 1512.86 74.0008 1516.93 67.5742C1521 61.1475 1523.03 54.9887 1523.03 49.0976H1432.58V149.996H1418.92V37.5296Z" fill="#0D0D0D"/>
<path d="M1551.58 37.5296H1565.24V149.996H1551.58V37.5296Z" fill="#0D0D0D"/>
<path d="M1648.5 149.835C1634.68 149.835 1622.58 147.05 1612.19 141.481C1601.8 135.911 1593.87 129.002 1588.41 120.755C1582.95 112.4 1580.22 104.367 1580.22 96.6548V54.2389L1600.3 38.0116H1697.02V49.5796H1593.87V87.9788H1676.62V98.2614H1594.68C1594.68 103.403 1596.98 109.133 1601.58 115.453C1606.19 121.772 1612.51 127.181 1620.54 131.68C1628.68 136.072 1637.73 138.267 1647.7 138.267H1697.02V149.835H1648.5Z" fill="#0D0D0D"/>
<path d="M1709.04 54.7209L1728.8 37.8509H1758.68C1770.25 37.8509 1781.18 40.368 1791.46 45.4022C1801.85 50.4364 1810.2 57.2915 1816.52 65.9675C1822.84 74.5364 1826 84.0157 1826 94.4054V149.996H1812.67V94.2448C1812.67 86.8541 1810.47 79.7313 1806.08 72.8762C1801.69 65.914 1794.94 60.2371 1785.84 55.8455C1776.73 51.454 1765.49 49.2582 1752.1 49.2582H1722.37V149.996L1708.72 149.835V150.157L1709.04 54.7209Z" fill="#0D0D0D"/>
<path d="M1905.65 149.193C1892.8 149.193 1881.13 146.515 1870.63 141.159C1860.24 135.697 1852.1 128.681 1846.21 120.112C1840.42 111.436 1837.53 102.492 1837.53 93.2808C1837.53 84.0692 1840.42 75.179 1846.21 66.6102C1852.1 57.9342 1860.24 50.9184 1870.63 45.5629C1881.13 40.1002 1892.8 37.3689 1905.65 37.3689H1970.56V48.9369H1907.74C1896.28 48.9369 1886.27 51.1327 1877.7 55.5242C1869.13 59.9158 1862.54 65.5391 1857.94 72.3942C1853.44 79.2493 1851.19 86.2115 1851.19 93.2808C1851.19 100.243 1853.44 107.152 1857.94 114.007C1862.54 120.862 1869.13 126.539 1877.7 131.037C1886.27 135.429 1896.28 137.625 1907.74 137.625H1970.56V149.193H1905.65Z" fill="#0D0D0D"/>
<path d="M2050.48 149.835C2036.66 149.835 2024.56 147.05 2014.17 141.481C2003.78 135.911 1995.85 129.002 1990.39 120.755C1984.93 112.4 1982.19 104.367 1982.19 96.6548V54.2389L2002.28 38.0116H2099V49.5796H1995.85V87.9788H2078.59V98.2614H1996.65C1996.65 103.403 1998.96 109.133 2003.56 115.453C2008.17 121.772 2014.49 127.181 2022.52 131.68C2030.66 136.072 2039.71 138.267 2049.67 138.267H2099V149.835H2050.48Z" fill="#0D0D0D"/>
</svg>
