<svg width="1891" height="205" viewBox="0 0 1891 205" fill="none" xmlns="http://www.w3.org/2000/svg">
<path d="M19.6522 29.7998V176.717L66.1728 131.323V158.801L54.2529 170.408L18.8262 204.989H0V0H17.6904L66.1728 48.5667V76.4011L19.6522 29.7998Z" fill="#FFFFFF"/>
<path d="M164.137 136.816L94.259 205H78.8861V0.828048H95.326L164.561 70.1842C182.976 88.6294 182.792 118.601 164.137 136.816Z" fill="#FFFFFF"/>
<path d="M300.719 104.316C300.719 93.9992 303.857 84.5866 310.132 76.078C316.407 67.4631 324.649 60.6563 334.86 55.6575C345.176 50.6587 356.078 48.1593 367.564 48.1593H499.819L519.282 64.9105L519.761 159.355H500.617V65.0701H465.04C456.426 65.0701 448.449 66.8782 441.11 70.4943C433.878 74.1104 428.135 78.9497 423.88 85.012C419.732 90.968 417.658 97.3494 417.658 104.156V159.515H398.514V104.316C398.514 96.5517 400.375 89.3195 404.098 82.619C407.82 75.9185 412.979 70.0689 419.573 65.0701H366.448C358.152 65.0701 350.388 66.8782 343.155 70.4943C336.03 74.1104 330.339 78.9497 326.085 85.012C321.937 90.968 319.863 97.3494 319.863 104.156V159.515H300.719V104.316Z" fill="#FFFFFF"/>
<path d="M628.614 159.355V108.783H550.601V159.515H531.297V104.316C531.297 93.9992 534.435 84.5866 540.71 76.078C546.985 67.4631 555.228 60.6563 565.438 55.6575C575.755 50.6587 586.656 48.1593 598.143 48.1593H627.816L647.28 64.9105L647.758 159.355H628.614ZM628.614 92.6697V65.0701H597.186C590.485 65.0701 584.104 66.2932 578.041 68.7394C571.979 71.0792 566.767 74.3763 562.407 78.6306C558.046 82.7785 554.856 87.4582 552.835 92.6697H628.614Z" fill="#FFFFFF"/>
<path d="M659.206 104.156C659.206 94.4778 662.078 85.3311 667.821 76.7162C673.671 67.9949 681.754 61.0285 692.07 55.817C702.387 50.4992 713.98 47.8403 726.849 47.8403H791.302V64.751H727.806C718.66 64.751 710.736 66.24 704.036 69.218C697.335 72.196 692.017 75.9717 688.082 80.545C684.147 85.1184 681.382 89.9576 679.786 95.0627H791.302V103.199C791.302 112.878 788.377 122.077 782.527 130.799C776.784 139.414 768.754 146.38 758.437 151.698C748.121 156.909 736.528 159.515 723.659 159.515H659.206V142.604H722.701C731.954 142.604 739.984 141.115 746.791 138.137C753.598 135.053 758.969 131.224 762.904 126.651C766.839 121.971 769.552 117.025 771.041 111.814H659.206V104.156Z" fill="#FFFFFF"/>
<path d="M803.489 47.8403H822.473V159.515H803.489V47.8403Z" fill="#FFFFFF"/>
<path d="M984.915 159.355V106.39H896.213V159.515H882.174V104.316C882.174 93.9992 885.312 84.5866 891.587 76.078C897.862 67.4631 906.104 60.6563 916.315 55.6575C926.631 50.6587 937.533 48.1593 949.019 48.1593H978.693L998.156 64.9105L998.635 159.355H984.915ZM984.915 95.0627V59.4863H942.798C935.778 59.4863 929.077 61.188 922.696 64.5915C916.421 67.8885 911.05 72.2492 906.583 77.6734C902.222 83.0976 899.191 88.894 897.489 95.0627H984.915Z" fill="#FFFFFF"/>
<path d="M1077.73 158.717C1064.96 158.717 1053.37 156.058 1042.95 150.741C1032.63 145.316 1024.55 138.35 1018.7 129.841C1012.95 121.227 1010.08 112.346 1010.08 103.199C1010.08 94.0523 1012.95 85.2247 1018.7 76.7162C1024.55 68.1013 1032.63 61.1349 1042.95 55.817C1053.37 50.3928 1064.96 47.6807 1077.73 47.6807H1142.18V59.1673H1079.8C1068.42 59.1673 1058.48 61.3476 1049.97 65.7082C1041.46 70.0689 1034.92 75.6526 1030.34 82.4594C1025.88 89.2663 1023.64 96.1795 1023.64 103.199C1023.64 110.112 1025.88 116.972 1030.34 123.779C1034.92 130.586 1041.46 136.223 1049.97 140.69C1058.48 145.05 1068.42 147.231 1079.8 147.231H1142.18V158.717H1077.73Z" fill="#FFFFFF"/>
<path d="M1256.47 159.355V106.39H1167.77V159.515H1153.73V104.316C1153.73 93.9992 1156.86 84.5866 1163.14 76.078C1169.41 67.4631 1177.66 60.6563 1187.87 55.6575C1198.18 50.6587 1209.09 48.1593 1220.57 48.1593H1250.25L1269.71 64.9105L1270.19 159.355H1256.47ZM1256.47 95.0627V59.4863H1214.35C1207.33 59.4863 1200.63 61.188 1194.25 64.5915C1187.97 67.8885 1182.6 72.2492 1178.14 77.6734C1173.78 83.0976 1170.74 88.894 1169.04 95.0627H1256.47Z" fill="#FFFFFF"/>
<path d="M1281.64 47.6807H1346.09C1358.85 47.6807 1370.39 50.3928 1380.71 55.817C1391.13 61.1349 1399.21 68.1013 1404.96 76.7162C1410.81 85.2247 1413.73 94.0523 1413.73 103.199C1413.73 112.346 1410.81 121.227 1404.96 129.841C1399.21 138.35 1391.13 145.316 1380.71 150.741C1370.39 156.058 1358.85 158.717 1346.09 158.717H1281.64V47.6807ZM1344.01 147.39C1355.39 147.39 1365.34 145.157 1373.85 140.69C1382.36 136.223 1388.84 130.586 1393.31 123.779C1397.88 116.866 1400.17 110.006 1400.17 103.199C1400.17 96.4986 1397.88 89.6917 1393.31 82.7785C1388.84 75.8653 1382.36 70.1752 1373.85 65.7082C1365.34 61.1349 1355.39 58.8482 1344.01 58.8482H1292.96V147.39H1344.01Z" fill="#FFFFFF"/>
<path d="M1493.08 159.355C1479.36 159.355 1467.34 156.59 1457.03 151.06C1446.71 145.529 1438.84 138.669 1433.42 130.48C1427.99 122.184 1425.28 114.207 1425.28 106.549V64.4319L1445.22 48.3189H1541.26V59.8054H1438.84V97.9344H1521V108.145H1439.64C1439.64 113.25 1441.92 118.94 1446.5 125.215C1451.07 131.49 1457.35 136.861 1465.32 141.328C1473.41 145.689 1482.39 147.869 1492.28 147.869H1541.26V159.355H1493.08Z" fill="#FFFFFF"/>
<path d="M1552.88 104.316C1552.88 93.9992 1556.01 84.5866 1562.29 76.078C1568.56 67.4631 1576.81 60.6563 1587.02 55.6575C1597.33 50.6587 1608.24 48.1593 1619.72 48.1593H1751.98L1771.44 64.9105L1771.92 159.355H1758.04V59.4863H1718.95C1708.74 59.4863 1699.7 61.6667 1691.83 66.0273C1683.96 70.3879 1677.85 76.0248 1673.49 82.938C1669.23 89.7449 1667.1 96.8176 1667.1 104.156V159.515H1653.54V104.316C1653.54 95.7009 1655.88 87.1923 1660.56 78.7901C1665.35 70.2816 1672.26 63.847 1681.3 59.4863H1612.86C1604.78 59.4863 1597.12 61.7198 1589.89 66.1868C1582.76 70.6538 1577.07 76.3971 1572.82 83.4166C1568.56 90.3298 1566.44 97.243 1566.44 104.156V159.515H1552.88V104.316Z" fill="#FFFFFF"/>
<path d="M1827.49 114.047L1777.07 47.8403H1793.83L1834.51 101.763L1875.03 47.8403H1890.82L1841.21 114.047V159.515H1827.65L1827.49 114.047Z" fill="#FFFFFF"/>
</svg>
