<svg width="1590" height="112" viewBox="0 0 1590 112" fill="none" xmlns="http://www.w3.org/2000/svg">
<path d="M0 56.6314C0 46.3154 3.13733 36.9035 9.41198 28.3955C15.6866 19.7811 23.9288 12.9747 34.1383 7.97625C44.4543 2.9778 55.3552 0.47858 66.841 0.47858H199.087L218.549 17.2287L219.028 111.667H199.885V17.3882H164.311C155.696 17.3882 147.72 19.1962 140.382 22.8121C133.15 26.428 127.407 31.2669 123.153 37.3289C119.006 43.2844 116.932 49.6654 116.932 56.4718V111.827H97.7888V56.6314C97.7888 48.8678 99.6499 41.636 103.372 34.936C107.094 28.2359 112.252 22.3867 118.846 17.3882H65.7243C57.429 17.3882 49.6654 19.1962 42.4336 22.8121C35.3082 26.428 29.6184 31.2669 25.3644 37.3289C21.2168 43.2844 19.143 49.6654 19.143 56.4718V111.827H0V56.6314Z" fill="#0D0D0D"/>
<path d="M327.874 111.667V61.0981H249.866V111.827H230.563V56.6314C230.563 46.3154 233.701 36.9035 239.975 28.3955C246.25 19.7811 254.492 12.9747 264.702 7.97625C275.018 2.9778 285.919 0.47858 297.404 0.47858H327.076L346.538 17.2287L347.017 111.667H327.874ZM327.874 44.986V17.3882H296.447C289.747 17.3882 283.366 18.6113 277.304 21.0573C271.242 23.397 266.031 26.6939 261.671 30.9479C257.31 35.0955 254.12 39.7749 252.099 44.986H327.874Z" fill="#0D0D0D"/>
<path d="M358.464 56.4718C358.464 46.794 361.335 37.6479 367.078 29.0335C372.927 20.3129 381.01 13.3469 391.326 8.13578C401.642 2.81828 413.234 0.159524 426.102 0.159524H490.551V17.0692H427.06C417.913 17.0692 409.99 18.5581 403.29 21.5359C396.59 24.5137 391.273 28.2891 387.338 32.8621C383.403 37.4352 380.638 42.2741 379.043 47.3789H490.551V55.5147C490.551 65.1925 487.626 74.3918 481.777 83.1125C476.034 91.7269 468.004 98.6928 457.688 104.01C447.372 109.221 435.78 111.827 422.912 111.827H358.464V94.9174H421.955C431.207 94.9174 439.237 93.4285 446.043 90.4507C452.849 87.3665 458.22 83.5379 462.155 78.9649C466.09 74.2855 468.802 69.3402 470.291 64.129H358.464V56.4718Z" fill="#0D0D0D"/>
<path d="M502.737 0.159524H521.72V111.827H502.737V0.159524Z" fill="#0D0D0D"/>
<path d="M684.151 111.667V58.7052H595.455V111.827H581.417V56.6314C581.417 46.3154 584.554 36.9035 590.829 28.3955C597.104 19.7811 605.346 12.9747 615.556 7.97625C625.871 2.9778 636.772 0.47858 648.258 0.47858H677.93L697.392 17.2287L697.87 111.667H684.151ZM684.151 47.3789V11.8049H642.037C635.018 11.8049 628.317 13.5064 621.936 16.9096C615.662 20.2065 610.291 24.5669 605.824 29.9907C601.464 35.4146 598.433 41.2106 596.731 47.3789H684.151Z" fill="#0D0D0D"/>
<path d="M776.956 111.029C764.194 111.029 752.602 108.371 742.18 103.053C731.864 97.6293 723.781 90.6634 717.932 82.1554C712.189 73.541 709.317 64.6608 709.317 55.5147C709.317 46.3686 712.189 37.5415 717.932 29.0335C723.781 20.4192 731.864 13.4533 742.18 8.13578C752.602 2.71193 764.194 0 776.956 0H841.404V11.4858H779.03C767.651 11.4858 757.707 13.666 749.199 18.0263C740.691 22.3867 734.15 27.97 729.577 34.7764C725.111 41.5828 722.877 48.4956 722.877 55.5147C722.877 62.4274 725.111 69.287 729.577 76.0934C734.15 82.8998 740.691 88.5364 749.199 93.0031C757.707 97.3634 767.651 99.5436 779.03 99.5436H841.404V111.029H776.956Z" fill="#0D0D0D"/>
<path d="M955.686 111.667V58.7052H866.991V111.827H852.952V56.6314C852.952 46.3154 856.09 36.9035 862.364 28.3955C868.639 19.7811 876.881 12.9747 887.091 7.97625C897.407 2.9778 908.308 0.47858 919.793 0.47858H949.465L968.927 17.2287L969.406 111.667H955.686ZM955.686 47.3789V11.8049H913.572C906.553 11.8049 899.853 13.5064 893.472 16.9096C887.197 20.2065 881.826 24.5669 877.36 29.9907C872.999 35.4146 869.968 41.2106 868.267 47.3789H955.686Z" fill="#0D0D0D"/>
<path d="M980.853 0H1045.3C1058.06 0 1069.6 2.71193 1079.92 8.13578C1090.34 13.4533 1098.42 20.4192 1104.17 29.0335C1110.01 37.5415 1112.94 46.3686 1112.94 55.5147C1112.94 64.6608 1110.01 73.541 1104.17 82.1554C1098.42 90.6634 1090.34 97.6293 1079.92 103.053C1069.6 108.371 1058.06 111.029 1045.3 111.029H980.853V0ZM1043.23 99.7031C1054.61 99.7031 1064.55 97.4698 1073.06 93.0031C1081.57 88.5364 1088.05 82.8998 1092.52 76.0934C1097.09 69.1807 1099.38 62.3211 1099.38 55.5147C1099.38 48.8146 1097.09 42.0083 1092.52 35.0955C1088.05 28.1828 1081.57 22.493 1073.06 18.0263C1064.55 13.4533 1054.61 11.1667 1043.23 11.1667H992.179V99.7031H1043.23Z" fill="#0D0D0D"/>
<path d="M1192.29 111.667C1178.57 111.667 1166.55 108.902 1156.23 103.372C1145.92 97.842 1138.05 90.9824 1132.62 82.7935C1127.2 74.4982 1124.49 66.5219 1124.49 58.8647V16.7501L1144.43 0.638105H1240.46V12.1239H1138.05V50.2504H1220.2V60.46H1138.84C1138.84 65.5648 1141.13 71.2545 1145.7 77.5291C1150.28 83.8038 1156.55 89.1745 1164.53 93.6412C1172.61 98.0015 1181.6 100.182 1191.49 100.182H1240.46V111.667H1192.29Z" fill="#0D0D0D"/>
<path d="M1252.08 56.6314C1252.08 46.3154 1255.21 36.9035 1261.49 28.3955C1267.76 19.7811 1276.01 12.9747 1286.21 7.97625C1296.53 2.9778 1307.43 0.47858 1318.92 0.47858H1451.16L1470.63 17.2287L1471.1 111.667H1457.23V11.8049H1418.14C1407.93 11.8049 1398.89 13.985 1391.02 18.3454C1383.15 22.7057 1377.04 28.3423 1372.68 35.255C1368.42 42.0614 1366.3 49.1337 1366.3 56.4718V111.827H1352.74V56.6314C1352.74 48.017 1355.08 39.509 1359.76 31.1074C1364.54 22.5994 1371.45 16.1652 1380.49 11.8049H1312.06C1303.97 11.8049 1296.32 14.0382 1289.09 18.5049C1281.96 22.9716 1276.27 28.7145 1272.02 35.7336C1267.76 42.6463 1265.64 49.5591 1265.64 56.4718V111.827H1252.08V56.6314Z" fill="#0D0D0D"/>
<path d="M1526.67 66.3624L1476.26 0.159524H1493.01L1533.69 54.079L1574.21 0.159524H1590L1540.39 66.3624V111.827H1526.83L1526.67 66.3624Z" fill="#0D0D0D"/>
</svg>
