<svg width="208" height="171" viewBox="0 0 208 171" fill="none" xmlns="http://www.w3.org/2000/svg">
<path d="M67.462 134.209C87.9144 153.975 121.216 154.034 141.729 134.209L192.282 85.3527L208 100.542L157.391 149.452C128.254 177.611 80.8389 177.611 51.6898 149.452L1.08129 100.542L16.8535 85.2993L67.462 134.209Z" fill="#0D0D0D"/>
<path d="M104.524 62.7408C117.264 62.7408 127.592 72.8406 127.592 85.2993C127.592 97.758 117.264 107.858 104.524 107.858C91.7844 107.858 81.4568 97.758 81.4568 85.2993C81.4568 72.8406 91.7845 62.7408 104.524 62.7408Z" fill="#0D0D0D"/>
<path d="M192.282 85.3527L192.227 85.2993H192.338L192.282 85.3527Z" fill="#0D0D0D"/>
<path d="M15.7723 85.2718H15.6617L15.7166 85.2181L15.7723 85.2718Z" fill="#0D0D0D"/>
<path d="M50.6089 21.119C79.7457 -7.03965 127.161 -7.03969 156.31 21.119L206.919 70.0292L191.146 85.2718L140.537 36.3619C120.085 16.5962 86.7843 16.5369 66.2706 36.3619L15.7166 85.2181L0 70.0292L50.6089 21.119Z" fill="#0D0D0D"/>
</svg>
