<svg width="1165" height="323" viewBox="0 0 1165 323" fill="none" xmlns="http://www.w3.org/2000/svg">
<path fill-rule="evenodd" clip-rule="evenodd" d="M428.163 228.273L428.643 322.841H414.904V269.806H326.087V323H312.03V267.729C312.03 257.399 315.172 247.974 321.455 239.455C327.738 230.829 335.992 224.013 346.215 219.008C356.545 214.002 367.461 211.5 378.962 211.5H408.675L428.163 228.273ZM372.732 222.842C365.704 222.842 358.995 224.546 352.605 227.954C346.322 231.255 340.944 235.621 336.471 241.053C332.105 246.484 329.07 252.288 327.366 258.464H414.904V222.842H372.732Z" fill="#FFFFFF"/>
<path d="M597.994 247.761L650.23 319.167L702.786 247.282V211.5H717.003V247.921L664.766 323H635.853L583.936 248.241V211.34H597.994V247.761Z" fill="#FFFFFF"/>
<path d="M745.48 323H731.903V211.181H745.48V323Z" fill="#FFFFFF"/>
<path d="M892.639 222.522H824.109C814.311 222.522 805.898 224.546 798.869 228.592C791.947 232.533 786.516 237.485 782.576 243.448C778.742 249.412 776.24 255.376 775.068 261.34H892.639V266.611C892.639 276.302 889.71 285.514 883.853 294.246C878.102 302.872 870.062 309.848 859.732 315.173C849.402 320.391 837.794 323 824.908 323H760.371V311.659H829.381C839.178 311.659 847.591 309.635 854.62 305.588C861.648 301.541 867.079 296.536 870.913 290.572C874.747 284.608 877.25 278.645 878.422 272.682H760.371V267.57C760.371 257.879 763.247 248.72 768.998 240.094C774.855 231.361 782.949 224.386 793.279 219.168C803.609 213.843 815.217 211.181 828.103 211.181H892.639V222.522Z" fill="#FFFFFF"/>
<path d="M1164.97 227.954C1163.9 234.982 1160.71 241.904 1155.39 248.719C1150.17 255.429 1143.24 261.127 1134.62 265.813C1126.1 270.499 1116.73 273.374 1106.5 274.439L1164.81 322.841H1145.32L1081.1 269.327V264.055H1096.12C1108.15 264.055 1118.32 261.819 1126.63 257.346C1135.04 252.874 1141.27 247.442 1145.32 241.053C1149.37 234.663 1151.39 228.539 1151.39 222.682H1061.46V323H1047.88V211.181H1144.68L1164.97 227.954Z" fill="#FFFFFF"/>
<path fill-rule="evenodd" clip-rule="evenodd" d="M1036.31 227.954V266.452C1036.31 276.782 1033.17 286.26 1026.89 294.886C1020.6 303.406 1012.29 310.168 1001.97 315.173C991.742 320.178 980.879 322.681 969.378 322.681H924.011L904.203 305.908V267.41C904.203 257.08 907.344 247.655 913.627 239.135C919.911 230.509 928.164 223.693 938.388 218.688C948.718 213.683 959.633 211.181 971.135 211.181H1016.5L1036.31 227.954ZM971.295 222.202C961.711 222.202 952.818 224.279 944.618 228.432C936.418 232.586 929.868 238.124 924.969 245.046C920.177 251.968 917.781 259.37 917.781 267.25V311.659H969.218C978.802 311.659 987.695 309.582 995.895 305.429C1004.1 301.276 1010.59 295.737 1015.38 288.815C1020.28 281.893 1022.73 274.491 1022.73 266.611V222.202H971.295Z" fill="#FFFFFF"/>
<path fill-rule="evenodd" clip-rule="evenodd" d="M504.642 211.02C517.421 211.02 528.976 213.736 539.306 219.168C549.742 224.492 557.836 231.468 563.587 240.094C569.444 248.613 572.373 257.452 572.373 266.611C572.373 275.769 569.444 284.662 563.587 293.288C557.836 301.808 549.743 308.784 539.306 314.215C528.976 319.54 517.421 322.202 504.642 322.202H440.105V211.02H504.642ZM451.447 310.86H502.565C513.96 310.86 523.918 308.623 532.437 304.151C540.957 299.678 547.453 294.034 551.925 287.218C556.505 280.296 558.794 273.426 558.794 266.611C558.794 259.902 556.505 253.086 551.925 246.164C547.453 239.242 540.957 233.544 532.437 229.071C523.918 224.492 513.96 222.202 502.565 222.202H451.447V310.86Z" fill="#FFFFFF"/>
<path fill-rule="evenodd" clip-rule="evenodd" d="M3.50815 14.0991C4.9984 12.8974 40.5881 -14.9399 99.6903 11.0577C137.878 27.85 166.762 17.7461 177.411 12.6155L190.729 6.20962V153.63L184.655 155.907C176.024 159.135 159.632 164.078 140.279 164.078C125.325 164.078 108.601 161.132 92.2911 152.177C72.6595 141.404 52.2208 140.83 37.0182 142.815C36.9149 142.825 36.8208 142.845 36.7174 142.845C22.7052 144.706 13.1944 148.719 13.0081 148.802L0.031253 154.413L0 140.16V16.9206L3.50815 14.0991ZM92.2501 28.2996C68.7481 17.9654 50.0889 17.62 37.0182 20.086V123.766C41.2406 123.295 45.7734 123.002 50.5234 123.002C65.9018 123.002 83.6399 126.023 101.191 135.657C127.891 150.317 156.568 145.124 172.102 140.338V34.7153C154.705 39.9504 126.391 43.3152 92.2501 28.2996Z" fill="#FFFFFF"/>
<path d="M530.602 38.7089L531.082 133.277H511.913V38.8681H476.289C467.663 38.8681 459.676 40.6785 452.328 44.2992C445.086 47.92 439.336 52.7658 435.076 58.8358C430.923 64.7995 428.846 71.1899 428.846 78.0056V133.436H409.676V78.1648C409.676 70.3908 411.54 63.1492 415.268 56.4401C418.995 49.7309 424.161 43.8733 430.763 38.8681H377.569C369.262 38.8681 361.488 40.6785 354.246 44.2992C347.111 47.92 341.413 52.7657 337.154 58.8358C333 64.7995 330.924 71.1899 330.924 78.0056V133.436H311.755V78.1648C311.755 67.8349 314.896 58.4102 321.179 49.8906C327.463 41.2645 335.716 34.4486 345.94 29.4433C356.27 24.4382 367.186 21.9358 378.687 21.9358H511.114L530.602 38.7089Z" fill="#FFFFFF"/>
<path fill-rule="evenodd" clip-rule="evenodd" d="M658.766 38.7089L659.245 133.277H640.077V82.6379H561.962V133.436H542.633V78.1648C542.633 67.835 545.774 58.4101 552.057 49.8906C558.34 41.2645 566.594 34.4486 576.817 29.4433C587.147 24.4381 598.063 21.9358 609.565 21.9358H639.278L658.766 38.7089ZM608.607 38.8681C601.898 38.8681 595.508 40.0929 589.438 42.5422C583.368 44.8851 578.149 48.1867 573.783 52.4465C569.417 56.5998 566.221 61.2854 564.198 66.5035H640.077V38.8681H608.607Z" fill="#FFFFFF"/>
<path d="M802.975 38.5487H739.398C730.239 38.5487 722.305 40.0399 715.596 43.0218C708.887 46.0036 703.562 49.7845 699.621 54.3637C695.681 58.9429 692.912 63.7886 691.315 68.9003H802.975V77.0465C802.975 86.7376 800.046 95.9494 794.189 104.682C788.438 113.308 780.399 120.284 770.069 125.609C759.739 130.827 748.13 133.436 735.244 133.436H670.708V116.503H734.286C743.551 116.503 751.592 115.012 758.407 112.03C765.223 108.942 770.6 105.108 774.541 100.529C778.481 95.8436 781.197 90.8915 782.688 85.6734H670.708V78.0056C670.708 68.3145 673.583 59.1555 679.334 50.5293C685.191 41.7969 693.285 34.8217 703.615 29.6035C713.945 24.2787 725.554 21.6164 738.44 21.6164H802.975V38.5487Z" fill="#FFFFFF"/>
<path d="M834.188 133.436H815.178V21.6164H834.188V133.436Z" fill="#FFFFFF"/>
</svg>
