<svg preserveAspectRatio="xMidYMid meet" overflow="visible" style="display: block;" viewBox="0 0 1556.3 142.888" fill="none" xmlns="http://www.w3.org/2000/svg">
<g id="Nome">
<path d="M0 87.674C0 77.3844 3.11185 67.9965 9.33557 59.5102C15.5593 50.9179 23.7345 44.1289 33.8612 39.1432C44.0934 34.1575 54.9058 31.6646 66.2984 31.6646H197.471L216.775 48.372L217.25 142.57H198.262V48.5311H162.977C154.433 48.5311 146.521 50.3344 139.242 53.9411C132.069 57.5478 126.373 62.3743 122.154 68.4208C118.04 74.3612 115.983 80.7259 115.983 87.5149V142.729H96.9951V87.674C96.9951 79.9303 98.8411 72.717 102.533 66.034C106.225 59.3511 111.341 53.5168 117.881 48.5311H65.1908C56.9628 48.5311 49.2623 50.3344 42.0892 53.9411C35.0216 57.5478 29.378 62.3743 25.1586 68.4208C21.0446 74.3612 18.9876 80.7259 18.9876 87.5149V142.729H0V87.674Z" fill="#0D0D0D"/>
<path d="M325.212 142.57V92.1293H247.838V142.729H228.692V87.674C228.692 77.3844 231.804 67.9965 238.027 59.5102C244.251 50.9179 252.426 44.1289 262.553 39.1432C272.785 34.1575 283.598 31.6646 294.99 31.6646H324.421L343.725 48.372L344.2 142.57H325.212ZM325.212 76.0585V48.5311H294.041C287.395 48.5311 281.066 49.751 275.053 52.1908C269.041 54.5245 263.872 57.813 259.547 62.0561C255.222 66.1932 252.057 70.8606 250.053 76.0585H325.212Z" fill="#0D0D0D"/>
<path d="M355.554 87.5149C355.554 77.8618 358.402 68.739 364.099 60.1467C369.9 51.4483 377.917 44.5001 388.15 39.3023C398.382 33.9984 409.88 31.3464 422.644 31.3464H486.569V48.2129H423.593C414.521 48.2129 406.662 49.698 400.017 52.6682C393.371 55.6384 388.097 59.4042 384.194 63.9655C380.291 68.5269 377.548 73.3535 375.966 78.4452H486.569V86.5602C486.569 96.2134 483.668 105.389 477.866 114.088C472.17 122.68 464.205 129.628 453.973 134.932C443.741 140.13 432.243 142.729 419.479 142.729H355.554V125.862H418.53C427.707 125.862 435.671 124.377 442.422 121.407C449.174 118.331 454.501 114.512 458.404 109.951C462.307 105.283 464.997 100.35 466.473 95.1526H355.554V87.5149Z" fill="#0D0D0D"/>
<path d="M498.656 31.3464H517.485V142.729H498.656V31.3464Z" fill="#0D0D0D"/>
<path d="M578.036 48.3717L597.498 31.6644H626.929C638.322 31.6644 649.082 34.1572 659.208 39.1429C669.44 44.1286 677.668 50.9176 683.892 59.51C690.116 67.9963 693.228 77.3842 693.228 87.6738V142.728H680.094V87.5147C680.094 80.1953 677.932 73.1411 673.607 66.352C669.282 59.4569 662.637 53.8348 653.67 49.4856C644.704 45.1364 633.628 42.9617 620.442 42.9617H591.169V142.728L577.72 142.569V142.888L578.036 48.3717Z" fill="#0D0D0D"/>
<path d="M771.83 142.569C758.222 142.569 746.302 139.811 736.07 134.295C725.837 128.779 718.031 121.937 712.651 113.769C707.272 105.495 704.582 97.5391 704.582 89.9014V47.8944L724.361 31.8235H819.615V43.28H718.031V81.3091H799.52V91.4926H718.823C718.823 96.5844 721.091 102.26 725.627 108.518C730.163 114.777 736.386 120.134 744.298 124.589C752.315 128.938 761.228 131.113 771.038 131.113H819.615V142.569H771.83Z" fill="#0D0D0D"/>
<path d="M891.285 142.251C878.626 142.251 867.128 139.599 856.791 134.295C846.558 128.885 838.541 121.937 832.74 113.451C827.043 104.858 824.195 96.0009 824.195 86.8782C824.195 77.7555 827.043 68.951 832.74 60.4647C838.541 51.8723 846.558 44.9242 856.791 39.6203C867.128 34.2103 878.626 31.5053 891.285 31.5053H955.21V42.8026H893.342C881.738 42.8026 871.717 45.0833 863.278 49.6447C854.839 54.2061 848.457 59.9343 844.132 66.8294C839.807 73.6184 837.645 80.3013 837.645 86.8782C837.645 93.4551 839.807 100.191 844.132 107.086C848.457 113.875 854.839 119.55 863.278 124.112C871.717 128.673 881.738 130.954 893.342 130.954H941.76V88.6285H904.26V78.7632H955.21V142.251H891.285Z" fill="#0D0D0D"/>
<path d="M966.664 125.703V87.3556C966.664 77.066 969.776 67.678 976 59.1917C982.223 50.5994 990.399 43.8104 1000.53 38.8247C1010.76 33.839 1021.57 31.3462 1032.96 31.3462H1077.9L1097.52 48.0535V86.4009C1097.52 96.6905 1094.41 106.131 1088.18 114.724C1081.96 123.21 1073.73 129.946 1063.5 134.932C1053.37 139.917 1042.61 142.41 1031.22 142.41H986.285L966.664 125.703ZM1031.06 131.431C1040.56 131.431 1049.37 129.363 1057.49 125.226C1065.61 121.088 1072.05 115.572 1076.79 108.677C1081.64 101.782 1084.07 94.4098 1084.07 86.56V42.3253H1033.12C1023.63 42.3253 1014.82 44.3938 1006.7 48.5309C998.574 52.6679 992.086 58.184 987.234 65.0791C982.487 71.9742 980.114 79.3466 980.114 87.1964V131.431H1031.06ZM1026.95 10.9791L1040.56 0H1059.55L1036.76 18.935L1026.95 10.9791Z" fill="#0D0D0D"/>
<path d="M1176.07 141.933C1163.41 141.933 1151.91 139.281 1141.57 133.977C1131.34 128.567 1123.32 121.619 1117.52 113.133C1111.83 104.54 1108.98 95.6827 1108.98 86.56C1108.98 77.4372 1111.83 68.6327 1117.52 60.1464C1123.32 51.5541 1131.34 44.606 1141.57 39.302C1151.91 33.892 1163.41 31.187 1176.07 31.187H1239.99V42.6435H1178.12C1166.84 42.6435 1156.97 44.8181 1148.54 49.1673C1140.1 53.5165 1133.61 59.0857 1129.07 65.8747C1124.64 72.6637 1122.43 79.5588 1122.43 86.56C1122.43 93.4551 1124.64 100.297 1129.07 107.086C1133.61 113.875 1140.1 119.497 1148.54 123.953C1156.97 128.302 1166.84 130.476 1178.12 130.476H1239.99V141.933H1176.07Z" fill="#0D0D0D"/>
<path d="M1254.77 31.3462H1268.22V142.728H1254.77V31.3462Z" fill="#0D0D0D"/>
<path d="M1282.97 125.703V87.3556C1282.97 77.066 1286.08 67.678 1292.31 59.1917C1298.53 50.5994 1306.7 43.8104 1316.83 38.8247C1327.06 33.839 1337.88 31.3462 1349.27 31.3462H1394.21L1413.83 48.0535V86.4009C1413.83 96.6905 1410.71 106.131 1404.49 114.724C1398.27 123.21 1390.04 129.946 1379.81 134.932C1369.68 139.917 1358.92 142.41 1347.53 142.41H1302.59L1282.97 125.703ZM1347.37 131.431C1356.86 131.431 1365.67 129.363 1373.79 125.226C1381.92 121.088 1388.35 115.572 1393.1 108.677C1397.95 101.782 1400.38 94.4098 1400.38 86.56V42.3253H1349.43C1339.93 42.3253 1331.12 44.3938 1323 48.5309C1314.88 52.6679 1308.39 58.184 1303.54 65.0791C1298.79 71.9742 1296.42 79.3466 1296.42 87.1964V131.431H1347.37Z" fill="#0D0D0D"/>
<path d="M1425.28 87.5147C1425.28 77.8615 1428.13 68.7388 1433.83 60.1464C1439.63 51.448 1447.65 44.4999 1457.88 39.302C1468.11 33.9981 1479.61 31.3462 1492.37 31.3462H1556.3V42.6435H1488.42C1478.71 42.6435 1470.38 44.659 1463.42 48.69C1456.56 52.6149 1451.18 57.5475 1447.28 63.4879C1443.48 69.4283 1441 75.3687 1439.84 81.3091H1556.3V86.56C1556.3 96.2131 1553.4 105.389 1547.6 114.087C1541.9 122.68 1533.94 129.628 1523.7 134.932C1513.47 140.13 1501.97 142.728 1489.21 142.728H1425.28V131.431H1493.64C1503.34 131.431 1511.68 129.416 1518.64 125.385C1525.6 121.354 1530.98 116.368 1534.78 110.428C1538.58 104.487 1541.06 98.5468 1542.22 92.6064H1425.28V87.5147Z" fill="#0D0D0D"/>
</g>
</svg>
