<svg width="185" height="185" viewBox="0 0 185 185" fill="none" xmlns="http://www.w3.org/2000/svg">
<path d="M142.567 61.1003L184.167 19.2825L170.828 6.33248L164.578 0.044708L122.622 42.2482C105.606 59.3733 77.9722 59.3285 61 42.2482L19 0L13.1944 5.84064L0.0444539 18.8465L41.9944 61.05C59.0167 78.1695 58.9722 105.97 41.9944 123.05L0 165.298L6 171.335L5.96111 171.374L19 184.491L60.9556 142.288C77.9722 125.168 105.606 125.213 122.578 142.288L165 185L171.467 178.416L184.506 165.298L142.556 123.089C125.539 105.97 125.583 78.1695 142.556 61.0947M68.7945 115.32C74.6445 100.587 74.6944 84.0604 68.9556 69.2995C83.9833 75.2575 100.867 75.0955 115.789 68.8133C109.811 83.8592 109.878 100.794 115.994 115.807C100.961 109.429 83.9278 109.262 68.7945 115.326" fill="#FF0055"/>
</svg>
