<svg preserveAspectRatio="xMidYMid meet" overflow="visible" style="display: block;" viewBox="0 0 1831 164" fill="none" xmlns="http://www.w3.org/2000/svg">
<g id="Simbolo + Nome">
<path d="M274.701 88.3191C274.701 78.0295 277.813 68.6416 284.037 60.1553C290.261 51.563 298.436 44.774 308.562 39.7883C318.795 34.8026 329.607 32.3097 341 32.3097H472.172L491.476 49.0171L491.951 143.215H472.964V49.1762H437.678C429.134 49.1762 421.222 50.9795 413.944 54.5862C406.771 58.1929 401.074 63.0194 396.855 69.0659C392.741 75.0063 390.684 81.371 390.684 88.16V143.374H371.696V88.3191C371.696 80.5754 373.542 73.3621 377.234 66.6791C380.926 59.9962 386.042 54.1619 392.583 49.1762H339.892C331.664 49.1762 323.964 50.9795 316.79 54.5862C309.723 58.1929 304.079 63.0194 299.86 69.0659C295.746 75.0063 293.689 81.371 293.689 88.16V143.374H274.701V88.3191Z" fill="#FFFFFF"/>
<path d="M599.914 143.215V92.7744H522.539V143.374H503.393V88.3191C503.393 78.0295 506.505 68.6416 512.729 60.1553C518.952 51.563 527.128 44.774 537.254 39.7883C547.487 34.8026 558.299 32.3097 569.692 32.3097H599.122L618.426 49.0171L618.901 143.215H599.914ZM599.914 76.7036V49.1762H568.742C562.097 49.1762 555.767 50.3961 549.755 52.8359C543.742 55.1696 538.573 58.4581 534.248 62.7012C529.923 66.8383 526.758 71.5057 524.754 76.7036H599.914Z" fill="#FFFFFF"/>
<path d="M630.255 88.16C630.255 78.5069 633.103 69.3841 638.8 60.7918C644.602 52.0934 652.619 45.1452 662.851 39.9474C673.083 34.6435 684.581 31.9915 697.345 31.9915H761.27V48.858H698.294C689.222 48.858 681.364 50.3431 674.718 53.3133C668.072 56.2835 662.798 60.0492 658.895 64.6106C654.992 69.172 652.249 73.9986 650.667 79.0903H761.27V87.2053C761.27 96.8584 758.369 106.034 752.567 114.733C746.871 123.325 738.907 130.273 728.674 135.577C718.442 140.775 706.944 143.374 694.18 143.374H630.255V126.507H693.231C702.408 126.507 710.373 125.022 717.124 122.052C723.875 118.976 729.202 115.157 733.105 110.596C737.008 105.928 739.698 100.996 741.175 95.7977H630.255V88.16Z" fill="#FFFFFF"/>
<path d="M773.357 31.9915H792.187V143.374H773.357V31.9915Z" fill="#FFFFFF"/>
<path d="M852.737 49.0168L872.2 32.3095H901.631C913.023 32.3095 923.783 34.8023 933.909 39.788C944.142 44.7737 952.37 51.5627 958.593 60.1551C964.817 68.6413 967.929 78.0293 967.929 88.3189V143.374H954.796V88.1598C954.796 80.8404 952.633 73.7862 948.308 66.9971C943.983 60.102 937.338 54.4799 928.371 50.1307C919.405 45.7815 908.329 43.6068 895.143 43.6068H865.871V143.374L852.421 143.214V143.533L852.737 49.0168Z" fill="#FFFFFF"/>
<path d="M1046.53 143.214C1032.92 143.214 1021 140.456 1010.77 134.94C1000.54 129.424 992.733 122.582 987.353 114.414C981.973 106.14 979.283 98.1842 979.283 90.5465V48.5395L999.062 32.4686H1094.32V43.9251H992.733V81.9542H1074.22V92.1377H993.524C993.524 97.2295 995.792 102.905 1000.33 109.163C1004.86 115.422 1011.09 120.779 1019 125.234C1027.02 129.583 1035.93 131.758 1045.74 131.758H1094.32V143.214H1046.53Z" fill="#FFFFFF"/>
<path d="M1165.99 142.896C1153.33 142.896 1141.83 140.244 1131.49 134.94C1121.26 129.53 1113.24 122.582 1107.44 114.096C1101.74 105.504 1098.9 96.646 1098.9 87.5233C1098.9 78.4006 1101.74 69.5961 1107.44 61.1098C1113.24 52.5174 1121.26 45.5693 1131.49 40.2654C1141.83 34.8554 1153.33 32.1504 1165.99 32.1504H1229.91V43.4477H1168.04C1156.44 43.4477 1146.42 45.7284 1137.98 50.2898C1129.54 54.8512 1123.16 60.5794 1118.83 67.4745C1114.51 74.2635 1112.35 80.9464 1112.35 87.5233C1112.35 94.1002 1114.51 100.836 1118.83 107.731C1123.16 114.52 1129.54 120.195 1137.98 124.757C1146.42 129.318 1156.44 131.599 1168.04 131.599H1216.46V89.2736H1178.96V79.4083H1229.91V142.896H1165.99Z" fill="#FFFFFF"/>
<path d="M1241.37 126.348V88.0007C1241.37 77.7111 1244.48 68.3231 1250.7 59.8368C1256.92 51.2445 1265.1 44.4555 1275.23 39.4698C1285.46 34.4841 1296.27 31.9913 1307.66 31.9913H1352.6L1372.22 48.6986V87.0459C1372.22 97.3356 1369.11 106.777 1362.89 115.369C1356.66 123.855 1348.43 130.591 1338.2 135.577C1328.08 140.563 1317.32 143.055 1305.92 143.055H1260.99L1241.37 126.348ZM1305.76 132.076C1315.26 132.076 1324.07 130.008 1332.19 125.871C1340.31 121.734 1346.75 116.218 1351.49 109.322C1356.35 102.427 1358.77 95.0549 1358.77 87.2051V42.9704H1307.82C1298.33 42.9704 1289.52 45.0389 1281.4 49.176C1273.28 53.313 1266.79 58.8291 1261.94 65.7242C1257.19 72.6193 1254.81 79.9917 1254.81 87.8415V132.076H1305.76ZM1301.65 11.6242L1315.26 0.645097H1334.25L1311.46 19.5801L1301.65 11.6242Z" fill="#FFFFFF"/>
<path d="M1450.77 142.578C1438.11 142.578 1426.61 139.926 1416.28 134.622C1406.04 129.212 1398.03 122.264 1392.22 113.778C1386.53 105.185 1383.68 96.3278 1383.68 87.2051C1383.68 78.0823 1386.53 69.2778 1392.22 60.7915C1398.03 52.1992 1406.04 45.2511 1416.28 39.9471C1426.61 34.5371 1438.11 31.8321 1450.77 31.8321H1514.69V43.2886H1452.83C1441.54 43.2886 1431.68 45.4632 1423.24 49.8124C1414.8 54.1616 1408.31 59.7308 1403.77 66.5198C1399.34 73.3088 1397.13 80.2039 1397.13 87.2051C1397.13 94.1002 1399.34 100.942 1403.77 107.731C1408.31 114.52 1414.8 120.142 1423.24 124.598C1431.68 128.947 1441.54 131.122 1452.83 131.122H1514.69V142.578H1450.77Z" fill="#FFFFFF"/>
<path d="M1529.47 31.9913H1542.92V143.374H1529.47V31.9913Z" fill="#FFFFFF"/>
<path d="M1557.67 126.348V88.0007C1557.67 77.7111 1560.78 68.3231 1567.01 59.8368C1573.23 51.2445 1581.41 44.4555 1591.53 39.4698C1601.76 34.4841 1612.58 31.9913 1623.97 31.9913H1668.91L1688.53 48.6986V87.0459C1688.53 97.3356 1685.42 106.777 1679.19 115.369C1672.97 123.855 1664.74 130.591 1654.51 135.577C1644.38 140.563 1633.62 143.055 1622.23 143.055H1577.29L1557.67 126.348ZM1622.07 132.076C1631.56 132.076 1640.37 130.008 1648.5 125.871C1656.62 121.734 1663.05 116.218 1667.8 109.322C1672.65 102.427 1675.08 95.0549 1675.08 87.2051V42.9704H1624.13C1614.63 42.9704 1605.83 45.0389 1597.7 49.176C1589.58 53.313 1583.09 58.8291 1578.24 65.7242C1573.49 72.6193 1571.12 79.9917 1571.12 87.8415V132.076H1622.07Z" fill="#FFFFFF"/>
<path d="M1699.99 88.1598C1699.99 78.5066 1702.83 69.3839 1708.53 60.7915C1714.33 52.0931 1722.35 45.145 1732.58 39.9471C1742.81 34.6432 1754.31 31.9913 1767.07 31.9913H1831V43.2886H1763.12C1753.41 43.2886 1745.08 45.3041 1738.12 49.3351C1731.26 53.26 1725.88 58.1926 1721.98 64.133C1718.18 70.0734 1715.7 76.0138 1714.54 81.9542H1831V87.2051C1831 96.8582 1828.1 106.034 1822.3 114.732C1816.6 123.325 1808.64 130.273 1798.4 135.577C1788.17 140.775 1776.67 143.374 1763.91 143.374H1699.99V132.076H1768.34C1778.05 132.076 1786.38 130.061 1793.34 126.03C1800.3 121.999 1805.68 117.013 1809.48 111.073C1813.28 105.132 1815.76 99.1919 1816.92 93.2515H1699.99V88.1598Z" fill="#FFFFFF"/>
<path d="M163.064 81.1005C163.064 86.7367 162.49 92.2602 161.405 97.5931C159.746 105.755 156.868 113.479 152.99 120.575C150.743 124.716 148.126 128.624 145.227 132.285C139.867 139.064 133.48 144.982 126.284 149.8C119.818 154.145 112.701 157.623 105.115 160.049C97.1039 162.61 88.5753 163.979 79.7277 163.979H79.7633V164H0V139.311H79.7703C92.7014 139.311 104.661 135.114 114.353 128.017C118.358 125.097 121.967 121.661 125.107 117.845C130.254 111.581 134.111 104.217 136.266 96.1891C137.563 91.3712 138.251 86.3205 138.251 81.1005H163.064Z" fill="#FFFFFF"/>
<path d="M81.5426 69.6179C88.4023 69.618 93.9632 75.1512 93.9632 81.9767C93.9631 88.8022 88.4023 94.3354 81.5426 94.3355C74.6829 94.3355 69.1217 88.8022 69.1217 81.9767C69.1217 75.1512 74.6829 69.6179 81.5426 69.6179Z" fill="#FFFFFF"/>
<path d="M163.085 24.6893H83.315C51.0581 24.6893 24.8128 50.8035 24.8128 82.8995H0C0 37.1751 37.3684 0 83.315 0H163.085V24.6893Z" fill="#FFFFFF"/>
</g>
</svg>
