<svg width="1625" height="380" viewBox="0 0 1625 380" fill="none" xmlns="http://www.w3.org/2000/svg">
<path d="M1315.42 346.101V368.156L1301.99 379.343L1292.4 371.193L1309.34 356.969L1292.4 343.065L1301.99 334.914L1315.42 346.101Z" fill="#FFFFFF"/>
<path fill-rule="evenodd" clip-rule="evenodd" d="M427.353 238.547L427.833 333.157H414.088V280.099H325.232V333.317H311.168V278.02C311.168 267.686 314.311 258.257 320.597 249.734C326.883 241.104 335.14 234.285 345.368 229.277C355.703 224.27 366.624 221.766 378.13 221.766H407.856L427.353 238.547ZM371.897 233.113C364.866 233.113 358.154 234.818 351.762 238.227C345.476 241.53 340.095 245.898 335.62 251.332C331.252 256.766 328.215 262.572 326.511 268.752H414.088V233.113H371.897Z" fill="#FFFFFF"/>
<path d="M1081.22 238.227C1080.15 245.259 1076.96 252.185 1071.63 259.003C1066.41 265.715 1059.48 271.415 1050.85 276.103C1042.33 280.791 1032.95 283.668 1022.73 284.733L1081.06 333.157H1061.56L997.315 279.619V274.345H1012.34C1024.38 274.345 1034.55 272.108 1042.86 267.633C1051.28 263.158 1057.51 257.724 1061.56 251.332C1065.61 244.94 1067.63 238.813 1067.63 232.953H977.658V333.317H964.073V221.447H1060.92L1081.22 238.227Z" fill="#FFFFFF"/>
<path fill-rule="evenodd" clip-rule="evenodd" d="M1208.86 238.547L1209.34 333.157H1195.59V280.099H1106.74V333.317H1092.67V278.02C1092.67 267.686 1095.82 258.257 1102.1 249.734C1108.39 241.104 1116.65 234.285 1126.87 229.277C1137.21 224.27 1148.13 221.766 1159.64 221.766H1189.36L1208.86 238.547ZM1153.4 233.113C1146.37 233.113 1139.66 234.818 1133.27 238.227C1126.98 241.53 1121.6 245.898 1117.12 251.332C1112.76 256.766 1109.72 262.572 1108.02 268.752H1195.59V233.113H1153.4Z" fill="#FFFFFF"/>
<path fill-rule="evenodd" clip-rule="evenodd" d="M1480.89 238.547L1481.36 333.157H1467.62V280.099H1378.76V333.317H1364.7V278.02C1364.7 267.686 1367.84 258.257 1374.13 249.734C1380.42 241.104 1388.67 234.285 1398.9 229.277C1409.24 224.27 1420.16 221.766 1431.66 221.766H1461.39L1480.89 238.547ZM1425.43 233.113C1418.4 233.113 1411.69 234.818 1405.29 238.227C1399.01 241.53 1393.63 245.899 1389.15 251.332C1384.78 256.766 1381.75 262.572 1380.04 268.752H1467.62V233.113H1425.43Z" fill="#FFFFFF"/>
<path d="M699.38 233.433H596.78V271.628H679.084V281.856H597.579C597.579 286.97 599.87 292.671 604.451 298.956C609.032 305.242 615.318 310.623 623.309 315.098C631.406 319.466 640.409 321.65 650.318 321.65H699.38V333.157H651.117C637.373 333.157 625.333 330.387 614.999 324.846C604.664 319.306 596.78 312.434 591.346 304.23C585.913 295.92 583.195 287.929 583.195 280.258V238.067L603.172 221.926H699.38V233.433Z" fill="#FFFFFF"/>
<path d="M724.759 242.223L724.6 282.975C724.6 287.237 726.624 292.51 730.673 298.796C734.828 304.976 740.634 310.41 748.092 315.098C755.657 319.679 764.393 321.97 774.302 321.97H828.319V333.157H778.777C765.992 333.157 754.379 330.493 743.938 325.166C733.603 319.732 725.506 312.753 719.646 304.23C713.893 295.6 711.015 286.704 711.015 277.542V221.606H724.759V242.223Z" fill="#FFFFFF"/>
<path d="M952.438 233.433H849.838V271.628H932.142V281.856H850.637C850.637 286.97 852.927 292.671 857.509 298.956C862.09 305.242 868.376 310.623 876.367 315.098C884.464 319.466 893.467 321.65 903.375 321.65H952.438V333.157H904.175C890.431 333.157 878.391 330.387 868.056 324.846C857.722 319.306 849.838 312.434 844.404 304.23C838.97 295.92 836.253 287.929 836.253 280.258V238.067L856.23 221.926H952.438V233.433Z" fill="#FFFFFF"/>
<path fill-rule="evenodd" clip-rule="evenodd" d="M1625 238.227V276.742C1625 287.077 1621.86 296.559 1615.57 305.189C1609.28 313.713 1600.97 320.478 1590.64 325.485C1580.41 330.493 1569.54 332.996 1558.04 332.996H1512.65L1492.83 316.217V277.701C1492.83 267.366 1495.98 257.937 1502.26 249.414C1508.55 240.784 1516.8 233.965 1527.03 228.958C1537.37 223.95 1548.29 221.447 1559.79 221.447H1605.18L1625 238.227ZM1559.96 232.474C1550.37 232.474 1541.47 234.551 1533.27 238.706C1525.06 242.861 1518.51 248.402 1513.61 255.327C1508.81 262.253 1506.42 269.658 1506.42 277.542V321.97H1557.88C1567.47 321.97 1576.36 319.892 1584.57 315.737C1592.77 311.582 1599.27 306.041 1604.06 299.116C1608.96 292.191 1611.41 284.786 1611.41 276.902V232.474H1559.96Z" fill="#FFFFFF"/>
<path d="M571.627 232.794H509.14C497.74 232.794 487.778 234.978 479.254 239.346C470.731 243.714 464.179 249.308 459.597 256.127C455.123 262.945 452.885 269.87 452.885 276.902C452.885 283.827 455.122 290.699 459.597 297.518C464.179 304.337 470.731 309.983 479.254 314.458C487.778 318.826 497.74 321.01 509.14 321.01H571.627V332.518H507.061C494.276 332.518 482.663 329.854 472.222 324.527C461.888 319.093 453.791 312.114 447.931 303.591C442.177 294.961 439.3 286.064 439.3 276.902C439.3 267.739 442.178 258.896 447.931 250.373C453.791 241.743 461.888 234.764 472.222 229.437C482.663 224.004 494.276 221.287 507.061 221.287H571.627V232.794Z" fill="#FFFFFF"/>
<path d="M1353.13 232.794H1290.64C1279.24 232.794 1269.28 234.978 1260.76 239.346C1252.24 243.714 1245.68 249.308 1241.1 256.127C1236.63 262.945 1234.39 269.87 1234.39 276.902C1234.39 283.827 1236.63 290.699 1241.1 297.518C1245.68 304.337 1252.24 309.983 1260.76 314.458C1269.28 318.826 1279.24 321.01 1290.64 321.01H1353.13V332.518H1288.57C1275.78 332.518 1264.17 329.854 1253.73 324.527C1243.39 319.093 1235.3 312.114 1229.44 303.591C1223.68 294.961 1220.81 286.064 1220.81 276.902C1220.81 267.739 1223.68 258.896 1229.44 250.373C1235.3 241.743 1243.39 234.765 1253.73 229.437C1264.17 224.004 1275.78 221.287 1288.57 221.287H1353.13V232.794Z" fill="#FFFFFF"/>
<path d="M1448.28 203.547L1461.71 192.52L1471.3 200.671L1458.03 211.858H1439.33L1431.18 205.305L1418.56 194.598L1401.14 208.662L1392.03 200.671L1405.29 189.804H1431.66L1448.28 203.547Z" fill="#FFFFFF"/>
<path d="M14.3173 158.305H14.2167L14.2665 158.255L14.3173 158.305Z" fill="#FFFFFF"/>
<path d="M45.9399 98.7564C72.3887 72.6189 115.429 72.619 141.889 98.7564L187.829 144.156L173.512 158.305L127.572 112.906C109.006 94.5587 78.7778 94.5035 60.1566 112.906L14.2665 158.255L0 144.156L45.9399 98.7564Z" fill="#FFFFFF"/>
<path d="M530.838 48.444L531.318 143.054H512.14V48.6033H476.501C467.871 48.6033 459.88 50.4145 452.529 54.0369C445.284 57.6593 439.531 62.5079 435.27 68.5809C431.115 74.5472 429.037 80.9396 429.037 87.7583V143.214H409.858V87.9175C409.858 80.14 411.723 72.8952 415.452 66.1831C419.181 59.4709 424.349 53.6108 430.955 48.6033H377.737C369.426 48.6033 361.648 50.4146 354.404 54.0369C347.265 57.6593 341.565 62.5079 337.304 68.5809C333.148 74.5472 331.071 80.9396 331.071 87.7583V143.214H311.893V87.9175C311.893 77.583 315.036 68.154 321.322 59.6307C327.608 51.0009 335.865 44.1818 346.093 39.1744C356.428 34.167 367.349 31.6635 378.855 31.6635H511.341L530.838 48.444Z" fill="#FFFFFF"/>
<path fill-rule="evenodd" clip-rule="evenodd" d="M659.059 48.444L659.538 143.054H640.361V92.3926H562.211V143.214H542.874V87.9175C542.874 77.5831 546.017 68.154 552.303 59.6307C558.589 51.0008 566.846 44.1819 577.074 39.1744C587.408 34.1669 598.329 31.6635 609.836 31.6635H639.562L659.059 48.444ZM608.877 48.6033C602.165 48.6033 595.773 49.8287 589.7 52.2791C583.627 54.623 578.406 57.9261 574.038 62.1878C569.67 66.3429 566.473 71.0306 564.449 76.251H640.361V48.6033H608.877Z" fill="#FFFFFF"/>
<path d="M803.332 48.2838H739.726C730.564 48.2838 722.626 49.7757 715.914 52.7589C709.202 55.742 703.874 59.5245 699.932 64.1058C695.99 68.6871 693.22 73.5349 691.622 78.6488H803.332V86.7987C803.332 96.4941 800.402 105.711 794.542 114.447C788.789 123.077 780.745 130.056 770.411 135.383C760.076 140.603 748.462 143.214 735.571 143.214H671.006V126.273H734.612C743.881 126.273 751.926 124.781 758.744 121.798C765.563 118.708 770.943 114.873 774.885 110.292C778.827 105.604 781.544 100.65 783.036 95.4294H671.006V87.7583C671.006 78.0629 673.883 68.8997 679.636 60.2697C685.496 51.5334 693.593 44.5551 703.928 39.3346C714.262 34.0075 725.876 31.3439 738.768 31.3439H803.332V48.2838Z" fill="#FFFFFF"/>
<path d="M834.559 143.214H815.541V31.3439H834.559V143.214Z" fill="#FFFFFF"/>
<path d="M14.3173 79.1511H14.2167L14.2665 79.1012L14.3173 79.1511Z" fill="#FFFFFF"/>
<path d="M45.9399 19.6032C72.3887 -6.53445 115.429 -6.53436 141.889 19.6032L187.829 65.0028L173.512 79.1511L127.572 33.7515C109.006 15.4049 78.7777 15.3496 60.1566 33.7515L14.2665 79.1012L0 65.0028L45.9399 19.6032Z" fill="#FFFFFF"/>
</svg>
