<svg width="2073" height="171" viewBox="0 0 2073 171" fill="none" xmlns="http://www.w3.org/2000/svg">
<path d="M67.3212 133.929C87.7308 153.653 120.962 153.713 141.433 133.929L191.881 85.1744L207.565 100.332L157.062 149.14C127.986 177.24 80.6701 177.24 51.5818 149.14L1.07903 100.332L16.8184 85.1212L67.3212 133.929Z" fill="#F54A00"/>
<path d="M104.306 62.6098C117.019 62.6098 127.325 72.6885 127.325 85.1212C127.325 97.5539 117.019 107.633 104.306 107.633C91.5928 107.633 81.2867 97.5539 81.2867 85.1212C81.2867 72.6885 91.5928 62.6098 104.306 62.6098Z" fill="#F54A00"/>
<path d="M191.881 85.1744L191.826 85.1212H191.936L191.881 85.1744Z" fill="#F54A00"/>
<path d="M15.7393 85.0937H15.629L15.6838 85.0401L15.7393 85.0937Z" fill="#F54A00"/>
<path d="M50.5032 21.0749C79.5792 -7.02495 126.895 -7.02499 155.983 21.0749L206.486 69.883L190.747 85.0937L140.244 36.286C119.834 16.5615 86.6031 16.5024 66.1322 36.286L15.6838 85.0401L0 69.883L50.5032 21.0749Z" fill="#F54A00"/>
<path d="M329.413 90.3318C329.413 79.9995 332.555 70.5726 338.84 62.0511C345.125 53.4231 353.38 46.6059 363.605 41.5995C373.938 36.5931 384.856 34.0899 396.36 34.0899H528.816L548.309 50.8666L548.788 145.455H529.615V51.0264H493.984C485.356 51.0264 477.367 52.8372 470.018 56.4588C462.774 60.0805 457.022 64.9271 452.762 70.9987C448.607 76.9637 446.53 83.3548 446.53 90.172V145.615H427.357V90.3318C427.357 82.5559 429.221 75.3127 432.949 68.602C436.677 61.8913 441.843 56.0328 448.448 51.0264H395.242C386.933 51.0264 379.157 52.8372 371.914 56.4588C364.777 60.0805 359.078 64.9271 354.818 70.9987C350.663 76.9637 348.586 83.3548 348.586 90.172V145.615H329.413V90.3318Z" fill="#F54A00"/>
<path d="M657.807 145.455V94.8056H579.675V145.615H560.342V90.3318C560.342 79.9995 563.485 70.5726 569.769 62.0511C576.054 53.4231 584.309 46.6059 594.535 41.5995C604.867 36.5931 615.785 34.0899 627.289 34.0899H657.008L676.501 50.8666L676.98 145.455H657.807ZM657.807 78.668V51.0264H626.331C619.62 51.0264 613.229 52.2514 607.157 54.7013C601.086 57.0447 595.866 60.3468 591.499 64.6075C587.132 68.7618 583.936 73.4486 581.912 78.668H657.807Z" fill="#F54A00"/>
<path d="M688.446 90.172C688.446 80.4788 691.322 71.3182 697.074 62.6902C702.932 53.9557 711.028 46.9787 721.36 41.7593C731.692 36.4333 743.303 33.7704 756.191 33.7704H820.742V50.7068H757.15C747.99 50.7068 740.054 52.1981 733.343 55.1806C726.633 58.1631 721.307 61.9446 717.365 66.5249C713.424 71.1052 710.655 75.9518 709.057 81.0647H820.742V89.2134C820.742 98.9066 817.813 108.12 811.954 116.855C806.202 125.483 798.16 132.46 787.828 137.786C777.495 143.005 765.885 145.615 752.996 145.615H688.446V128.679H752.037C761.304 128.679 769.347 127.187 776.164 124.205C782.981 121.116 788.36 117.281 792.301 112.701C796.243 108.014 798.959 103.061 800.45 97.8414H688.446V90.172Z" fill="#F54A00"/>
<path d="M832.947 33.7704H851.961V145.615H832.947V33.7704Z" fill="#F54A00"/>
<path d="M978.7 145.775C967.196 145.775 956.278 143.272 945.945 138.265C935.719 133.259 927.464 126.495 921.18 117.973C914.895 109.345 911.753 99.8652 911.753 89.5329V34.2497H925.334V89.6927C925.334 96.6164 927.464 103.54 931.725 110.464C935.986 117.388 941.685 123.086 948.821 127.56C956.065 132.034 963.734 134.271 971.829 134.271H1014.65V93.6871C1014.44 92.7285 1014.33 91.3437 1014.33 89.5329V34.2497H1028.39V89.6927C1028.39 100.345 1030.41 108.973 1034.46 115.577C1038.62 122.181 1044.1 126.921 1050.92 129.797C1057.84 132.673 1065.83 134.111 1074.89 134.111H1115.79V34.4095H1129.69V34.0899L1129.37 128.998L1109.88 145.775H1074.89C1066.26 145.775 1057.79 144.337 1049.48 141.461C1041.28 138.478 1034.04 134.377 1027.75 129.158L1008.42 145.775H978.7Z" fill="#F54A00"/>
<path d="M1141.12 128.519V90.0122C1141.12 79.6799 1144.26 70.253 1150.55 61.7315C1156.83 53.1035 1165.09 46.2863 1175.31 41.2799C1185.65 36.2735 1196.56 33.7704 1208.07 33.7704H1253.45L1273.26 50.5471V89.0536C1273.26 99.3859 1270.12 108.866 1263.83 117.494C1257.55 126.016 1249.24 132.78 1238.91 137.786C1228.68 142.792 1217.82 145.295 1206.31 145.295H1160.93L1141.12 128.519ZM1206.15 134.271C1215.74 134.271 1224.63 132.194 1232.83 128.039C1241.04 123.885 1247.53 118.346 1252.33 111.423C1257.23 104.499 1259.68 97.0958 1259.68 89.2134V44.795H1208.23C1198.64 44.795 1189.75 46.8722 1181.55 51.0264C1173.34 55.1806 1166.79 60.7196 1161.89 67.6433C1157.1 74.567 1154.7 81.9701 1154.7 89.8525V134.271H1206.15Z" fill="#F54A00"/>
<path d="M1284.83 33.7704H1381.65L1401.95 50.5471C1400.88 57.5773 1397.68 64.501 1392.36 71.3182C1387.14 78.0289 1380.22 83.7276 1371.59 88.4145C1363.07 93.1013 1353.69 95.9773 1343.47 97.0425L1401.79 145.455H1382.29L1318.06 91.9296V86.6569H1333.08C1345.12 86.6569 1355.29 84.42 1363.6 79.9462C1372.01 75.4724 1378.25 70.04 1382.29 63.6489C1386.34 57.2577 1388.36 51.1329 1388.36 45.2744H1298.41V145.615H1284.83V33.7704Z" fill="#F54A00"/>
<path d="M1413.4 33.7704H1426.98V84.1005L1453.66 83.9407C1463.57 83.8342 1472.52 82.1299 1480.51 78.8278C1488.6 75.4192 1494.99 70.3596 1499.68 63.6489C1504.47 56.9382 1506.87 48.7362 1506.87 39.043V33.7704H1520.45V40.8006C1520.45 50.1742 1517.95 58.749 1512.94 66.5249C1508.04 74.1942 1501.33 80.5853 1492.81 85.6982C1500.27 88.8938 1506.82 93.1546 1512.46 98.4805C1518.21 103.7 1522.63 109.558 1525.72 116.056C1528.92 122.447 1530.52 128.945 1530.52 135.549V145.615H1516.94V135.549C1516.94 130.01 1515.07 124.045 1511.34 117.654C1507.72 111.156 1501.7 105.617 1493.29 101.037C1484.87 96.3501 1474.01 94.0067 1460.69 94.0067H1426.98V145.615H1413.4V33.7704Z" fill="#F54A00"/>
<path d="M1541.97 90.172C1541.97 80.4788 1544.85 71.3182 1550.6 62.6902C1556.46 53.9557 1564.55 46.9787 1574.89 41.7593C1585.22 36.4333 1596.83 33.7704 1609.72 33.7704H1674.27V45.1146H1605.72C1595.92 45.1146 1587.51 47.1385 1580.48 51.1862C1573.55 55.1274 1568.12 60.0805 1564.18 66.0455C1560.35 72.0106 1557.84 77.9756 1556.67 83.9407H1674.27V89.2134C1674.27 98.9066 1671.34 108.12 1665.48 116.855C1659.73 125.483 1651.69 132.46 1641.35 137.786C1631.02 143.005 1619.41 145.615 1606.52 145.615H1541.97V134.271H1611C1620.8 134.271 1629.21 132.247 1636.24 128.199C1643.27 124.152 1648.7 119.145 1652.54 113.18C1656.37 107.215 1658.88 101.25 1660.05 95.2849H1541.97V90.172Z" fill="#F54A00"/>
<path d="M1685.83 33.7704H1699.57V84.42H1789.05V33.7704H1802.63V145.615H1789.05V94.0067H1699.57V145.615H1685.83V33.7704Z" fill="#F54A00"/>
<path d="M1814.09 128.519V90.0122C1814.09 79.6799 1817.24 70.253 1823.52 61.7315C1829.8 53.1035 1838.06 46.2863 1848.29 41.2799C1858.62 36.2735 1869.54 33.7704 1881.04 33.7704H1926.42L1946.23 50.5471V89.0536C1946.23 99.3859 1943.09 108.866 1936.8 117.494C1930.52 126.016 1922.21 132.78 1911.88 137.786C1901.65 142.792 1890.79 145.295 1879.28 145.295H1833.91L1814.09 128.519ZM1879.12 134.271C1888.71 134.271 1897.6 132.194 1905.81 128.039C1914.01 123.885 1920.51 118.346 1925.3 111.423C1930.2 104.499 1932.65 97.0958 1932.65 89.2134V44.795H1881.2C1871.61 44.795 1862.72 46.8722 1854.52 51.0264C1846.32 55.1806 1839.76 60.7196 1834.86 67.6433C1830.07 74.567 1827.67 81.9701 1827.67 89.8525V134.271H1879.12Z" fill="#F54A00"/>
<path d="M1957.8 33.7704H2053.67L2073 50.5471C2071.3 58.8555 2067.41 66.6314 2061.34 73.8747C2055.26 81.1179 2047.44 86.9232 2037.85 91.2905C2028.37 95.5512 2017.88 97.6816 2006.37 97.6816L1971.38 97.5218V145.615H1957.8V33.7704ZM2004.14 86.0178C2013.72 86.0178 2022.83 84.0472 2031.46 80.106C2040.19 76.0583 2047.22 70.8921 2052.55 64.6075C2057.87 58.2164 2060.54 51.7188 2060.54 45.1146H1971.38V86.0178H2004.14Z" fill="#F54A00"/>
</svg>
