<svg width="1747" height="165" viewBox="0 0 1747 165" fill="none" xmlns="http://www.w3.org/2000/svg">
<path d="M177.42 12.6157C166.771 17.7466 137.885 27.8518 99.6961 11.0586C40.5904 -14.9408 4.99878 12.8978 3.50845 14.0995L0 16.9211V140.168L0.031047 154.422L13.0092 148.81C13.1955 148.726 22.7066 144.714 36.7198 142.853C36.8232 142.853 36.9165 142.833 37.0199 142.822C52.2233 140.837 72.6634 141.411 92.2963 152.185C108.607 161.141 125.332 164.088 140.286 164.088C159.64 164.088 176.034 159.144 184.665 155.915L190.74 153.638V6.20984L177.42 12.6157ZM172.111 140.346C156.576 145.132 127.898 150.325 101.197 135.664C83.6441 126.029 65.9052 123.009 50.5259 123.009C45.7755 123.009 41.2425 123.301 37.0199 123.772V20.0874C50.0913 17.6213 68.7512 17.9661 92.2548 28.301C126.398 43.3176 154.714 39.9527 172.111 34.7173V140.346Z" fill="#5C00FF"/>
<path d="M311.771 78.1692C311.771 67.8386 314.913 58.4133 321.197 49.8932C327.48 41.2666 335.734 34.4505 345.958 29.4449C356.289 24.4394 367.205 21.9366 378.707 21.9366H511.141L530.631 38.7105L531.11 133.284H511.94V38.8703H476.315C467.689 38.8703 459.701 40.6808 452.353 44.3018C445.111 47.9229 439.36 52.7687 435.099 58.8393C430.946 64.8033 428.869 71.1934 428.869 78.0095V133.443H409.699V78.1692C409.699 70.3946 411.563 63.1526 415.29 56.443C419.018 49.7334 424.183 43.8758 430.786 38.8703H377.589C369.282 38.8703 361.507 40.6808 354.265 44.3018C347.13 47.9229 341.432 52.7687 337.172 58.8393C333.018 64.8033 330.941 71.1934 330.941 78.0095V133.443H311.771V78.1692Z" fill="#5C00FF"/>
<path d="M640.111 133.284V82.6423H561.992V133.443H542.662V78.1692C542.662 67.8386 545.804 58.4133 552.088 49.8932C558.371 41.2666 566.625 34.4505 576.849 29.4449C587.18 24.4394 598.096 21.9366 609.598 21.9366H639.312L658.802 38.7105L659.281 133.284H640.111ZM640.111 66.5073V38.8703H608.64C601.93 38.8703 595.54 40.0951 589.47 42.5446C583.399 44.8876 578.18 48.1891 573.814 52.4492C569.447 56.6027 566.252 61.2888 564.229 66.5073H640.111Z" fill="#5C00FF"/>
<path d="M670.745 78.0095C670.745 68.3179 673.62 59.1588 679.371 50.5322C685.229 41.7991 693.323 34.8232 703.653 29.6047C713.984 24.2796 725.593 21.6171 738.479 21.6171H803.019V38.5508H739.438C730.279 38.5508 722.344 40.0418 715.635 43.0238C708.925 46.0059 703.6 49.7867 699.66 54.3662C695.719 58.9458 692.95 63.7916 691.352 68.9036H803.019V77.051C803.019 86.7426 800.09 95.9549 794.233 104.688C788.481 113.315 780.441 120.29 770.11 125.615C759.779 130.834 748.171 133.443 735.284 133.443H670.745V116.51H734.326C743.591 116.51 751.632 115.019 758.448 112.037C765.264 108.948 770.643 105.114 774.583 100.534C778.524 95.8484 781.239 90.8961 782.73 85.6775H670.745V78.0095Z" fill="#5C00FF"/>
<path d="M815.222 21.6171H834.233V133.443H815.222V21.6171Z" fill="#5C00FF"/>
<path d="M996.895 133.284V80.246H908.073V133.443H894.015V78.1692C894.015 67.8386 897.156 58.4133 903.44 49.8932C909.724 41.2666 917.977 34.4505 928.202 29.4449C938.532 24.4394 949.449 21.9366 960.951 21.9366H990.665L1010.15 38.7105L1010.63 133.284H996.895ZM996.895 68.9036V33.279H954.72C947.691 33.279 940.982 34.983 934.592 38.391C928.308 41.6926 922.93 46.0591 918.457 51.4907C914.09 56.9222 911.055 62.7265 909.351 68.9036H996.895Z" fill="#5C00FF"/>
<path d="M1022.1 21.4574H1086.64C1099.42 21.4574 1110.97 24.1731 1121.3 29.6047C1131.74 34.9297 1139.83 41.9056 1145.59 50.5322C1151.44 59.0523 1154.37 67.8919 1154.37 77.051C1154.37 86.2101 1151.44 95.1029 1145.59 103.73C1139.83 112.25 1131.74 119.225 1121.3 124.657C1110.97 129.982 1099.42 132.645 1086.64 132.645H1022.1V21.4574ZM1084.56 121.302C1095.96 121.302 1105.91 119.066 1114.43 114.593C1122.95 110.12 1129.45 104.475 1133.92 97.6589C1138.5 90.7364 1140.79 83.867 1140.79 77.051C1140.79 70.3414 1138.5 63.5253 1133.92 56.6027C1129.45 49.6802 1122.95 43.9824 1114.43 39.5093C1105.91 34.9297 1095.96 32.64 1084.56 32.64H1033.44V121.302H1084.56Z" fill="#5C00FF"/>
<path d="M1165.94 58.6795V21.7769H1179.99V58.2003L1232.23 129.609L1284.79 57.721V21.9366H1299.01V58.36L1246.77 133.443H1217.86L1165.94 58.6795Z" fill="#5C00FF"/>
<path d="M1313.91 21.6171H1327.49V133.443H1313.91V21.6171Z" fill="#5C00FF"/>
<path d="M1342.38 78.0095C1342.38 68.3179 1345.26 59.1588 1351.01 50.5322C1356.86 41.7991 1364.96 34.8232 1375.29 29.6047C1385.62 24.2796 1397.23 21.6171 1410.12 21.6171H1474.65V32.9595H1406.12C1396.32 32.9595 1387.91 34.983 1380.88 39.03C1373.96 42.9706 1368.53 47.9229 1364.59 53.887C1360.75 59.851 1358.25 65.8151 1357.08 71.7792H1474.65V77.051C1474.65 86.7426 1471.73 95.9549 1465.87 104.688C1460.12 113.315 1452.08 120.29 1441.75 125.615C1431.42 130.834 1419.81 133.443 1406.92 133.443H1342.38V122.101H1411.39C1421.19 122.101 1429.6 120.077 1436.63 116.03C1443.66 111.983 1449.09 106.978 1452.93 101.014C1456.76 95.0497 1459.27 89.0856 1460.44 83.1215H1342.38V78.0095Z" fill="#5C00FF"/>
<path d="M1486.22 116.35V77.8497C1486.22 67.5191 1489.36 58.0937 1495.64 49.5737C1501.93 40.9471 1510.18 34.131 1520.41 29.1254C1530.74 24.1199 1541.65 21.6171 1553.16 21.6171H1598.52L1618.33 38.391V76.8912C1618.33 87.2218 1615.19 96.7004 1608.91 105.327C1602.63 113.847 1594.32 120.61 1583.99 125.615C1573.76 130.621 1562.9 133.124 1551.4 133.124H1506.03L1486.22 116.35ZM1551.24 122.101C1560.82 122.101 1569.72 120.024 1577.92 115.871C1586.12 111.717 1592.61 106.179 1597.41 99.2564C1602.31 92.3339 1604.76 84.932 1604.76 77.051V32.64H1553.32C1543.73 32.64 1534.84 34.7167 1526.64 38.8703C1518.44 43.0238 1511.89 48.5619 1506.99 55.4845C1502.19 62.407 1499.8 69.8089 1499.8 77.69V122.101H1551.24Z" fill="#5C00FF"/>
<path d="M1629.9 21.6171H1726.71L1747 38.391C1745.94 45.4201 1742.74 52.3427 1737.42 59.1588C1732.2 65.8683 1725.27 71.5661 1716.65 76.2522C1708.13 80.9382 1698.76 83.8138 1688.53 84.8788L1746.84 133.284H1727.35L1663.13 79.7667V74.4949H1678.15C1690.18 74.4949 1700.35 72.2584 1708.66 67.7854C1717.07 63.3123 1723.3 57.8808 1727.35 51.4907C1731.4 45.1006 1733.42 38.9768 1733.42 33.1192H1643.48V133.443H1629.9V21.6171Z" fill="#5C00FF"/>
</svg>
