<svg width="1490" height="335" viewBox="0 0 1490 335" fill="none" xmlns="http://www.w3.org/2000/svg">
<path d="M342.605 278.927C342.605 285.849 344.734 292.771 348.994 299.693C353.254 306.615 358.951 312.312 366.086 316.785C373.328 321.258 380.995 323.495 389.089 323.495H431.899V282.92C431.686 281.962 431.58 280.577 431.58 278.767V223.497H445.637V278.927C445.637 289.576 447.661 298.202 451.707 304.805C455.861 311.407 461.345 316.146 468.161 319.022C475.083 321.897 483.07 323.335 492.122 323.335H533.015V223.657H546.911L546.593 318.223L527.105 334.996H492.122C483.496 334.996 475.03 333.558 466.723 330.683C458.523 327.701 451.281 323.601 444.998 318.383L425.669 334.996H395.958C384.456 334.996 373.541 332.493 363.211 327.488C352.988 322.483 344.734 315.721 338.451 307.201C332.168 298.575 329.027 289.097 329.027 278.767V223.497H342.605V278.927ZM819.104 239.791C818.039 246.819 814.844 253.741 809.519 260.557C804.301 267.266 797.379 272.964 788.753 277.649C780.234 282.335 770.862 285.21 760.639 286.275L818.944 334.676H799.456L735.24 281.163V275.892H750.256C762.289 275.892 772.46 273.655 780.766 269.183C789.179 264.71 795.409 259.279 799.456 252.889C803.503 246.5 805.526 240.376 805.526 234.519H715.592V334.836H702.015V223.018H798.817L819.104 239.791ZM844.133 273.336L870.81 273.176C880.714 273.07 889.66 271.366 897.647 268.064C905.74 264.657 912.129 259.598 916.815 252.889C921.607 246.18 924.003 237.98 924.003 228.289V223.018H937.581V230.047C937.581 239.418 935.079 247.991 930.074 255.765C925.175 263.432 918.466 269.821 909.946 274.933C917.401 278.128 923.95 282.388 929.594 287.712C935.345 292.931 939.765 298.788 942.853 305.284C946.048 311.674 947.645 318.17 947.645 324.772V334.836H934.067V324.772C934.067 319.235 932.203 313.271 928.476 306.881C924.855 300.385 918.839 294.847 910.426 290.268C902.013 285.583 891.15 283.239 877.838 283.239H844.133V334.836H830.555V223.018H844.133V273.336ZM1091.36 234.36H1022.83C1013.04 234.36 1004.62 236.383 997.594 240.429C990.672 244.37 985.241 249.322 981.301 255.285C977.467 261.249 974.964 267.213 973.792 273.176H1091.36V278.448C1091.36 288.139 1088.43 297.351 1082.58 306.083C1076.82 314.709 1068.79 321.684 1058.46 327.009C1048.13 332.227 1036.52 334.836 1023.63 334.836H959.097V323.495H1028.1C1037.9 323.495 1046.32 321.471 1053.34 317.424C1060.37 313.377 1065.8 308.372 1069.64 302.409C1073.47 296.445 1075.97 290.481 1077.14 284.518H959.097V279.406C959.097 269.715 961.972 260.556 967.723 251.93C973.58 243.198 981.673 236.223 992.003 231.005C1002.33 225.68 1013.94 223.018 1026.83 223.018H1091.36V234.36ZM1116.66 273.656H1206.12V223.018H1219.7V334.836H1206.12V283.239H1116.66V334.836H1102.93V223.018H1116.66V273.656ZM1490 239.791C1488.3 248.097 1484.41 255.871 1478.34 263.113C1472.27 270.354 1464.44 276.158 1454.86 280.524C1445.38 284.784 1434.89 286.914 1423.39 286.914L1388.41 286.754V334.836H1374.83V223.018H1470.67L1490 239.791ZM690.447 239.791V278.288C690.447 288.618 687.305 298.096 681.022 306.722C674.739 315.241 666.432 322.003 656.103 327.009C645.879 332.014 635.016 334.516 623.515 334.516H578.149L558.342 317.744V279.246C558.342 268.916 561.483 259.492 567.766 250.972C574.05 242.346 582.303 235.53 592.526 230.525C602.856 225.52 613.772 223.018 625.273 223.018H670.639L690.447 239.791ZM1363.26 239.791V278.288C1363.26 288.618 1360.12 298.096 1353.84 306.722C1347.55 315.241 1339.25 322.003 1328.92 327.009C1318.69 332.014 1307.83 334.516 1296.33 334.516H1250.96L1231.15 317.744V279.246C1231.16 268.916 1234.3 259.492 1240.58 250.972C1246.86 242.346 1255.12 235.53 1265.34 230.525C1275.67 225.52 1286.58 223.018 1298.09 223.018H1343.45L1363.26 239.791ZM625.432 234.04C615.848 234.04 606.955 236.116 598.755 240.269C590.555 244.422 584.006 249.961 579.107 256.883C574.315 263.805 571.919 271.206 571.919 279.087V323.495H623.356C632.94 323.495 641.833 321.418 650.033 317.265C658.233 313.112 664.729 307.574 669.521 300.652C674.419 293.73 676.869 286.328 676.869 278.448V234.04H625.432ZM1298.25 234.04C1288.66 234.04 1279.77 236.116 1271.57 240.269C1263.37 244.422 1256.82 249.961 1251.92 256.883C1247.13 263.805 1244.73 271.206 1244.73 279.087V323.495H1296.17C1305.75 323.495 1314.65 321.418 1322.85 317.265C1331.05 313.112 1337.54 307.574 1342.33 300.652C1347.23 293.73 1349.68 286.328 1349.68 278.448V234.04H1298.25ZM1388.41 275.253H1421.15C1430.74 275.252 1439.84 273.283 1448.47 269.343C1457.2 265.296 1464.23 260.131 1469.55 253.847C1474.88 247.458 1477.54 240.962 1477.54 234.36H1388.41V275.253ZM67.3052 133.897C87.71 153.617 120.934 153.676 141.4 133.897L191.836 85.1542L207.517 100.309L157.025 149.105C127.956 177.198 80.651 177.198 51.5696 149.105L1.07919 100.309L16.8148 85.1005L67.3052 133.897ZM548.18 50.8545L548.659 145.421H529.49V51.0137H493.868C485.242 51.0137 477.255 52.8241 469.907 56.4448C462.666 60.0656 456.914 64.9111 452.655 70.9812C448.501 76.9448 446.426 83.3351 446.426 90.1507V145.58H427.256V90.3099C427.256 82.536 429.12 75.2945 432.847 68.5855C436.575 61.8764 441.739 56.0189 448.342 51.0137H395.148C386.842 51.0138 379.067 52.8241 371.826 56.4448C364.691 60.0656 358.993 64.9111 354.734 70.9812C350.58 76.9448 348.505 83.3351 348.505 90.1507V145.58H329.335V90.3099C329.335 79.9802 332.477 70.5555 338.76 62.0361C345.043 53.4102 353.296 46.5943 363.52 41.5891C373.849 36.584 384.765 34.0817 396.266 34.0817H528.691L548.18 50.8545ZM676.342 50.8545L676.821 145.421H657.652V94.7829H579.539V145.58H560.21V90.3099C560.21 79.9801 563.352 70.5555 569.635 62.0361C575.918 53.4101 584.171 46.5943 594.395 41.5891C604.724 36.584 615.64 34.0817 627.141 34.0817H656.854L676.342 50.8545ZM820.549 50.6944H756.972C747.814 50.6944 739.88 52.1856 733.17 55.1674C726.461 58.1492 721.137 61.9299 717.196 66.5091C713.256 71.0883 710.488 75.9338 708.89 81.0454H820.549V89.1916C820.549 98.8824 817.62 108.094 811.763 116.827C806.012 125.453 797.971 132.428 787.642 137.753C777.312 142.971 765.704 145.58 752.819 145.58H688.283V128.648H751.86C761.125 128.648 769.166 127.157 775.982 124.175C782.797 121.087 788.175 117.253 792.115 112.674C796.055 107.988 798.771 103.036 800.262 97.8183H688.283V90.1507C688.283 80.4597 691.159 71.3008 696.91 62.6748C702.767 53.9425 710.86 46.9674 721.19 41.7493C731.52 36.4247 743.127 33.7624 756.013 33.7623H820.549V50.6944ZM851.76 145.58H832.752V33.7623H851.76V145.58ZM104.282 62.5947C116.992 62.595 127.295 72.671 127.295 85.1005C127.295 97.5301 116.992 107.607 104.282 107.607C91.5717 107.607 81.2673 97.5302 81.2673 85.1005C81.2675 72.6709 91.5718 62.5947 104.282 62.5947ZM191.836 85.1542L191.781 85.1005H191.89L191.836 85.1542ZM15.7356 85.0731H15.6253L15.68 85.0194L15.7356 85.0731ZM50.4914 21.0699C79.5605 -7.02331 126.865 -7.02331 155.946 21.0699L206.438 69.8658L190.702 85.0731L140.211 36.2772C119.806 16.5576 86.5827 16.4983 66.1167 36.2772L15.68 85.0194L0 69.8658L50.4914 21.0699ZM626.183 51.0137C619.474 51.0137 613.085 52.2386 607.015 54.6878C600.945 57.0307 595.726 60.3323 591.36 64.592C586.994 68.7451 583.799 73.4307 581.775 78.6488H657.652V51.0137H626.183Z" fill="#FFFFFF"/>
</svg>
