<svg preserveAspectRatio="xMidYMid meet" overflow="visible" style="display: block;" viewBox="0 0 1253.58 331.729" fill="none" xmlns="http://www.w3.org/2000/svg">
<g id="Simbolo + Nome Vertical">
<path d="M324.21 220.664C335.602 220.664 346.362 223.157 356.488 228.143C366.72 233.128 374.949 239.917 381.173 248.51C387.397 256.996 390.508 266.384 390.508 276.674V331.729H377.375V276.515C377.375 269.195 375.213 262.141 370.888 255.352C366.563 248.457 359.916 242.835 350.95 238.485C341.984 234.136 330.908 231.962 317.723 231.962H288.449V331.729H275L275.316 237.372L294.778 220.664H324.21Z" fill="#AFF000"/>
<path d="M965.5 331.729H952.051V220.346H965.5V331.729Z" fill="#AFF000"/>
<path d="M1253.58 231.644H1185.7C1175.99 231.644 1167.66 233.659 1160.7 237.69C1153.84 241.615 1148.46 246.548 1144.56 252.488C1140.76 258.429 1138.28 264.369 1137.12 270.31H1253.58V275.56C1253.58 285.213 1250.68 294.389 1244.88 303.087C1239.18 311.679 1231.22 318.628 1220.98 323.932C1210.75 329.129 1199.25 331.729 1186.49 331.729H1122.56V320.431H1190.92C1200.62 320.431 1208.96 318.416 1215.92 314.385C1222.88 310.354 1228.26 305.368 1232.06 299.428C1235.86 293.487 1238.34 287.547 1239.5 281.606H1122.56V276.515C1122.56 266.862 1125.41 257.739 1131.11 249.146C1136.91 240.448 1144.93 233.5 1155.16 228.302C1165.39 222.998 1176.89 220.346 1189.65 220.346H1253.58V231.644Z" fill="#AFF000"/>
<path d="M516.896 232.28H415.312V270.31H496.8V280.492H416.103C416.103 285.584 418.371 291.26 422.907 297.519C427.443 303.777 433.667 309.134 441.578 313.589C449.595 317.938 458.508 320.113 468.318 320.113H516.896V331.569H469.11C455.503 331.569 443.582 328.811 433.35 323.295C423.118 317.779 415.311 310.937 409.932 302.77C404.552 294.495 401.862 286.539 401.862 278.901V236.895L421.641 220.823H516.896V232.28Z" fill="#AFF000"/>
<path fill-rule="evenodd" clip-rule="evenodd" d="M794.801 237.054V275.4C794.801 285.69 791.689 295.131 785.465 303.724C779.241 312.21 771.013 318.946 760.781 323.932C750.655 328.917 739.895 331.41 728.502 331.41H683.565L663.944 314.703V276.355C663.944 266.066 667.057 256.678 673.28 248.191C679.504 239.599 687.679 232.81 697.806 227.824C708.038 222.839 718.851 220.346 730.243 220.346H775.181L794.801 237.054ZM730.401 231.325C720.908 231.325 712.099 233.394 703.977 237.531C695.854 241.668 689.367 247.184 684.515 254.079C679.768 260.974 677.394 268.347 677.394 276.196V320.431H728.344C737.838 320.431 746.646 318.363 754.769 314.226C762.891 310.089 769.325 304.573 774.072 297.678C778.925 290.783 781.352 283.409 781.352 275.56V231.325H730.401Z" fill="#AFF000"/>
<path fill-rule="evenodd" clip-rule="evenodd" d="M1111.11 237.054V275.4C1111.11 285.69 1107.99 295.131 1101.77 303.724C1095.55 312.21 1087.32 318.946 1077.09 323.932C1066.96 328.917 1056.2 331.41 1044.81 331.41H999.87L980.25 314.703V276.355C980.25 266.066 983.362 256.678 989.586 248.191C995.81 239.599 1003.98 232.81 1014.11 227.824C1024.34 222.839 1035.16 220.346 1046.55 220.346H1091.49L1111.11 237.054ZM1046.71 231.325C1037.21 231.325 1028.4 233.394 1020.28 237.531C1012.16 241.668 1005.67 247.184 1000.82 254.079C996.073 260.974 993.699 268.347 993.699 276.196V320.431H1044.65C1054.14 320.431 1062.95 318.363 1071.07 314.226C1079.2 310.089 1085.63 304.573 1090.38 297.678C1095.23 290.783 1097.66 283.409 1097.66 275.56V231.325H1046.71Z" fill="#AFF000"/>
<path d="M652.49 231.803H590.622C579.019 231.803 568.997 234.083 560.559 238.645C552.12 243.206 545.737 248.934 541.412 255.829C537.087 262.618 534.925 269.301 534.925 275.878C534.925 282.455 537.087 289.191 541.412 296.086C545.737 302.875 552.12 308.55 560.559 313.111C568.998 317.673 579.019 319.954 590.622 319.954H639.04V277.629H601.54V267.764H652.49V331.251H588.565C575.907 331.251 564.409 328.599 554.071 323.295C543.839 317.885 535.821 310.937 530.02 302.451C524.323 293.859 521.476 285.001 521.476 275.878C521.476 266.755 524.323 257.951 530.02 249.465C535.821 240.872 543.839 233.924 554.071 228.62C564.409 223.21 575.907 220.505 588.565 220.505H652.49V231.803Z" fill="#AFF000"/>
<path d="M937.273 231.644H875.405C864.118 231.644 854.255 233.818 845.816 238.167C837.377 242.516 830.89 248.086 826.354 254.875C821.924 261.664 819.708 268.559 819.708 275.56C819.708 282.455 821.924 289.297 826.354 296.086C830.89 302.875 837.378 308.497 845.816 312.952C854.255 317.301 864.118 319.477 875.405 319.477H937.273V330.933H873.349C860.69 330.933 849.192 328.28 838.854 322.977C828.622 317.567 820.605 310.619 814.804 302.133C809.107 293.54 806.259 284.682 806.259 275.56C806.259 266.437 809.108 257.633 814.804 249.146C820.605 240.554 828.622 233.606 838.854 228.302C849.192 222.892 860.69 220.188 873.349 220.188H937.273V231.644Z" fill="#AFF000"/>
<path d="M734.04 207.935L724.23 199.979L737.838 189H756.825L734.04 207.935Z" fill="#AFF000"/>
<path d="M163.064 81.1006C163.064 86.7366 162.49 92.26 161.405 97.5928C159.746 105.754 156.868 113.479 152.99 120.575C150.743 124.716 148.126 128.624 145.227 132.285C139.867 139.064 133.48 144.982 126.284 149.8C119.819 154.145 112.701 157.623 105.115 160.05C97.1042 162.61 88.5751 163.979 79.7275 163.979H79.7637V164H0V139.311H79.7705C92.7014 139.31 104.661 135.114 114.353 128.018C118.358 125.097 121.967 121.661 125.107 117.845C130.254 111.581 134.11 104.217 136.266 96.1895C137.563 91.3716 138.251 86.3205 138.251 81.1006H163.064Z" fill="#AFF000"/>
<path d="M491.477 49.0166L491.951 143.215H472.964V49.1758H437.679C429.134 49.1758 421.222 50.9793 413.943 54.5859C406.77 58.1926 401.074 63.0191 396.854 69.0654C392.741 75.0058 390.684 81.3711 390.684 88.1602V143.374H371.696V88.3193C371.696 80.5756 373.542 73.3616 377.234 66.6787C380.926 59.9959 386.043 54.1614 392.583 49.1758H339.892C331.664 49.1758 323.963 50.9793 316.79 54.5859C309.723 58.1926 304.079 63.0191 299.859 69.0654C295.745 75.0058 293.688 81.3711 293.688 88.1602V143.374H274.701V88.3193C274.701 78.0297 277.813 68.6415 284.037 60.1553C290.261 51.563 298.436 44.7737 308.562 39.7881C318.795 34.8024 329.607 32.3096 341 32.3096H472.173L491.477 49.0166Z" fill="#AFF000"/>
<path fill-rule="evenodd" clip-rule="evenodd" d="M618.427 49.0166L618.901 143.215H599.913V92.7744H522.539V143.374H503.394V88.3193C503.394 78.0298 506.505 68.6415 512.729 60.1553C518.952 51.5629 527.128 44.7738 537.255 39.7881C547.487 34.8026 558.299 32.3096 569.691 32.3096H599.122L618.427 49.0166ZM568.742 49.1758C562.097 49.1758 555.768 50.3962 549.755 52.8359C543.742 55.1697 538.573 58.458 534.248 62.7012C529.923 66.8382 526.758 71.5054 524.754 76.7031H599.913V49.1758H568.742Z" fill="#AFF000"/>
<path d="M761.27 48.8584H698.294C689.222 48.8584 681.363 50.3433 674.718 53.3135C668.072 56.2836 662.798 60.0492 658.896 64.6104C654.993 69.1716 652.249 73.9982 650.667 79.0898H761.27V87.2051C761.27 96.8581 758.369 106.034 752.567 114.732C746.871 123.325 738.907 130.273 728.675 135.577C718.443 140.775 706.944 143.374 694.181 143.374H630.256V126.508H693.231C702.409 126.508 710.373 125.022 717.124 122.052C723.875 118.976 729.202 115.157 733.104 110.596C737.007 105.928 739.698 100.996 741.175 95.7979H630.256V88.1602C630.256 78.5071 633.104 69.3843 638.8 60.792C644.602 52.0936 652.618 45.1451 662.851 39.9473C673.083 34.6434 684.581 31.9912 697.345 31.9912H761.27V48.8584Z" fill="#AFF000"/>
<path d="M792.187 143.374H773.357V31.9912H792.187V143.374Z" fill="#AFF000"/>
<path d="M81.543 69.6182C88.4025 69.6184 93.9628 75.1512 93.9629 81.9766C93.9629 88.8019 88.4025 94.3357 81.543 94.3359C74.6832 94.3359 69.1221 88.8021 69.1221 81.9766C69.1221 75.1511 74.6833 69.6182 81.543 69.6182Z" fill="#AFF000"/>
<path d="M163.085 24.6895H83.3154C51.0586 24.6895 24.8126 50.8035 24.8125 82.8994H0C6.65092e-05 37.175 37.3689 0 83.3154 0H163.085V24.6895Z" fill="#AFF000"/>
</g>
</svg>
