<svg width="1791" height="113" viewBox="0 0 1791 113" fill="none" xmlns="http://www.w3.org/2000/svg">
<path d="M0 57.42C0 47.1037 3.13742 37.6913 9.41232 29.183C15.6872 20.5683 23.9297 13.7616 34.1397 8.76295C44.456 3.7643 55.3574 1.26498 66.8436 1.26498H199.095L218.558 18.0158L219.037 112.458H199.893V18.1753H164.317C155.703 18.1753 147.726 19.9833 140.388 23.5994C133.156 27.2154 127.412 32.0545 123.158 38.1167C119.01 44.0726 116.936 50.4538 116.936 57.2605V112.618H97.7927V57.42C97.7927 49.6562 99.6539 42.4241 103.376 35.7238C107.099 29.0234 112.257 23.174 118.851 18.1753H65.7269C57.4313 18.1753 49.6674 19.9833 42.4353 23.5994C35.3096 27.2154 29.6196 32.0545 25.3655 38.1167C21.2176 44.0726 19.1437 50.4538 19.1437 57.2605V112.618H0V57.42Z" fill="#FFFFFF"/>
<path d="M327.887 112.458V61.8869H249.876V112.618H230.573V57.42C230.573 47.1037 233.71 37.6913 239.985 29.183C246.26 20.5683 254.502 13.7616 264.712 8.76295C275.029 3.7643 285.93 1.26498 297.416 1.26498H327.089L346.552 18.0158L347.031 112.458H327.887ZM327.887 45.7742V18.1753H296.459C289.759 18.1753 283.378 19.3984 277.315 21.8445C271.253 24.1843 266.042 27.4813 261.681 31.7355C257.321 35.8833 254.13 40.5629 252.109 45.7742H327.887Z" fill="#FFFFFF"/>
<path d="M358.478 57.2605C358.478 47.5822 361.35 38.4358 367.093 29.8211C372.942 21.1 381.025 14.1338 391.342 8.92248C401.658 3.60477 413.251 0.945911 426.119 0.945911H490.57V17.8562H427.077C417.93 17.8562 410.007 19.3452 403.306 22.3231C396.606 25.301 391.288 29.0766 387.353 33.6498C383.418 38.2231 380.653 43.0622 379.058 48.1672H490.57V56.3033C490.57 65.9815 487.645 75.1812 481.796 83.9022C476.053 92.5169 468.023 99.4831 457.707 104.801C447.39 110.012 435.798 112.618 422.929 112.618H358.478V95.7075H421.972C431.224 95.7075 439.254 94.2186 446.061 91.2407C452.868 88.1564 458.238 84.3276 462.174 79.7544C466.109 75.0748 468.821 70.1294 470.31 64.918H358.478V57.2605Z" fill="#FFFFFF"/>
<path d="M502.757 0.945911H521.741V112.618H502.757V0.945911Z" fill="#FFFFFF"/>
<path d="M649.758 112.457C635.942 112.457 623.84 109.673 613.451 104.103C603.062 98.5339 595.136 91.6259 589.674 83.379C584.212 75.025 581.481 66.9924 581.481 59.281V16.8686L601.562 0.642618H698.276V12.2096H595.136V50.6057H677.873V60.8876H595.94C595.94 66.0285 598.242 71.7584 602.848 78.0774C607.453 84.3965 613.772 89.8051 621.805 94.3034C629.944 98.6946 638.995 100.89 648.955 100.89H698.276V112.457H649.758Z" fill="#FFFFFF"/>
<path d="M769.253 56.3893L714.631 0.160656H729.411L776.643 48.5173L824.036 0.160656H838.655L784.194 56.3893L838.977 112.618H824.036L776.643 64.1006L729.411 112.618H714.47L769.253 56.3893Z" fill="#FFFFFF"/>
<path d="M855.093 0.160656H951.485L970.924 17.0292C969.211 25.3832 965.301 33.2017 959.197 40.4846C953.092 47.7675 945.22 53.6046 935.58 57.9958C926.048 62.2799 915.499 64.4219 903.932 64.4219L868.749 64.2613V112.618H855.093V0.160656ZM901.683 52.6942C911.322 52.6942 920.479 50.7128 929.154 46.7501C937.937 42.6802 945.006 37.4857 950.361 31.1667C955.716 24.7406 958.393 18.2074 958.393 11.567H868.749V52.6942H901.683Z" fill="#FFFFFF"/>
<path d="M1050.76 112.457C1036.95 112.457 1024.85 109.673 1014.46 104.103C1004.07 98.5339 996.142 91.6259 990.679 83.379C985.217 75.025 982.486 66.9924 982.486 59.281V16.8686L1002.57 0.642618H1099.28V12.2096H996.142V50.6057H1078.88V60.8876H996.945C996.945 66.0285 999.248 71.7584 1003.85 78.0774C1008.46 84.3965 1014.78 89.8051 1022.81 94.3034C1030.95 98.6946 1040 100.89 1049.96 100.89H1099.28V112.457H1050.76Z" fill="#FFFFFF"/>
<path d="M1110.98 0.160656H1208.33L1228.74 17.0292C1227.67 24.098 1224.45 31.0596 1219.1 37.9141C1213.85 44.6616 1206.89 50.3915 1198.21 55.104C1189.64 59.8165 1180.22 62.7083 1169.94 63.7793L1228.58 112.457H1208.98L1144.39 58.6384V53.3368H1159.49C1171.6 53.3368 1181.83 51.0877 1190.18 46.5894C1198.64 42.0911 1204.91 36.6289 1208.98 30.2028C1213.05 23.7767 1215.08 17.6183 1215.08 11.7277H1124.63V112.618H1110.98V0.160656Z" fill="#FFFFFF"/>
<path d="M1243.63 0.160656H1257.28V112.618H1243.63V0.160656Z" fill="#FFFFFF"/>
<path d="M1340.54 112.457C1326.72 112.457 1314.62 109.673 1304.23 104.103C1293.84 98.5339 1285.91 91.6259 1280.45 83.379C1274.99 75.025 1272.26 66.9924 1272.26 59.281V16.8686L1292.34 0.642618H1389.05V12.2096H1285.91V50.6057H1368.65V60.8876H1286.72C1286.72 66.0285 1289.02 71.7584 1293.62 78.0774C1298.23 84.3965 1304.55 89.8051 1312.58 94.3034C1320.72 98.6946 1329.77 100.89 1339.73 100.89H1389.05V112.457H1340.54Z" fill="#FFFFFF"/>
<path d="M1401.07 17.3505L1420.83 0.481965H1450.71C1462.28 0.481965 1473.2 2.99886 1483.49 8.03266C1493.87 13.0665 1502.23 19.921 1508.55 28.5963C1514.87 37.1644 1518.03 46.643 1518.03 57.0319V112.618H1504.69V56.8712C1504.69 49.4812 1502.5 42.3589 1498.11 35.5043C1493.71 28.5427 1486.97 22.8663 1477.86 18.4751C1468.76 14.0839 1457.51 11.8883 1444.13 11.8883H1414.4V112.618L1400.75 112.457V112.779L1401.07 17.3505Z" fill="#FFFFFF"/>
<path d="M1597.67 111.815C1584.82 111.815 1573.14 109.137 1562.65 103.782C1552.26 98.3197 1544.12 91.3045 1538.23 82.7364C1532.45 74.0611 1529.55 65.1181 1529.55 55.9073C1529.55 46.6965 1532.45 37.807 1538.23 29.2389C1544.12 20.5636 1552.26 13.5484 1562.65 8.19331C1573.14 2.7311 1584.82 0 1597.67 0H1662.57V11.567H1599.76C1588.3 11.567 1578.29 13.7626 1569.72 18.1538C1561.15 22.545 1554.56 28.1679 1549.96 35.0224C1545.46 41.8769 1543.21 48.8386 1543.21 55.9073C1543.21 62.8689 1545.46 69.777 1549.96 76.6316C1554.56 83.4861 1561.15 89.1625 1569.72 93.6608C1578.29 98.052 1588.3 100.248 1599.76 100.248H1662.57V111.815H1597.67Z" fill="#FFFFFF"/>
<path d="M1742.48 112.457C1728.67 112.457 1716.56 109.673 1706.17 104.103C1695.79 98.5339 1687.86 91.6259 1682.4 83.379C1676.94 75.025 1674.2 66.9924 1674.2 59.281V16.8686L1694.29 0.642618H1791V12.2096H1687.86V50.6057H1770.6V60.8876H1688.66C1688.66 66.0285 1690.97 71.7584 1695.57 78.0774C1700.18 84.3965 1706.5 89.8051 1714.53 94.3034C1722.67 98.6946 1731.72 100.89 1741.68 100.89H1791V112.457H1742.48Z" fill="#FFFFFF"/>
</svg>
