<svg preserveAspectRatio="xMidYMid meet" width="149" height="187" overflow="visible" style="display: block;" viewBox="0 0 149 187" fill="none" xmlns="http://www.w3.org/2000/svg">
<g id="Base">
<path fill-rule="evenodd" clip-rule="evenodd" d="M105.506 99.9631C129.527 99.9631 149 119.447 149 143.482C149 167.516 129.527 187 105.506 187H43.4942C19.473 187 0 167.516 0 143.482C0 119.447 19.473 99.9631 43.4942 99.9631H105.506ZM43.4942 111.166C25.6567 111.166 11.1965 125.634 11.1965 143.482C11.1965 161.329 25.6567 175.797 43.4942 175.797H105.506C123.343 175.797 137.803 161.329 137.803 143.482C137.803 125.634 123.343 111.166 105.506 111.166H43.4942Z" fill="var(--fill-0, black)"/>
<path fill-rule="evenodd" clip-rule="evenodd" d="M104.645 0C129.141 0 149 19.8697 149 44.3802C149 68.8907 129.141 88.7604 104.645 88.7604H44.3555C19.8586 88.7604 0 68.8907 0 44.3802C0 19.8697 19.8586 0 44.3555 0H104.645ZM44.3555 11.2028C26.0423 11.2028 11.1965 26.0568 11.1965 44.3802C11.1965 62.7036 26.0423 77.5576 44.3555 77.5576H104.645C122.958 77.5576 137.803 62.7036 137.803 44.3802C137.803 26.0568 122.958 11.2028 104.645 11.2028H44.3555Z" fill="var(--fill-0, black)"/>
</g>
</svg>
