<svg preserveAspectRatio="xMidYMid meet" width="164" height="188" overflow="hidden" style="display: block;" viewBox="0 0 164 188" fill="none" xmlns="http://www.w3.org/2000/svg">
<path id="Block" fill-rule="evenodd" clip-rule="evenodd" d="M86.8872 0.00354526C112.503 0.322209 133.175 20.8179 133.175 46.0625V58.4851H121.588V46.0625C121.588 26.9164 105.784 11.3885 86.2814 11.3884H76.0063C56.5033 11.3884 40.6997 26.9164 40.6997 46.0625V72.7269C42.7266 72.464 44.794 72.3263 46.8937 72.3263H117.106C143.001 72.3263 164 92.9459 164 118.389V141.937C164 167.381 143.001 188 117.106 188H46.8937C20.9989 188 5.33384e-05 167.381 0 141.937V118.389C0 99.1289 12.0339 82.6337 29.1126 75.7541V46.0625C29.1126 20.6192 50.1115 1.6483e-07 76.0063 0H86.2814L86.8872 0.00354526ZM46.8937 83.7152C27.3907 83.7152 11.5871 99.2432 11.5871 118.389V141.937C11.5872 161.084 27.3907 176.612 46.8937 176.612H117.106C136.609 176.612 152.413 161.084 152.413 141.937V118.389C152.413 99.2432 136.609 83.7152 117.106 83.7152H46.8937Z" fill="var(--fill-0, black)"/>
</svg>
