<svg preserveAspectRatio="xMidYMid meet" width="170" height="171" overflow="hidden" style="display: block;" viewBox="0 0 170 171" fill="none" xmlns="http://www.w3.org/2000/svg">
<path id="Box" d="M158.782 59.4594C158.782 32.853 137.339 11.2843 110.888 11.2843H59.1117C32.6609 11.2843 11.2183 32.853 11.2183 59.4594V111.541C11.2183 138.147 32.6609 159.716 59.1117 159.716H110.888C137.339 159.716 158.782 138.147 158.782 111.541V59.4594ZM170 111.541C170 144.379 143.535 171 110.888 171H59.1117C26.4652 171 7.78345e-07 144.379 0 111.541V59.4594C0 26.6209 26.4652 7.82923e-07 59.1117 0H110.888C143.535 0 170 26.6209 170 59.4594V111.541Z" fill="var(--fill-0, black)"/>
</svg>
