<svg preserveAspectRatio="none" width="225" height="204" overflow="visible" style="display: block;" viewBox="0 0 225 204" fill="none" xmlns="http://www.w3.org/2000/svg">
<path id="Caixa" fill-rule="evenodd" clip-rule="evenodd" d="M89.7525 4.56769C103.57 -1.44513 119.275 -1.52458 133.154 4.34713L206.491 35.3734L206.347 35.7043C208.041 36.8475 209.464 38.4298 210.42 40.3712L223.764 67.468C226.836 73.708 223.97 81.2317 217.506 83.8868L204.491 89.2317V143.786C204.491 159.805 194.657 174.208 179.672 180.133L126.323 201.227C116.749 205.012 106.06 204.919 96.5543 200.969L46.8234 180.303C32.1749 174.215 22.6392 159.985 22.6386 144.214V90.1063L7.49443 83.8868C1.02993 81.2317 -1.83623 73.7081 1.23607 67.468L14.5805 40.3712C15.5954 38.3103 17.1352 36.6546 18.9683 35.499L18.9304 35.4045L19.838 34.9918L19.9323 34.9486C20.3735 34.7239 20.8267 34.5285 21.2865 34.3606L89.7525 4.56769ZM109.814 92.5778L109.781 92.5696L108.032 96.0382L108.028 96.0453L99.9849 111.677L99.949 111.747L99.9024 111.812C96.6717 116.269 90.7059 118.061 85.4399 115.899L33.2557 94.4663V144.214C33.2561 155.735 40.2227 166.131 50.9219 170.577L100.652 191.243C102.969 192.206 105.383 192.851 107.83 193.185V113.896H118.448V192.67C119.784 192.353 121.104 191.941 122.395 191.431L175.744 170.337C186.689 166.01 193.874 155.488 193.874 143.786V93.5906L139.56 115.899C133.686 118.311 126.934 115.805 124.088 110.162L124.074 110.134L124.062 110.106L116.526 92.656L116.433 92.6753L113.412 85.5848L109.814 92.5778ZM25.973 44.2494C25.2526 43.9973 24.4541 44.3213 24.1178 45.0041L10.7734 72.1009C10.3914 72.8783 10.7494 73.8149 11.5514 74.1444L89.4969 106.155C90.2261 106.454 91.0651 106.143 91.4191 105.442L107.061 74.4188C107.105 74.3325 107.139 74.2365 107.166 74.1307C107.158 73.8712 107.16 73.6144 107.169 73.3618C107.044 72.8991 106.704 72.5057 106.214 72.3342L25.973 44.2494ZM200.882 45.0041C200.546 44.3215 199.748 43.9974 199.028 44.2494L118.786 72.3342C118.296 72.5059 117.954 72.8991 117.829 73.3607C117.838 73.6127 117.84 73.869 117.832 74.1281C117.833 74.1308 117.834 74.1336 117.834 74.1363L117.979 74.4397L117.983 74.4478L118.344 75.2218L133.581 105.442L133.653 105.569C134.04 106.18 134.82 106.435 135.503 106.155L213.449 74.1444C214.251 73.8149 214.609 72.878 214.227 72.1004L200.882 45.0041ZM128.992 14.0463C117.807 9.31438 105.15 9.37932 94.0144 14.2252L39.6805 37.8672L109.744 62.39L109.745 62.3905C110.743 62.7401 111.664 63.206 112.5 63.7657C113.336 63.206 114.257 62.7396 115.256 62.39L185.308 37.8703L128.992 14.0463Z" fill="var(--fill-0, black)"/>
</svg>
