<svg preserveAspectRatio="xMidYMid meet" width="214" height="183" overflow="hidden" style="display: block;" viewBox="0 0 214 183" fill="none" xmlns="http://www.w3.org/2000/svg">
<path id="Caixa" fill-rule="evenodd" clip-rule="evenodd" d="M86.2604 4.01231C99.5659 -1.36106 114.442 -1.33668 127.729 4.08152L172.009 22.1374C174.319 23.0795 175.674 24.9858 176.076 27.0598H176.732V68.4383C198.344 78.251 214 93.437 214 112.011C214 124.14 207.226 134.878 196.766 143.449C186.295 152.028 171.698 158.838 154.745 163.282L152.203 153.584C168.208 149.388 181.368 143.105 190.413 135.694C199.469 128.273 203.973 120.119 203.973 112.011C203.973 100.4 194.534 88.6005 176.67 79.5274C175.757 97.5883 164.418 113.579 147.493 120.345L124.191 129.66C113.163 134.069 100.864 134.091 89.8205 129.721L66.0086 120.298C49.1391 113.623 37.7732 97.7933 36.7003 79.8498C19.2439 88.8791 10.0272 100.537 10.0271 112.011C10.0273 121.375 16.0691 130.841 28.1013 139.066C38.7255 146.329 53.4618 152.185 70.8179 155.659L71.7767 149.789C73.042 142.041 82.2202 138.569 88.2979 143.538L105.049 157.234C111.126 162.203 109.545 171.889 102.203 174.668L81.9659 182.325C74.6236 185.104 67.0281 178.893 68.2926 171.145L69.2024 165.561C50.7056 161.898 34.5061 155.59 22.4429 147.343C9.02851 138.172 0.000132964 126.041 0 112.011C9.53627e-05 93.6238 15.3432 78.5579 36.6176 68.7371V27.0598H37.3131C37.7161 24.9792 39.0771 23.0671 41.3999 22.1289L86.2604 4.01231ZM81.7802 151.271C81.7334 151.289 81.7079 151.313 81.6992 151.324C81.6959 151.327 81.6934 151.332 81.6908 151.337C81.6883 151.343 81.6791 151.363 81.6722 151.405L78.188 172.759C78.1811 172.801 78.1823 172.824 78.183 172.83C78.1836 172.836 78.1846 172.841 78.1863 172.845C78.1915 172.858 78.2084 172.889 78.2471 172.921C78.2864 172.953 78.3215 172.964 78.3349 172.967C78.3396 172.967 78.3442 172.967 78.3501 172.967C78.3559 172.966 78.3776 172.963 78.4176 172.948L98.6542 165.291C98.695 165.275 98.714 165.262 98.7183 165.259C98.7228 165.255 98.7256 165.252 98.7285 165.249C98.7367 165.238 98.7556 165.207 98.7639 165.158C98.772 165.108 98.765 165.073 98.7605 165.06C98.7588 165.055 98.7558 165.05 98.7521 165.044C98.7483 165.039 98.7351 165.022 98.7031 164.995L81.9524 151.298C81.9189 151.271 81.8983 151.263 81.8933 151.261C81.8876 151.259 81.8831 151.257 81.8781 151.256C81.8644 151.254 81.8273 151.253 81.7802 151.271ZM46.6447 77.0611C46.6447 92.0247 55.7834 105.471 69.697 110.977L93.5106 120.399C96.258 121.487 99.1044 122.225 101.986 122.619V59.6822L46.6447 36.8001V77.0611ZM112.014 59.6687V122.601C114.89 122.196 117.73 121.447 120.469 120.352L143.773 111.036C157.623 105.498 166.707 92.0838 166.707 77.1675V36.8356L112.014 59.6687ZM123.943 13.366C113.072 8.93312 100.901 8.91232 90.0146 13.3086L52.6053 28.4154L106.99 50.9024L160.851 28.4154L123.943 13.366Z" fill="var(--fill-0, black)"/>
</svg>
