<svg preserveAspectRatio="none" width="171" height="180" overflow="visible" style="display: block;" viewBox="0 0 171 180" fill="none" xmlns="http://www.w3.org/2000/svg">
<path id="Chat" fill-rule="evenodd" clip-rule="evenodd" d="M114.973 0C145.916 0 171 24.9882 171 55.8123V152.873C171 179.416 136.846 189.903 121.724 168.65L121.019 167.615C116.163 160.162 107.959 155.571 99.0803 155.291L98.2184 155.278H62.1818L60.5777 155.258C27.5101 154.424 0.857743 127.873 0.0202415 94.9322L0 93.3342V61.9439C1.35185e-05 27.7332 27.8398 1.96517e-06 62.1818 0H114.973ZM62.1818 11.1843C34.0404 11.1843 11.2273 33.9101 11.2273 61.9439V93.3342C11.2274 121.368 34.0405 144.094 62.1818 144.094H98.2184C111.228 144.094 123.354 150.654 130.436 161.526C139.084 174.801 159.773 168.699 159.773 152.873V55.8123C159.773 31.1651 139.715 11.1843 114.973 11.1843H62.1818Z" fill="var(--fill-0, black)"/>
</svg>
