<svg preserveAspectRatio="none" width="178" height="170" overflow="visible" style="display: block;" viewBox="0 0 178 170" fill="none" xmlns="http://www.w3.org/2000/svg">
<path id="Check" d="M118.954 0C151.564 0 178 26.4652 178 59.1117V110.888C178 143.535 151.564 170 118.954 170H67.2349C34.6247 170 8.18886 143.535 8.18886 110.888V59.1117C8.18886 53.3365 9.01786 47.7554 10.561 42.4798L19.4957 55.9801C19.4289 57.0154 19.3947 58.0595 19.3947 59.1117V110.888C19.3947 137.339 40.8135 158.782 67.2349 158.782H118.954C145.375 158.782 166.794 137.339 166.794 110.888V59.1117C166.794 32.6609 145.375 11.2183 118.954 11.2183H67.2349C51.5716 11.2183 37.669 18.756 28.9422 30.4036L67.0631 88.0001C81.0302 109.103 112.289 108.138 124.932 86.2152L145.167 51.1294L154.871 56.7386L134.638 91.8243C117.833 120.963 76.2847 122.244 57.721 94.1958L0 6.98108L9.34042 0.785414L22.4503 20.5944C33.2789 7.98735 49.3236 4.27509e-07 67.2349 0H118.954Z" fill="var(--fill-0, black)"/>
</svg>
