<svg preserveAspectRatio="none" width="171" height="191" overflow="visible" style="display: block;" viewBox="0 0 171 191" fill="none" xmlns="http://www.w3.org/2000/svg">
<path id="Conexao" fill-rule="evenodd" clip-rule="evenodd" d="M37.4166 0C57.1323 0 73.1162 15.7906 73.1162 35.2705C73.1162 42.3688 70.99 48.9775 67.3368 54.5113L96.0605 79.5488C103.973 71.3078 115.166 66.1676 127.573 66.1676C151.556 66.1676 171 85.3761 171 109.073C171 132.769 151.556 151.978 127.573 151.978C113.971 151.978 101.832 145.798 93.8708 136.13L60.5508 155.136C60.9064 156.977 61.0954 158.876 61.0954 160.819C61.0954 177.488 47.4183 191 30.548 191C13.6775 191 0 177.488 0 160.819C0.000116523 144.15 13.6775 130.638 30.548 130.638C41.3986 130.638 50.9246 136.23 56.3427 144.65L87.9391 126.629C85.5028 121.269 84.1455 115.327 84.1455 109.073C84.1455 101.667 86.0472 94.6993 89.3917 88.6183L59.7527 62.7816C53.6375 67.6343 45.8704 70.5416 37.4166 70.5416C17.7009 70.5415 1.71741 54.7505 1.71741 35.2705C1.71749 15.7907 17.701 0.000105933 37.4166 0ZM30.548 141.799C19.9145 141.799 11.2952 150.315 11.2951 160.819C11.2951 171.323 19.9144 179.84 30.548 179.84C41.1814 179.84 49.8003 171.323 49.8003 160.819C49.8002 150.315 41.1813 141.799 30.548 141.799ZM127.573 77.3279C109.826 77.3279 95.4407 91.5409 95.4405 109.073C95.4405 126.604 109.826 140.818 127.573 140.818C145.319 140.818 159.705 126.604 159.705 109.073C159.705 91.5409 145.319 77.3279 127.573 77.3279ZM37.4166 11.1603C23.9379 11.1604 13.0126 21.9554 13.0125 35.2705C13.0125 48.5857 23.9379 59.3807 37.4166 59.3808C50.8954 59.3808 61.8212 48.5858 61.8212 35.2705C61.8211 21.9554 50.8953 11.1603 37.4166 11.1603Z" fill="var(--fill-0, black)"/>
</svg>
