<svg preserveAspectRatio="none" width="206" height="188" overflow="visible" style="display: block;" viewBox="0 0 206 188" fill="none" xmlns="http://www.w3.org/2000/svg">
<path id="Coracao" d="M181.106 22.447C207.401 37.7366 214.084 72.6794 195.278 96.551L135.739 172.128C119.068 193.29 86.9323 193.291 70.2612 172.13L10.722 96.551C-8.08375 72.6794 -1.40109 37.7366 24.8939 22.447L63.498 0L103 39.6726L142.502 0L181.106 22.447ZM103 56.5141L61.538 14.8731L30.8837 32.698C10.8284 44.3596 5.73264 71.0117 20.0759 89.2187L79.6152 164.798C91.5229 179.912 114.477 179.912 126.385 164.798L185.924 89.2187C200.267 71.0117 195.172 44.3596 175.116 32.698L144.46 14.8731L103 56.5141Z" fill="var(--fill-0, black)"/>
</svg>
