<svg preserveAspectRatio="none" width="190" height="190" overflow="visible" style="display: block;" viewBox="0 0 190 190" fill="none" xmlns="http://www.w3.org/2000/svg">
<g id="Dinheiro">
<path d="M99.7334 52.7107H136.704V62.6294H95.4354C78.3487 62.6297 64.2516 75.4319 62.5239 91.7999H137.265V96.6159L135.635 103.841L135.452 104.375C134.562 107.93 133.213 111.313 131.483 114.46C130.321 116.577 128.967 118.579 127.464 120.454L127.462 120.456C124.688 123.928 121.372 126.965 117.647 129.435L117.644 129.437C114.298 131.664 110.604 133.441 106.673 134.685C104.434 135.394 102.115 135.92 99.7334 136.256V152.808H89.942V136.711H52.2696V126.793H93.536C100.854 126.793 107.623 124.446 113.105 120.471L113.104 120.469C115.374 118.835 117.416 116.907 119.183 114.782C122.094 111.283 124.28 107.158 125.5 102.669C125.611 102.26 125.712 101.846 125.807 101.432H52.4105V93.5832H52.2946C53.0866 72.7103 69.2489 55.6488 89.942 53.0526V37.2138H99.7334V52.7107Z" fill="var(--fill-0, black)"/>
<path fill-rule="evenodd" clip-rule="evenodd" d="M95 0C147.465 0 190 42.5312 190 95C190 147.469 147.465 190 95 190C42.5347 190 4.05224e-07 147.469 0 95C0 42.5312 42.5347 1.38069e-06 95 0ZM95 11.5095C48.886 11.5095 11.5065 48.8913 11.5065 95C11.5065 141.109 48.886 178.49 95 178.49C141.114 178.49 178.494 141.109 178.494 95C178.494 48.8913 141.114 11.5095 95 11.5095Z" fill="var(--fill-0, black)"/>
</g>
</svg>
