<svg preserveAspectRatio="xMidYMid meet" width="170" height="170" overflow="visible" style="display: block;" viewBox="0 0 170 170" fill="none" xmlns="http://www.w3.org/2000/svg">
<g id="Instagram">
<path fill-rule="evenodd" clip-rule="evenodd" d="M85 47.0305C105.974 47.0305 122.971 64.0323 122.971 84.9966C122.971 105.961 105.974 122.963 85 122.963C64.0264 122.963 47.0306 105.961 47.0305 84.9966C47.0305 64.0325 64.0263 47.0307 85 47.0305ZM85 58.51C70.3781 58.5103 58.5184 70.365 58.5184 84.9966C58.5185 99.6282 70.3781 111.483 85 111.483C99.6222 111.483 111.483 99.6283 111.483 84.9966C111.483 70.3649 99.6222 58.51 85 58.51Z" fill="var(--fill-0, black)"/>
<path d="M129.873 34.9492C135.592 34.9492 140.228 39.5855 140.228 45.3046C140.228 51.0237 135.592 55.6599 129.873 55.6599C124.154 55.6599 119.518 51.0237 119.518 45.3046C119.518 39.5855 124.154 34.9492 129.873 34.9492Z" fill="var(--fill-0, black)"/>
<path fill-rule="evenodd" clip-rule="evenodd" d="M110.888 0C143.535 0 170 26.4652 170 59.1117V110.888C170 143.535 143.535 170 110.888 170H59.1117C26.4652 170 7.78345e-07 143.535 0 110.888V59.1117C0 26.4652 26.4652 7.78345e-07 59.1117 0H110.888ZM59.1117 11.2183C32.6609 11.2183 11.2183 32.6609 11.2183 59.1117V110.888C11.2183 137.339 32.6609 158.782 59.1117 158.782H110.888C137.339 158.782 158.782 137.339 158.782 110.888V59.1117C158.782 32.6609 137.339 11.2183 110.888 11.2183H59.1117Z" fill="var(--fill-0, black)"/>
</g>
</svg>
