<svg preserveAspectRatio="none" width="232" height="152" overflow="visible" style="display: block;" viewBox="0 0 232 152" fill="none" xmlns="http://www.w3.org/2000/svg">
<g id="iPhone Camera">
<path d="M190.401 98.1785C195.984 98.1785 200.511 102.888 200.511 108.698C200.511 114.507 195.984 119.217 190.401 119.217C184.817 119.217 180.291 114.507 180.291 108.698C180.291 102.888 184.817 98.1785 190.401 98.1785Z" fill="var(--fill-0, black)"/>
<path fill-rule="evenodd" clip-rule="evenodd" d="M174.599 0C205.747 0.000732054 231.188 25.9656 231.982 58.1891L232 59.7282V92.2718L231.982 93.8109C231.188 126.034 205.747 151.999 174.599 152H57.4006C26.2533 151.999 0.812026 126.034 0.0181002 93.8109L0 92.2718V59.7282L0.0181002 58.1891C0.812023 25.9656 26.2533 0.000732054 57.4006 0H174.599ZM57.4648 11.7929C32.0123 11.7934 11.397 33.3245 11.3965 59.7265V92.2735C11.397 118.676 32.0123 140.207 57.4648 140.207H174.535C199.988 140.207 220.603 118.676 220.603 92.2735V59.7265C220.603 33.3245 199.988 11.7934 174.535 11.7929H57.4648Z" fill="var(--fill-0, black)"/>
</g>
</svg>
