<svg preserveAspectRatio="none" width="154" height="191" overflow="visible" style="display: block;" viewBox="0 0 154 191" fill="none" xmlns="http://www.w3.org/2000/svg">
<g id="iPhone">
<path d="M52.7361 36.1706C52.7361 32.9186 55.5195 30.2824 58.953 30.2824H92.7018C96.1353 30.2824 98.9187 32.9186 98.9187 36.1706C98.9187 39.4226 96.1353 42.0589 92.7018 42.0589H58.953C55.5195 42.0589 52.7361 39.4226 52.7361 36.1706Z" fill="var(--fill-0, black)"/>
<path d="M93.4859 0L95.0453 0.0180722C127.693 0.810767 153.999 26.2126 154 57.3118V191H142.054L142.052 57.3758C142.051 31.9628 120.237 11.3794 93.4876 11.3789H60.5124C33.763 11.3794 11.9486 31.9628 11.9481 57.3758L11.9464 191H0L0 57.3118C0.000740251 26.2126 26.3072 0.810767 58.9547 0.0180722L60.5141 0H93.4859Z" fill="var(--fill-0, black)"/>
</g>
</svg>
