<svg preserveAspectRatio="none" width="174" height="202" overflow="visible" style="display: block;" viewBox="0 0 174 202" fill="none" xmlns="http://www.w3.org/2000/svg">
<g id="Localizacao">
<path fill-rule="evenodd" clip-rule="evenodd" d="M87 46.6596C107.936 46.6596 124.901 63.6672 124.902 84.6389C124.902 105.611 107.936 122.618 87 122.618C66.0639 122.618 49.0985 105.611 49.0985 84.6389C49.0985 63.6672 66.064 46.6596 87 46.6596ZM87 58.1432C72.4042 58.1432 60.5653 70.002 60.5653 84.6389C60.5653 99.2759 72.4042 111.135 87 111.135C101.596 111.135 113.435 99.2759 113.435 84.6389C113.435 70.002 101.596 58.1432 87 58.1432Z" fill="var(--fill-0, black)"/>
<path fill-rule="evenodd" clip-rule="evenodd" d="M87 0C135.052 2.02774e-07 174 39.0376 174 87.1843C174 103.752 164.387 123.183 152.612 141.058C140.653 159.213 125.698 176.873 113.576 190.153C99.1566 205.949 74.8433 205.949 60.4242 190.153C48.3024 176.873 33.3472 159.213 21.3877 141.058C9.61269 123.183 8.67264e-05 103.752 0 87.1843C0 39.0376 38.9475 0 87 0ZM87 11.4837C45.2878 11.4837 11.4668 45.3723 11.4668 87.1843C11.4669 100.078 19.2866 117.015 30.9585 134.734C42.4458 152.172 56.9513 169.329 68.8866 182.405C78.7595 193.221 95.2405 193.221 105.113 182.405C117.049 169.329 131.554 152.172 143.042 134.734C154.713 117.015 162.533 100.078 162.533 87.1843C162.533 45.3723 128.712 11.4837 87 11.4837Z" fill="var(--fill-0, black)"/>
</g>
</svg>
