<svg preserveAspectRatio="xMidYMid meet" width="170" height="170" overflow="hidden" style="display: block;" viewBox="0 0 170 170" fill="none" xmlns="http://www.w3.org/2000/svg">
<path id="Mail" fill-rule="evenodd" clip-rule="evenodd" d="M110.888 0C143.535 0 170 26.4652 170 59.1117V110.888C170 143.535 143.535 170 110.888 170H59.1117C26.4652 170 7.78345e-07 143.535 0 110.888V59.1117C0 26.4652 26.4652 7.78345e-07 59.1117 0H110.888ZM11.6464 52.6918C11.365 54.7918 11.2183 56.9347 11.2183 59.1117V110.888C11.2183 137.339 32.6609 158.782 59.1117 158.782H110.888C137.339 158.782 158.782 137.339 158.782 110.888V59.1117C158.782 58.1148 158.747 57.1254 158.687 56.1436L128.467 86.3635C105.907 108.922 69.4075 109.276 46.4018 87.4203L45.3164 86.3618L11.6464 52.6918ZM59.1117 11.2183C39.5298 11.2183 22.6942 22.9709 15.2701 39.8067L53.5716 78.1082C71.9503 96.4868 101.87 96.5428 120.305 78.1082L155.846 42.5674C149.11 24.2695 131.524 11.2183 110.888 11.2183H59.1117Z" fill="var(--fill-0, black)"/>
</svg>
