<svg preserveAspectRatio="none" width="231" height="152" overflow="visible" style="display: block;" viewBox="0 0 152 231" fill="none" xmlns="http://www.w3.org/2000/svg">
<path id="Mouse" fill-rule="evenodd" clip-rule="evenodd" d="M93.8108 0.0185182C126.034 0.809022 151.999 26.141 152 57.1541V173.846C151.999 204.859 126.034 230.191 93.8108 230.981L92.2725 231H59.7275L58.1892 230.981C25.9657 230.191 0.000731893 204.859 0 173.846V57.1541C0.000732215 26.141 25.9657 0.809019 58.1892 0.0185182L59.7275 0H92.2725L93.8108 0.0185182ZM59.7259 11.3466C33.3244 11.3475 11.7933 31.8742 11.7923 57.2163V173.784C11.7933 199.126 33.3244 219.653 59.7259 219.653H92.2741C118.676 219.653 140.207 199.126 140.208 173.784V57.2163C140.207 31.8741 118.676 11.3475 92.2741 11.3466H82.9091V84.4702H70.8182V11.3466H59.7259Z" fill="var(--fill-0, black)"/>
</svg>
