<svg preserveAspectRatio="none" width="139" height="193" overflow="visible" style="display: block;" viewBox="0 0 139 193" fill="none" xmlns="http://www.w3.org/2000/svg">
<path id="Pessoa" fill-rule="evenodd" clip-rule="evenodd" d="M69.5 0C100.642 0 125.885 25.4211 125.885 56.7769C125.885 77.7639 114.574 96.086 97.7597 105.912C121.788 114.469 139 137.497 139 164.569V176.385L138.981 177.975V177.983C138.884 181.805 138.441 185.541 137.688 189.162L137.58 189.679H125.883L126.087 188.869C127.092 184.873 127.629 180.688 127.63 176.377V164.569C127.629 136.514 104.987 113.77 77.0566 113.77H61.9434C34.0127 113.77 11.3706 136.514 11.3705 164.569V176.377C11.3705 180.891 11.959 185.266 13.0586 189.431L13.2436 190.132L12.5307 190.241C9.19961 190.751 5.97895 191.6 2.90443 192.75L2.23558 193L2.05307 192.306C0.84661 187.718 0.143852 182.923 0.0192112 177.983V177.975L0 176.385V164.569C0.000115377 137.498 17.2104 114.47 41.2368 105.912C24.4242 96.0856 13.1147 77.7627 13.1147 56.7769C13.1147 25.4211 38.3582 9.40379e-07 69.5 0ZM69.5 11.5052C44.6722 11.5052 24.5428 31.7732 24.5428 56.7769C24.5429 81.7805 44.6722 102.048 69.5 102.048C94.3278 102.048 114.457 81.7805 114.457 56.7769C114.457 31.7732 94.3278 11.5052 69.5 11.5052Z" fill="var(--fill-0, black)"/>
</svg>
