<svg preserveAspectRatio="xMidYMid meet" width="219" height="194" overflow="visible" style="display: block;" viewBox="0 0 219 194" fill="none" xmlns="http://www.w3.org/2000/svg">
<g id="Pessoas Time">
<path d="M70.9874 0C81.1295 0 90.6593 2.6018 98.9372 7.16385L99.9738 7.73491L98.9372 8.30649C95.5103 10.1951 92.3017 12.425 89.3624 14.9549L89.0529 15.2216L88.6741 15.0648C83.2311 12.8114 77.257 11.5648 70.9874 11.5648C45.6273 11.5649 25.0676 31.9385 25.0676 57.0712C25.0677 82.2039 45.6273 102.577 70.9874 102.577C77.2571 102.577 83.2308 101.329 88.6741 99.0756L89.0529 98.9193L89.3624 99.1854C92.3015 101.715 95.5092 103.946 98.9356 105.834L99.9722 106.405L99.8726 106.46L100.695 106.733L98.8242 107.353C93.5764 109.092 88.6406 111.504 84.1254 114.489L83.9298 114.618L83.6956 114.596C82.0532 114.44 80.3888 114.359 78.7057 114.359H63.2696C34.7399 114.359 11.613 137.222 11.6128 165.422V177.292C11.6128 181.829 12.2141 186.226 13.3372 190.413L13.526 191.118L12.798 191.227C9.39556 191.74 6.10607 192.594 2.96576 193.749L2.28314 194L2.09688 193.303C0.864604 188.691 0.146915 183.871 0.0196066 178.906V178.897L0 177.3V165.422C0.000117847 138.211 17.5789 115.064 42.1192 106.461C24.947 96.5838 13.3955 78.1659 13.3955 57.0712C13.3955 25.5524 39.1797 7.56943e-05 70.9874 0Z" fill="var(--fill-0, black)"/>
<path fill-rule="evenodd" clip-rule="evenodd" d="M148.013 0C179.82 7.82674e-05 205.605 25.5524 205.605 57.0712C205.605 78.1673 194.051 96.5843 176.877 106.461C201.419 115.062 219 138.21 219 165.422V177.3L218.98 178.897V178.906C218.882 182.748 218.429 186.503 217.66 190.143L217.55 190.662H205.603L205.811 189.848C206.839 185.832 207.387 181.625 207.387 177.292V165.422C207.387 137.222 184.26 114.359 155.73 114.359H140.294C111.765 114.359 88.6382 137.222 88.638 165.422V177.292C88.638 181.829 89.2388 186.226 90.3619 190.413L90.5512 191.118L89.8232 191.227C86.4206 191.74 83.1309 192.594 79.9905 193.749L79.3084 194L79.1221 193.303C77.8898 188.691 77.1721 183.871 77.0448 178.906V178.897L77.0252 177.3L77.0247 177.296V165.422C77.0248 138.211 94.604 115.064 119.144 106.461C101.972 96.5838 90.4207 78.166 90.4207 57.0712C90.4207 25.5523 116.205 0 148.013 0ZM148.013 11.5648C122.652 11.5648 102.092 31.9384 102.092 57.0712C102.092 82.2039 122.652 102.577 148.013 102.577C173.373 102.577 193.932 82.2039 193.932 57.0712C193.932 31.9385 173.373 11.5649 148.013 11.5648Z" fill="var(--fill-0, black)"/>
</g>
</svg>
