<svg preserveAspectRatio="none" width="171" height="183" overflow="visible" style="display: block;" viewBox="0 0 171 183" fill="none" xmlns="http://www.w3.org/2000/svg">
<g id="Sacola">
<path d="M11.4052 125.942C11.4057 151.215 32.2258 171.684 57.756 171.684H113.246C138.776 171.684 159.596 151.214 159.596 125.942L159.598 69.2573H171V126.004C171 156.931 145.892 182.194 114.732 182.982L113.244 183H57.7577L56.2693 182.982C25.1097 182.194 0.00206141 156.931 0.00165556 126.004L0 69.2573H11.4035L11.4052 125.942Z" fill="var(--fill-0, black)"/>
<path d="M89.6273 0.0179719C120.786 0.806387 145.892 26.0676 145.893 56.9939L145.895 81.1416H134.491L134.49 57.0576C134.489 31.7854 113.669 11.3159 88.139 11.3158H81.4886C55.9584 11.3162 35.1384 31.7856 35.1377 57.0576L35.1361 81.1416H23.7342V56.9939C23.7352 26.0675 48.8426 0.806266 80.0019 0.0179719L80.7849 0.00816906V0H88.23L89.6273 0.0179719Z" fill="var(--fill-0, black)"/>
</g>
</svg>
