<svg preserveAspectRatio="none" width="188" height="188" overflow="visible" style="display: block;" viewBox="0 0 188 188" fill="none" xmlns="http://www.w3.org/2000/svg">
<g id="Um">
<path d="M100.111 133.669H125.333V143.765H64.5098V133.669H89.8763V54.3312H74.7425V44.2353H100.111V133.669Z" fill="var(--fill-0, black)"/>
<path fill-rule="evenodd" clip-rule="evenodd" d="M94 0C145.915 0 188 42.0852 188 94C188 145.915 145.915 188 94 188C42.0852 188 0 145.915 0 94C0 42.0852 42.0852 0 94 0ZM94 11.0588C48.1929 11.0588 11.0588 48.1929 11.0588 94C11.0588 139.807 48.1929 176.941 94 176.941C139.807 176.941 176.941 139.807 176.941 94C176.941 48.1929 139.807 11.0588 94 11.0588Z" fill="var(--fill-0, black)"/>
</g>
</svg>
