<svg width="1744" height="112" viewBox="0 0 1744 112" fill="none" xmlns="http://www.w3.org/2000/svg">
<path d="M0 56.5592C0 46.2273 3.14217 36.8008 9.42652 28.2796C15.7109 19.6519 23.9657 12.835 34.1911 7.82882C44.523 2.82264 55.4407 0.319554 66.9443 0.319554H199.395L218.887 17.0956L219.367 111.68H200.194V17.2554H164.565C155.937 17.2554 147.949 19.0661 140.599 22.6876C133.356 26.3091 127.604 31.1555 123.344 37.2268C119.19 43.1916 117.113 49.5825 117.113 56.3994V111.84H97.94V56.5592C97.94 48.7836 99.804 41.5407 103.532 34.8302C107.26 28.1198 112.426 22.2615 119.03 17.2554H65.8259C57.5178 17.2554 49.7422 19.0661 42.4992 22.6876C35.3628 26.3091 29.6643 31.1555 25.4037 37.2268C21.2496 43.1916 19.1726 49.5825 19.1726 56.3994V111.84H0V56.5592Z" fill="#F54A00"/>
<path d="M328.381 111.68V61.0328H250.252V111.84H230.92V56.5592C230.92 46.2273 234.062 36.8008 240.347 28.2796C246.631 19.6519 254.886 12.835 265.111 7.82882C275.443 2.82264 286.361 0.319554 297.864 0.319554H327.582L347.074 17.0956L347.553 111.68H328.381ZM328.381 44.8959V17.2554H296.906C290.195 17.2554 283.804 18.4803 277.733 20.9301C271.662 23.2734 266.443 26.5754 262.076 30.836C257.708 34.99 254.513 39.6767 252.489 44.8959H328.381Z" fill="#F54A00"/>
<path d="M359.018 56.3994C359.018 46.7066 361.894 37.5464 367.646 28.9187C373.504 20.1845 381.599 13.2078 391.931 7.98859C402.263 2.66287 413.873 0 426.761 0H491.309V16.9358H427.72C418.56 16.9358 410.625 18.427 403.914 21.4094C397.204 24.3918 391.878 28.1731 387.937 32.7532C383.996 37.3333 381.227 42.1797 379.629 47.2924H491.309V55.4408C491.309 65.1336 488.38 74.3471 482.522 83.0813C476.77 91.709 468.728 98.6857 458.396 104.011C448.064 109.231 436.454 111.84 423.566 111.84H359.018V94.9044H422.607C431.874 94.9044 439.916 93.4132 446.733 90.4308C453.55 87.3419 458.929 83.5074 462.87 78.9273C466.811 74.2406 469.527 69.2877 471.018 64.0685H359.018V56.3994Z" fill="#F54A00"/>
<path d="M503.514 0H522.527V111.84H503.514V0Z" fill="#F54A00"/>
<path d="M649.261 112C637.757 112 626.839 109.497 616.508 104.491C606.282 99.4845 598.027 92.7209 591.743 84.1997C585.459 75.572 582.316 66.0922 582.316 55.7603V0.479323H595.897V55.9201C595.897 62.8435 598.027 69.767 602.288 76.6904C606.548 83.6139 612.247 89.3124 619.383 93.786C626.626 98.2596 634.295 100.496 642.391 100.496H685.209V59.9144C684.996 58.9558 684.89 57.5711 684.89 55.7603V0.479323H698.95V55.9201C698.95 66.5716 700.974 75.1992 705.021 81.8031C709.175 88.407 714.661 93.1469 721.478 96.0228C728.401 98.8987 736.39 100.337 745.443 100.337H786.345V0.639093H800.245V0.319554L799.925 95.224L780.433 112H745.443C736.816 112 728.348 110.562 720.04 107.686C711.838 104.704 704.595 100.603 698.311 95.3837L678.978 112H649.261Z" fill="#F54A00"/>
<path d="M811.676 94.7447V56.2396C811.676 45.9077 814.819 36.4812 821.103 27.9601C827.387 19.3324 835.642 12.5155 845.867 7.50927C856.199 2.50309 867.117 0 878.621 0H923.996L943.808 16.776V55.281C943.808 65.6129 940.665 75.0927 934.381 83.7204C928.097 92.2416 919.788 99.0052 909.457 104.011C899.231 109.018 888.367 111.521 876.863 111.521H831.488L811.676 94.7447ZM876.703 100.496C886.29 100.496 895.184 98.4194 903.385 94.2653C911.587 90.1113 918.084 84.5725 922.877 77.6491C927.777 70.7256 930.227 63.3229 930.227 55.4408V11.0243H878.78C869.194 11.0243 860.3 13.1013 852.098 17.2554C843.897 21.4094 837.346 26.9482 832.447 33.8716C827.653 40.7951 825.257 48.1978 825.257 56.0799V100.496H876.703Z" fill="#F54A00"/>
<path d="M955.377 0H1052.2L1072.49 16.776C1071.42 23.806 1068.23 30.7294 1062.9 37.5464C1057.68 44.2568 1050.76 49.9553 1042.13 54.6419C1033.61 59.3286 1024.24 62.2045 1014.01 63.2696L1072.33 111.68H1052.84L988.61 58.1569V52.8845H1003.63C1015.66 52.8845 1025.84 50.6476 1034.14 46.174C1042.56 41.7004 1048.79 36.2682 1052.84 29.8773C1056.89 23.4865 1058.91 17.3619 1058.91 11.5036H968.958V111.84H955.377V0Z" fill="#F54A00"/>
<path d="M1083.94 0H1097.52V50.3281L1124.21 50.1683C1134.11 50.0618 1143.06 48.3576 1151.05 45.0556C1159.14 41.6472 1165.53 36.5877 1170.22 29.8773C1175.01 23.1669 1177.41 14.9653 1177.41 5.27247V0H1190.99V7.02996C1190.99 16.4032 1188.49 24.9777 1183.48 32.7532C1178.58 40.4223 1171.87 46.8131 1163.35 51.9258C1170.81 55.1212 1177.36 59.3818 1183 64.7076C1188.75 69.9268 1193.17 75.7851 1196.26 82.2825C1199.46 88.6733 1201.06 95.1707 1201.06 101.775V111.84H1187.48V101.775C1187.48 96.2358 1185.61 90.271 1181.88 83.8802C1178.26 77.3828 1172.24 71.844 1163.83 67.2639C1155.41 62.5773 1144.55 60.234 1131.24 60.234H1097.52V111.84H1083.94V0Z" fill="#F54A00"/>
<path d="M1212.51 56.3994C1212.51 46.7066 1215.39 37.5464 1221.14 28.9187C1227 20.1845 1235.09 13.2078 1245.42 7.98859C1255.75 2.66287 1267.36 0 1280.25 0H1344.8V11.3438H1276.26C1266.46 11.3438 1258.04 13.3676 1251.01 17.4151C1244.09 21.3562 1238.66 26.3091 1234.72 32.2739C1230.88 38.2387 1228.38 44.2035 1227.21 50.1683H1344.8V55.4408C1344.8 65.1336 1341.87 74.3471 1336.01 83.0813C1330.26 91.709 1322.22 98.6857 1311.89 104.011C1301.56 109.231 1289.95 111.84 1277.06 111.84H1212.51V100.496H1281.53C1291.33 100.496 1299.75 98.4727 1306.78 94.4251C1313.81 90.3776 1319.24 85.3714 1323.07 79.4066C1326.91 73.4417 1329.41 67.4769 1330.58 61.5121H1212.51V56.3994Z" fill="#F54A00"/>
<path d="M1356.37 0H1370.11V50.6476H1459.58V0H1473.16V111.84H1459.58V60.234H1370.11V111.84H1356.37V0Z" fill="#F54A00"/>
<path d="M1484.62 94.7447V56.2396C1484.62 45.9077 1487.76 36.4812 1494.05 27.9601C1500.33 19.3324 1508.59 12.5155 1518.81 7.50927C1529.14 2.50309 1540.06 0 1551.57 0H1596.94L1616.75 16.776V55.281C1616.75 65.6129 1613.61 75.0927 1607.33 83.7204C1601.04 92.2416 1592.73 99.0052 1582.4 104.011C1572.18 109.018 1561.31 111.521 1549.81 111.521H1504.43L1484.62 94.7447ZM1549.65 100.496C1559.23 100.496 1568.13 98.4194 1576.33 94.2653C1584.53 90.1113 1591.03 84.5725 1595.82 77.6491C1600.72 70.7256 1603.17 63.3229 1603.17 55.4408V11.0243H1551.73C1542.14 11.0243 1533.25 13.1013 1525.04 17.2554C1516.84 21.4094 1510.29 26.9482 1505.39 33.8716C1500.6 40.7951 1498.2 48.1978 1498.2 56.0799V100.496H1549.65Z" fill="#F54A00"/>
<path d="M1628.32 0H1724.18L1743.52 16.776C1741.81 25.0842 1737.93 32.8597 1731.85 40.1027C1725.78 47.3457 1717.95 53.1507 1708.37 57.5178C1698.89 61.7784 1688.4 63.9087 1676.89 63.9087L1641.9 63.7489V111.84H1628.32V0ZM1674.66 52.2454C1684.24 52.2454 1693.35 50.2748 1701.98 46.3338C1710.71 42.2863 1717.74 37.1203 1723.07 30.836C1728.39 24.4451 1731.06 17.9477 1731.06 11.3438H1641.9V52.2454H1674.66Z" fill="#F54A00"/>
</svg>
